SplineFontDB: 3.2
FontName: jianzi-font
FullName: Untitled1
FamilyName: Untitled1
Weight: Regular
Copyright: Copyright (c) 2022, ElnurSpinel
UComments: "2022-5-2: Created with FontForge (http://fontforge.org)"
Version: 001.000
ItalicAngle: 0
UnderlinePosition: -125
UnderlineWidth: 50
Ascent: 880
Descent: 120
InvalidEm: 0
LayerCount: 2
Layer: 0 0 "Back" 1
Layer: 1 0 "Fore" 0
HasVMetrics: 1
XUID: [1021 202 -301490092 28764]
OS2Version: 0
OS2_WeightWidthSlopeOnly: 0
OS2_UseTypoMetrics: 1
CreationTime: 1651512925
ModificationTime: 1651512925
OS2TypoAscent: 0
OS2TypoAOffset: 1
OS2TypoDescent: 0
OS2TypoDOffset: 1
OS2TypoLinegap: 0
OS2WinAscent: 0
OS2WinAOffset: 1
OS2WinDescent: 0
OS2WinDOffset: 1
HheadAscent: 0
HheadAOffset: 1
HheadDescent: 0
HheadDOffset: 1
OS2Vendor: 'PfEd'
DEI: 91125
Encoding: UnicodeBmp
UnicodeInterp: none
NameList: AGL For New Fonts
DisplaySize: -48
AntiAlias: 1
FitToEm: 0
OnlyBitmaps: 1
BeginChars: 65536 96

StartChar: uniE038
Encoding: 57400 57400 20
Width: 1000
VWidth: 0
Flags: W
LayerCount: 2
Fore
SplineSet
295.721679688 326.541992188 m 2
 291.813476562 325.791015625 288.296875 325.228515625 285.169921875 324.853515625 c 0
 282.043945312 324.478515625 279.30859375 324.291015625 276.963867188 324.291015625 c 0
 270.7109375 324.291015625 265.533203125 328.60546875 261.430664062 337.233398438 c 0
 257.327148438 345.861328125 254.396484375 354.865234375 252.637695312 364.244140625 c 0
 250.879882812 373.623046875 250 379.8125 250 382.813476562 c 0
 250 386.565429688 250.977539062 388.440429688 252.931640625 388.440429688 c 0
 254.103515625 388.440429688 255.080078125 388.065429688 255.862304688 387.315429688 c 0
 259.37890625 385.064453125 263.384765625 383.564453125 267.877929688 382.813476562 c 0
 272.372070312 382.063476562 276.573242188 381.688476562 280.48046875 381.688476562 c 2
 287.514648438 381.688476562 l 1
 692.555664062 425.580078125 l 2
 699.19921875 426.331054688 704.376953125 427.268554688 708.088867188 428.393554688 c 0
 711.801757812 429.51953125 715.806640625 431.583007812 720.10546875 434.583984375 c 0
 720.887695312 435.333984375 721.864257812 435.708984375 723.037109375 435.708984375 c 0
 724.599609375 435.708984375 727.530273438 433.646484375 731.829101562 429.51953125 c 0
 736.127929688 425.392578125 740.23046875 419.765625 744.138671875 412.637695312 c 0
 748.045898438 405.509765625 750 397.444335938 750 388.440429688 c 0
 750 379.4375 747.264648438 374.185546875 741.793945312 372.684570312 c 2
 295.721679688 326.541992188 l 2
EndSplineSet
EndChar

StartChar: uniE039
Encoding: 57401 57401 21
Width: 1000
VWidth: 0
Flags: W
LayerCount: 2
Fore
SplineSet
295.455078125 130.932617188 m 2
 292.700195312 130.932617188 290.141601562 130.778320312 287.780273438 130.465820312 c 0
 285.418945312 130.15625 283.254882812 130 281.286132812 130 c 0
 272.235351562 130 266.134765625 133.108398438 262.987304688 139.328125 c 0
 260.232421875 144.303710938 257.772460938 150.056640625 255.607421875 156.5859375 c 0
 253.443359375 163.116210938 251.771484375 169.1796875 250.58984375 174.776367188 c 0
 250.197265625 176.01953125 250 177.885742188 250 180.372070312 c 0
 250 184.104492188 251.180664062 185.969726562 253.541992188 185.969726562 c 0
 254.329101562 185.969726562 255.116210938 185.659179688 255.903320312 185.037109375 c 0
 260.625976562 183.170898438 265.446289062 181.616210938 270.366210938 180.372070312 c 0
 275.286132812 179.129882812 279.909179688 178.5078125 284.23828125 178.5078125 c 2
 287.780273438 178.5078125 l 1
 692.739257812 205.559570312 l 2
 702.970703125 206.182617188 712.022460938 208.358398438 719.893554688 212.08984375 c 0
 720.680664062 212.08984375 721.369140625 212.245117188 721.958984375 212.555664062 c 0
 722.549804688 212.868164062 723.041992188 213.022460938 723.435546875 213.022460938 c 0
 728.9453125 213.022460938 734.75 208.358398438 740.849609375 199.030273438 c 0
 746.950195312 189.702148438 750 181.306640625 750 173.842773438 c 0
 750 165.758789062 747.048828125 161.09375 741.14453125 159.8515625 c 2
 295.455078125 130.932617188 l 2
363.341796875 556.306640625 m 2
 360.586914062 556.306640625 358.028320312 556.150390625 355.66796875 555.83984375 c 0
 353.305664062 555.530273438 351.141601562 555.374023438 349.173828125 555.374023438 c 0
 338.94140625 555.374023438 332.0546875 559.571289062 328.512695312 567.966796875 c 0
 324.970703125 576.36328125 322.215820312 586.157226562 320.248046875 597.3515625 c 0
 319.854492188 598.594726562 319.658203125 600.150390625 319.658203125 602.015625 c 0
 319.658203125 604.50390625 320.641601562 605.74609375 322.609375 605.74609375 c 0
 323.002929688 605.74609375 323.396484375 605.591796875 323.790039062 605.280273438 c 0
 324.18359375 604.969726562 324.577148438 604.813476562 324.970703125 604.813476562 c 0
 331.267578125 602.327148438 338.745117188 601.083007812 347.403320312 601.083007812 c 2
 355.077148438 601.083007812 l 1
 597.697265625 621.60546875 l 2
 603.600585938 622.227539062 609.01171875 623.00390625 613.931640625 623.936523438 c 0
 618.850585938 624.870117188 623.868164062 626.581054688 628.984375 629.067382812 c 0
 629.771484375 629.689453125 631.345703125 630 633.70703125 630 c 0
 637.642578125 630 642.956054688 626.581054688 649.645507812 619.739257812 c 0
 656.3359375 612.897460938 659.681640625 603.881835938 659.681640625 592.686523438 c 0
 659.681640625 584.602539062 657.123046875 579.9375 652.006835938 578.6953125 c 2
 363.341796875 556.306640625 l 2
EndSplineSet
EndChar

StartChar: uniE03A
Encoding: 57402 57402 22
Width: 1000
VWidth: 0
Flags: W
LayerCount: 2
Fore
SplineSet
289.319335938 130 m 1
 279.9296875 130 l 2
 270.930664062 130 264.96484375 132.056640625 262.030273438 136.172851562 c 0
 259.096679688 140.288085938 255.28125 150.576171875 250.586914062 167.037109375 c 0
 250.1953125 168.065429688 250 169.3515625 250 170.89453125 c 0
 250 172.952148438 250.978515625 173.981445312 252.934570312 173.981445312 c 0
 253.325195312 173.981445312 253.814453125 173.852539062 254.401367188 173.595703125 c 0
 254.98828125 173.337890625 255.477539062 173.209960938 255.868164062 173.209960938 c 0
 260.171875 172.6953125 264.181640625 172.052734375 267.899414062 171.280273438 c 0
 271.615234375 170.508789062 275.430664062 170.123046875 279.342773438 170.123046875 c 2
 284.624023438 170.123046875 l 1
 690.727539062 189.4140625 l 2
 696.205078125 189.927734375 701.095703125 190.5703125 705.399414062 191.342773438 c 0
 709.702148438 192.114257812 714.7890625 193.271484375 720.657226562 194.814453125 c 2
 723.004882812 194.814453125 l 2
 726.916992188 194.814453125 732.39453125 191.985351562 739.436523438 186.327148438 c 0
 746.478515625 180.668945312 750 172.952148438 750 163.178710938 c 0
 750 155.462890625 747.65234375 151.604492188 742.958007812 151.604492188 c 2
 289.319335938 130 l 1
394.953125 363.024414062 m 2
 392.997070312 363.024414062 391.138671875 362.896484375 389.377929688 362.638671875 c 0
 387.6171875 362.381835938 385.954101562 362.252929688 384.389648438 362.252929688 c 0
 378.912109375 362.252929688 374.021484375 364.438476562 369.71875 368.811523438 c 0
 365.4140625 373.184570312 361.306640625 383.34375 357.39453125 399.290039062 c 0
 357.002929688 400.318359375 356.807617188 401.604492188 356.807617188 403.1484375 c 0
 356.807617188 404.690429688 357.78515625 405.462890625 359.7421875 405.462890625 c 2
 361.501953125 405.462890625 l 2
 365.4140625 404.434570312 369.131835938 403.534179688 372.653320312 402.762695312 c 0
 376.173828125 401.990234375 380.0859375 401.604492188 384.390625 401.604492188 c 2
 388.498046875 401.604492188 l 1
 598.591796875 417.80859375 l 2
 602.895507812 418.322265625 606.807617188 418.837890625 610.329101562 419.3515625 c 0
 613.850585938 419.866210938 617.17578125 420.89453125 620.305664062 422.438476562 c 0
 621.087890625 422.952148438 622.45703125 423.209960938 624.413085938 423.209960938 c 0
 625.978515625 423.209960938 628.716796875 422.052734375 632.629882812 419.737304688 c 0
 636.541992188 417.422851562 640.258789062 414.208007812 643.779296875 410.092773438 c 0
 647.30078125 405.9765625 649.061523438 401.090820312 649.061523438 395.431640625 c 0
 649.061523438 387.202148438 645.344726562 382.572265625 637.911132812 381.54296875 c 2
 394.953125 363.024414062 l 2
362.088867188 566.728515625 m 2
 358.958984375 566.213867188 356.025390625 565.956054688 353.286132812 565.956054688 c 2
 346.244140625 565.956054688 l 1
 343.309570312 565.956054688 l 2
 337.049804688 565.956054688 332.256835938 568.9140625 328.931640625 574.830078125 c 0
 325.606445312 580.74609375 322.57421875 588.590820312 319.834960938 598.364257812 c 0
 319.444335938 599.392578125 319.249023438 600.678710938 319.249023438 602.221679688 c 0
 319.249023438 604.280273438 320.2265625 605.30859375 322.18359375 605.30859375 c 0
 322.57421875 605.30859375 322.965820312 605.1796875 323.356445312 604.922851562 c 0
 323.748046875 604.666015625 324.139648438 604.537109375 324.530273438 604.537109375 c 0
 330.399414062 602.479492188 336.854492188 601.450195312 343.896484375 601.450195312 c 0
 345.461914062 601.450195312 347.124023438 601.579101562 348.884765625 601.8359375 c 0
 350.645507812 602.09375 352.30859375 602.221679688 353.873046875 602.221679688 c 2
 620.891601562 623.055664062 l 2
 626.369140625 623.5703125 631.063476562 624.469726562 634.9765625 625.755859375 c 0
 638.888671875 627.041992188 642.997070312 628.200195312 647.299804688 629.228515625 c 0
 648.083007812 629.228515625 648.767578125 629.356445312 649.354492188 629.614257812 c 0
 649.94140625 629.872070312 650.625976562 630 651.408203125 630 c 0
 656.495117188 630 662.75390625 626.141601562 670.1875 618.42578125 c 0
 674.8828125 612.252929688 677.229492188 606.337890625 677.229492188 600.678710938 c 0
 677.229492188 593.9921875 674.686523438 590.133789062 669.600585938 589.104492188 c 2
 362.088867188 566.728515625 l 2
EndSplineSet
EndChar

StartChar: uniE03B
Encoding: 57403 57403 23
Width: 1000
VWidth: 0
Flags: W
LayerCount: 2
Fore
SplineSet
711.139648438 595.416992188 m 1
 558.290039062 586.051757812 l 1
 556.995117188 458.529296875 l 1
 556.995117188 449.884765625 l 2
 556.995117188 433.073242188 558.9375 422.02734375 562.823242188 416.744140625 c 0
 566.708984375 411.459960938 577.072265625 408.818359375 593.912109375 408.818359375 c 0
 607.728515625 408.818359375 618.5234375 409.178710938 626.294921875 409.8984375 c 0
 634.067382812 410.619140625 640.543945312 411.940429688 645.724609375 413.861328125 c 0
 650.90625 415.783203125 656.51953125 417.944335938 662.564453125 420.345703125 c 0
 663.428710938 420.826171875 664.723632812 421.06640625 666.450195312 421.06640625 c 0
 671.200195312 421.06640625 677.029296875 418.064453125 683.9375 412.060546875 c 0
 690.846679688 406.056640625 694.30078125 400.172851562 694.30078125 394.409179688 c 0
 694.30078125 388.165039062 690.198242188 384.322265625 681.995117188 382.881835938 c 0
 668.609375 380 654.252929688 377.71875 638.924804688 376.037109375 c 0
 623.596679688 374.356445312 609.024414062 373.515625 595.20703125 373.515625 c 0
 571.458984375 373.515625 553.755859375 377.71875 542.09765625 386.124023438 c 0
 530.440429688 394.529296875 524.611328125 412.661132812 524.611328125 440.518554688 c 2
 524.611328125 443.400390625 l 1
 525.90625 584.610351562 l 1
 450.77734375 579.567382812 l 1
 449.481445312 532.016601562 445.055664062 492.03125 437.5 459.609375 c 0
 429.943359375 427.189453125 418.393554688 399.091796875 402.849609375 375.315429688 c 0
 387.305664062 351.541015625 367.01171875 328.606445312 341.96875 306.51171875 c 0
 334.627929688 299.788085938 328.583007812 296.42578125 323.833984375 296.42578125 c 0
 320.37890625 296.42578125 318.65234375 298.346679688 318.65234375 302.189453125 c 0
 318.65234375 307.47265625 321.890625 313.716796875 328.3671875 320.921875 c 0
 348.228515625 343.015625 364.744140625 365.469726562 377.9140625 388.28515625 c 0
 391.083007812 411.099609375 401.014648438 437.517578125 407.70703125 467.536132812 c 0
 414.399414062 497.5546875 417.745117188 534.41796875 417.745117188 578.126953125 c 1
 291.450195312 570.201171875 l 1
 307.642578125 229.422851562 l 1
 689.119140625 244.551757812 l 1
 711.139648438 595.416992188 l 1
308.9375 197.001953125 m 1
 311.528320312 144.409179688 l 1
 311.528320312 142.248046875 l 2
 311.528320312 138.885742188 310.772460938 136.00390625 309.26171875 133.6015625 c 0
 307.75 131.200195312 305.267578125 130 301.813476562 130 c 0
 297.063476562 130 291.342773438 132.28125 284.650390625 136.84375 c 0
 277.958007812 141.40625 274.611328125 147.051757812 274.611328125 153.775390625 c 2
 274.611328125 159.5390625 l 2
 274.611328125 161.459960938 274.827148438 163.62109375 275.258789062 166.0234375 c 0
 275.690429688 171.306640625 276.014648438 176.709960938 276.23046875 182.233398438 c 0
 276.446289062 187.756835938 276.5546875 193.640625 276.5546875 199.884765625 c 2
 276.5546875 214.294921875 l 1
 260.362304688 548.587890625 l 2
 259.930664062 560.115234375 258.958984375 570.442382812 257.448242188 579.567382812 c 0
 255.936523438 588.693359375 254.1015625 597.8203125 251.943359375 606.9453125 c 0
 251.510742188 609.34765625 251.079101562 611.388671875 250.647460938 613.069335938 c 0
 250.215820312 614.750976562 250 616.311523438 250 617.752929688 c 0
 250 621.115234375 251.510742188 622.794921875 254.533203125 622.794921875 c 0
 257.555664062 622.794921875 262.197265625 621.354492188 268.458984375 618.47265625 c 0
 274.71875 615.591796875 283.247070312 610.547851562 294.041015625 603.342773438 c 1
 718.912109375 630 l 1
 723.4453125 630 l 2
 730.78515625 630 737.045898438 626.998046875 742.227539062 620.995117188 c 0
 747.409179688 614.990234375 750 609.827148438 750 605.504882812 c 0
 750 603.103515625 749.459960938 600.822265625 748.380859375 598.659179688 c 0
 747.30078125 596.498046875 746.545898438 594.45703125 746.11328125 592.536132812 c 2
 723.4453125 248.15625 l 1
 735.966796875 235.66796875 742.227539062 226.301757812 742.227539062 220.057617188 c 0
 742.227539062 214.774414062 736.831054688 211.65234375 726.036132812 210.69140625 c 2
 308.9375 197.001953125 l 1
EndSplineSet
EndChar

StartChar: uniE03C
Encoding: 57404 57404 24
Width: 1000
VWidth: 0
Flags: W
LayerCount: 2
Fore
SplineSet
610.26953125 396.479492188 m 1
 477.2734375 388.064453125 l 1
 444.724609375 169.971679688 l 1
 594.556640625 176.283203125 l 1
 610.26953125 396.479492188 l 1
293.209960938 130 m 1
 285.353515625 130 l 2
 276.000976562 130 268.892578125 131.635742188 264.029296875 134.909179688 c 0
 259.166015625 138.181640625 254.676757812 147.063476562 250.560546875 161.556640625 c 0
 250.1875 162.4921875 250 163.89453125 250 165.764648438 c 0
 250 168.1015625 251.122070312 169.270507812 253.3671875 169.270507812 c 0
 253.741210938 169.270507812 254.115234375 169.153320312 254.489257812 168.920898438 c 0
 254.86328125 168.686523438 255.23828125 168.569335938 255.611328125 168.569335938 c 0
 260.475585938 167.166015625 264.96484375 165.998046875 269.079101562 165.0625 c 0
 273.1953125 164.127929688 277.497070312 163.66015625 281.986328125 163.66015625 c 2
 285.915039062 163.66015625 l 1
 415.544921875 169.270507812 l 1
 447.53125 386.663085938 l 1
 371.7734375 381.752929688 l 2
 369.154296875 381.752929688 366.81640625 381.63671875 364.758789062 381.40234375 c 0
 362.701171875 381.169921875 360.737304688 381.052734375 358.866210938 381.052734375 c 0
 351.384765625 381.052734375 346.146484375 382.688476562 343.154296875 385.9609375 c 0
 339.413085938 389.701171875 336.419921875 394.727539062 334.174804688 401.0390625 c 0
 331.930664062 407.348632812 330.807617188 411.20703125 330.807617188 412.609375 c 0
 330.807617188 415.4140625 332.118164062 416.817382812 334.736328125 416.817382812 c 2
 336.419921875 416.817382812 l 2
 340.161132812 415.4140625 343.71484375 414.479492188 347.08203125 414.01171875 c 0
 350.44921875 413.543945312 353.62890625 413.309570312 356.622070312 413.309570312 c 0
 358.4921875 413.309570312 360.456054688 413.426757812 362.514648438 413.661132812 c 0
 364.571289062 413.89453125 366.536132812 414.01171875 368.40625 414.01171875 c 2
 452.020507812 418.920898438 l 1
 475.58984375 580.2109375 l 1
 352.1328125 571.094726562 l 2
 349.887695312 570.626953125 347.830078125 570.392578125 345.958984375 570.392578125 c 2
 340.34765625 570.392578125 l 2
 332.118164062 570.392578125 326.038085938 572.146484375 322.110351562 575.65234375 c 0
 318.181640625 579.159179688 314.534179688 586.990234375 311.166992188 599.145507812 c 0
 310.79296875 600.079101562 310.606445312 601.249023438 310.606445312 602.651367188 c 0
 310.606445312 604.521484375 311.541015625 605.45703125 313.412109375 605.45703125 c 0
 313.786132812 605.45703125 314.16015625 605.33984375 314.534179688 605.10546875 c 0
 314.908203125 604.872070312 315.282226562 604.754882812 315.65625 604.754882812 c 0
 321.642578125 602.884765625 327.815429688 601.94921875 334.174804688 601.94921875 c 0
 336.045898438 601.94921875 337.823242188 602.06640625 339.506835938 602.30078125 c 0
 341.190429688 602.534179688 342.780273438 602.651367188 344.27734375 602.651367188 c 2
 628.227539062 623.688476562 l 2
 633.46484375 624.15625 638.047851562 624.858398438 641.975585938 625.791992188 c 0
 645.904296875 626.727539062 649.92578125 627.896484375 654.041015625 629.299804688 c 0
 654.7890625 629.299804688 655.350585938 629.416992188 655.724609375 629.649414062 c 0
 656.098632812 629.8828125 656.66015625 630 657.408203125 630 c 0
 660.026367188 630 663.393554688 628.83203125 667.508789062 626.494140625 c 0
 671.624023438 624.15625 675.365234375 621.118164062 678.732421875 617.377929688 c 0
 682.099609375 613.63671875 683.783203125 609.196289062 683.783203125 604.053710938 c 0
 683.783203125 598.443359375 680.9765625 595.171875 675.365234375 594.235351562 c 2
 506.454101562 582.314453125 l 1
 482.323242188 421.024414062 l 1
 618.686523438 429.438476562 l 1
 621.493164062 429.438476562 l 2
 627.852539062 429.438476562 633.27734375 427.451171875 637.766601562 423.477539062 c 0
 642.255859375 419.50390625 644.500976562 414.712890625 644.500976562 409.102539062 c 0
 644.500976562 406.296875 644.033203125 403.725585938 643.09765625 401.387695312 c 0
 642.162109375 399.051757812 641.5078125 396.947265625 641.133789062 395.077148438 c 2
 623.17578125 177.685546875 l 1
 695.56640625 180.491210938 l 2
 700.8046875 180.958984375 705.293945312 181.42578125 709.03515625 181.893554688 c 0
 712.776367188 182.361328125 716.891601562 183.529296875 721.380859375 185.399414062 c 0
 722.12890625 185.8671875 723.250976562 186.100585938 724.748046875 186.100585938 c 0
 728.86328125 186.100585938 734.100585938 182.946289062 740.459960938 176.634765625 c 0
 746.8203125 170.322265625 750 163.89453125 750 157.348632812 c 0
 750 152.20703125 747.194335938 149.166992188 741.583007812 148.233398438 c 2
 293.209960938 130 l 1
EndSplineSet
EndChar

StartChar: uniE03D
Encoding: 57405 57405 25
Width: 1000
VWidth: 0
Flags: W
LayerCount: 2
Fore
SplineSet
730.487304688 165.852539062 m 0
 730.487304688 160.302734375 727.642578125 155.501953125 721.951171875 151.447265625 c 0
 716.259765625 147.392578125 711.788085938 145.365234375 708.536132812 145.365234375 c 0
 704.065429688 145.365234375 700.609375 147.286132812 698.170898438 151.126953125 c 0
 676.625976562 183.991210938 653.658203125 215.575195312 629.267578125 245.876953125 c 0
 604.877929688 276.180664062 579.065429688 304.5625 551.828125 331.024414062 c 0
 549.389648438 333.5859375 548.169921875 336.146484375 548.169921875 338.70703125 c 0
 548.169921875 342.12109375 549.897460938 346.17578125 553.352539062 350.87109375 c 0
 556.80859375 355.56640625 560.568359375 357.913085938 564.633789062 357.913085938 c 0
 566.258789062 357.913085938 568.291992188 357.059570312 570.731445312 355.352539062 c 0
 597.560546875 328.463867188 623.983398438 300.294921875 649.999023438 270.845703125 c 0
 676.015625 241.396484375 701.625976562 209.599609375 726.828125 175.455078125 c 0
 729.267578125 172.467773438 730.487304688 169.266601562 730.487304688 165.852539062 c 0
265.243164062 130 m 0
 260.366210938 130 257.926757812 131.920898438 257.926757812 135.76171875 c 0
 257.926757812 139.603515625 260.975585938 144.724609375 267.073242188 151.126953125 c 0
 295.934570312 178.869140625 321.951171875 207.78515625 345.122070312 237.874023438 c 0
 368.29296875 267.96484375 388.2109375 300.5078125 404.877929688 335.504882812 c 0
 406.09765625 338.06640625 407.215820312 341.481445312 408.231445312 345.749023438 c 0
 409.248046875 350.016601562 410.162109375 354.072265625 410.975585938 357.913085938 c 0
 411.381835938 360.046875 412.6015625 361.114257812 414.633789062 361.114257812 c 0
 416.259765625 361.114257812 419.30859375 359.513671875 423.780273438 356.3125 c 0
 428.251953125 353.111328125 432.520507812 349.056640625 436.584960938 344.1484375 c 0
 440.650390625 339.240234375 442.682617188 334.01171875 442.682617188 328.462890625 c 0
 442.682617188 326.755859375 442.276367188 325.048828125 441.462890625 323.341796875 c 0
 422.357421875 290.051757812 403.150390625 261.348632812 383.841796875 237.234375 c 0
 364.532226562 213.119140625 346.543945312 193.060546875 329.877929688 177.0546875 c 0
 313.2109375 161.05078125 299.084960938 149.206054688 287.5 141.5234375 c 0
 275.9140625 133.840820312 268.49609375 130 265.243164062 130 c 0
295.731445312 428.334960938 m 2
 292.885742188 427.908203125 290.243164062 427.6953125 287.8046875 427.6953125 c 2
 281.09765625 427.6953125 l 2
 271.341796875 427.6953125 264.125976562 431.215820312 259.451171875 438.258789062 c 0
 254.776367188 445.30078125 251.829101562 450.955078125 250.609375 455.223632812 c 0
 250.203125 456.077148438 250 457.14453125 250 458.424804688 c 0
 250 460.55859375 251.016601562 461.625976562 253.048828125 461.625976562 c 0
 253.861328125 461.625976562 254.471679688 461.51953125 254.877929688 461.305664062 c 0
 255.284179688 461.092773438 255.69140625 460.985351562 256.09765625 460.985351562 c 0
 260.162109375 460.131835938 264.430664062 459.4921875 268.90234375 459.065429688 c 0
 273.374023438 458.637695312 277.642578125 458.424804688 281.70703125 458.424804688 c 2
 289.024414062 458.424804688 l 1
 481.09765625 469.948242188 l 1
 479.877929688 590.307617188 l 2
 479.877929688 601.831054688 477.438476562 612.927734375 472.560546875 623.59765625 c 0
 472.154296875 624.451171875 471.951171875 625.305664062 471.951171875 626.159179688 c 0
 471.951171875 628.719726562 474.186523438 630 478.658203125 630 c 0
 479.471679688 630 482.723632812 629.573242188 488.4140625 628.719726562 c 0
 494.10546875 627.866210938 499.592773438 626.265625 504.877929688 623.91796875 c 0
 510.162109375 621.5703125 512.8046875 617.623046875 512.8046875 612.07421875 c 2
 512.8046875 471.228515625 l 1
 682.317382812 481.47265625 l 2
 688.821289062 481.899414062 694.817382812 482.5390625 700.3046875 483.392578125 c 0
 705.79296875 484.24609375 711.381835938 485.526367188 717.073242188 487.234375 c 0
 717.885742188 487.66015625 718.69921875 487.981445312 719.51171875 488.194335938 c 0
 720.325195312 488.408203125 721.341796875 488.514648438 722.560546875 488.514648438 c 0
 724.592773438 488.514648438 727.845703125 487.234375 732.317382812 484.672851562 c 0
 736.788085938 482.112304688 740.853515625 478.911132812 744.51171875 475.0703125 c 0
 748.170898438 471.228515625 750 467.174804688 750 462.90625 c 0
 750 457.784179688 747.357421875 454.796875 742.073242188 453.943359375 c 2
 295.731445312 428.334960938 l 2
EndSplineSet
EndChar

StartChar: uniE03E
Encoding: 57406 57406 26
Width: 1000
VWidth: 0
Flags: W
LayerCount: 2
Fore
SplineSet
472.80078125 369.271484375 m 1
 472.221679688 230.129882812 l 2
 472.221679688 211.05859375 474.440429688 196.64453125 478.876953125 186.892578125 c 0
 483.314453125 177.139648438 492.1875 170.637695312 505.497070312 167.385742188 c 0
 518.807617188 164.135742188 538.965820312 162.510742188 565.971679688 162.510742188 c 0
 586.033203125 162.510742188 605.515625 163.59375 624.420898438 165.760742188 c 0
 643.325195312 167.927734375 660.108398438 170.637695312 674.768554688 173.887695312 c 0
 689.428710938 177.139648438 700.038085938 180.499023438 706.596679688 183.966796875 c 0
 708.912109375 185.266601562 711.2265625 185.916992188 713.541992188 185.916992188 c 0
 720.099609375 185.916992188 726.080078125 182.557617188 731.481445312 175.838867188 c 0
 736.8828125 169.120117188 739.583007812 163.59375 739.583007812 159.258789062 c 0
 739.583007812 153.19140625 735.724609375 149.505859375 728.008789062 148.206054688 c 0
 696.758789062 142.571289062 667.438476562 138.126953125 640.045898438 134.876953125 c 0
 612.653320312 131.625 586.997070312 130 563.078125 130 c 0
 534.529296875 130 511.284179688 132.059570312 493.34375 136.177734375 c 0
 475.404296875 140.295898438 462.190429688 148.96484375 453.703125 162.184570312 c 0
 445.215820312 175.40625 440.971679688 195.236328125 440.971679688 221.677734375 c 2
 440.971679688 224.278320312 l 1
 441.549804688 363.419921875 l 1
 298.611328125 336.76171875 l 2
 293.209960938 335.89453125 288.869140625 335.13671875 285.58984375 334.486328125 c 0
 282.310546875 333.8359375 279.3203125 333.510742188 276.620117188 333.510742188 c 0
 273.1484375 333.510742188 269.868164062 334.377929688 266.782226562 336.112304688 c 0
 263.6953125 338.279296875 260.705078125 341.205078125 257.8125 344.889648438 c 0
 254.918945312 348.57421875 252.5078125 352.150390625 250.578125 355.618164062 c 0
 250.192382812 356.484375 250 357.568359375 250 358.868164062 c 0
 250 362.3359375 251.736328125 364.0703125 255.208007812 364.0703125 c 0
 257.13671875 363.63671875 258.776367188 363.419921875 260.126953125 363.419921875 c 2
 264.467773438 363.419921875 l 2
 268.7109375 363.419921875 272.666015625 363.745117188 276.330078125 364.395507812 c 0
 279.99609375 365.045898438 283.564453125 365.587890625 287.037109375 366.020507812 c 2
 442.12890625 394.62890625 l 1
 443.286132812 596.190429688 l 2
 443.286132812 600.95703125 442.900390625 605.401367188 442.12890625 609.518554688 c 0
 441.357421875 613.63671875 439.62109375 617.86328125 436.920898438 622.197265625 c 0
 436.149414062 623.930664062 435.762695312 625.014648438 435.762695312 625.44921875 c 0
 435.762695312 628.482421875 437.884765625 630 442.12890625 630 c 0
 445.600585938 630 450.809570312 628.69921875 457.75390625 626.09765625 c 0
 468.942382812 621.331054688 474.536132812 616.345703125 474.536132812 611.14453125 c 2
 473.37890625 400.481445312 l 1
 682.870117188 438.841796875 l 2
 688.271484375 439.709960938 693.3828125 441.119140625 698.206054688 443.068359375 c 0
 703.028320312 445.01953125 707.947265625 447.294921875 712.962890625 449.896484375 c 0
 714.120117188 450.762695312 715.470703125 451.413085938 717.013671875 451.846679688 c 0
 718.556640625 452.280273438 720.099609375 452.49609375 721.643554688 452.49609375 c 0
 723.958007812 452.49609375 727.333984375 451.413085938 731.770507812 449.24609375 c 0
 736.208007812 447.078125 740.354492188 444.15234375 744.212890625 440.46875 c 0
 748.0703125 436.783203125 750 432.557617188 750 427.7890625 c 0
 750 422.587890625 747.298828125 419.552734375 741.8984375 418.686523438 c 2
 472.80078125 369.271484375 l 1
EndSplineSet
EndChar

StartChar: uniE09C
Encoding: 57500 57500 27
Width: 1000
VWidth: 0
Flags: W
LayerCount: 2
Fore
SplineSet
289.96875 503.515625 m 2
 290.3671875 503.515625 l 1
 748.178710938 523.201171875 l 2
 752.026367188 524.220703125 753.96875 524.40625 758.58984375 524.40625 c 0
 772.89453125 524.40625 781.829101562 521.078125 788.6875 514.72265625 c 0
 798.06640625 506.034179688 800 500.6640625 800 500.6640625 c 1
 800 491.44921875 788.873046875 488.572265625 781.344726562 473.684570312 c 0
 687.640625 294.245117188 589.19140625 171.680664062 511.961914062 92.4677734375 c 0
 502.649414062 82.85546875 495.171875 80.138671875 489.400390625 80 c 0
 474.395507812 82.69140625 462.118164062 86.4443359375 451.568359375 91.8642578125 c 0
 445.666015625 94.8974609375 444.33984375 97.06640625 444.234375 100.626953125 c 0
 444.6875 102.56640625 445.452148438 103.774414062 446.103515625 104.49609375 c 0
 624.78515625 276.848632812 697.149414062 414.940429688 730.21875 480.588867188 c 2
 732.877929688 485.8671875 l 1
 289.509765625 463.86328125 l 1
 275.168945312 463.86328125 l 2
 247.829101562 463.86328125 232.791992188 468.331054688 227.8671875 472.2421875 c 0
 216.943359375 480.916992188 206.619140625 490.552734375 200 507.728515625 c 1
 243.493164062 502.362304688 245.55078125 502.2109375 260.370117188 502.2109375 c 0
 275.137695312 502.2109375 279.247070312 503.515625 289.96875 503.515625 c 2
362.317382812 657.86328125 m 2
 362.7734375 657.86328125 l 1
 601.6484375 669.63671875 l 2
 632.8125 671.171875 649.779296875 675.58203125 666.78125 680 c 1
 682.922851562 676.458984375 716.143554688 655.967773438 716.143554688 647.17578125 c 0
 716.143554688 642.62890625 710.064453125 641.954101562 705.001953125 641.6875 c 2
 383.16796875 624.737304688 l 2
 375.844726562 624.681640625 369.322265625 623.43359375 366.426757812 623.43359375 c 2
 352.451171875 623.43359375 l 2
 349.401367188 623.43359375 342.880859375 624.237304688 334.344726562 626.231445312 c 0
 329.073242188 627.462890625 320.299804688 631.735351562 309.69921875 639.959960938 c 0
 303.333984375 648.46875 298.57421875 655.244140625 295.53515625 660.176757812 c 1
 308.642578125 657.73828125 322.6953125 656.557617188 337.65234375 656.557617188 c 0
 350.068359375 656.557617188 352.061523438 657.86328125 362.317382812 657.86328125 c 2
EndSplineSet
EndChar

StartChar: uniE101
Encoding: 57601 57601 28
Width: 1000
VWidth: 0
Flags: W
LayerCount: 2
Fore
SplineSet
844.198242188 732.737304688 m 1
 334.758789062 701.721679688 l 1
 334.116210938 671.52734375 333.314453125 639.856445312 332.353515625 606.70703125 c 0
 331.390625 573.557617188 332.513671875 596.696289062 329.948242188 561.907226562 c 1
 819.18359375 591.9375 l 1
 844.198242188 732.737304688 l 1
874.984375 549.599609375 m 1
 326.09765625 517.598632812 l 1
 325.455078125 507.09765625 321.606445312 439.323242188 320.325195312 428.491210938 c 0
 319.04296875 417.661132812 317.759765625 406.995117188 316.475585938 396.4921875 c 0
 308.137695312 336.7578125 294.02734375 281.456054688 274.14453125 230.584960938 c 0
 254.258789062 179.712890625 232.772460938 135.568359375 209.682617188 98.1533203125 c 0
 186.591796875 60.7392578125 165.264648438 31.69140625 145.701171875 11.015625 c 0
 126.138671875 -9.6611328125 112.828125 -20 105.7734375 -20 c 0
 101.924804688 -20 100 -17.703125 100 -13.1083984375 c 0
 100 -9.826171875 101.283203125 -5.06640625 103.848632812 1.1689453125 c 0
 106.416015625 7.404296875 110.904296875 14.7890625 117.318359375 23.3232421875 c 0
 152.596679688 73.8662109375 181.138671875 122.93359375 202.948242188 170.5234375 c 0
 224.755859375 218.11328125 241.430664062 267.508789062 252.977539062 318.708007812 c 0
 264.522460938 369.907226562 272.379882812 426.030273438 276.548828125 487.077148438 c 0
 280.71875 548.124023438 282.802734375 617.373046875 282.802734375 694.831054688 c 0
 282.802734375 704.020507812 282.3203125 713.045898438 281.359375 721.907226562 c 0
 280.3984375 730.76953125 277.993164062 740.451171875 274.14453125 750.954101562 c 0
 272.219726562 754.892578125 271.256835938 758.502929688 271.256835938 761.78515625 c 0
 271.256835938 766.379882812 273.823242188 768.676757812 278.954101562 768.676757812 c 0
 283.444335938 768.676757812 290.178710938 767.036132812 299.158203125 763.752929688 c 0
 308.137695312 760.471679688 320.00390625 754.892578125 334.756835938 747.015625 c 1
 857.666992188 780 l 2
 866.645507812 780 875.947265625 777.046875 885.567382812 771.137695312 c 0
 895.189453125 765.231445312 900 758.010742188 900 749.477539062 c 0
 900 746.194335938 899.357421875 743.241210938 898.075195312 740.615234375 c 0
 896.793945312 737.989257812 895.6953125 735.380859375 895.189453125 732.73828125 c 2
 869.2109375 596.862304688 l 1
 878.190429688 590.296875 884.444335938 584.2265625 887.97265625 578.646484375 c 0
 891.500976562 573.06640625 893.265625 568.307617188 893.265625 564.369140625 c 0
 893.265625 559.774414062 891.661132812 556.328125 888.455078125 554.03125 c 0
 885.247070312 551.733398438 881.3984375 550.2578125 876.909179688 549.599609375 c 2
 874.984375 549.599609375 l 1
EndSplineSet
EndChar

StartChar: uniE102
Encoding: 57602 57602 29
Width: 1000
VWidth: 0
Flags: W
LayerCount: 2
Fore
SplineSet
899.999023438 243.27734375 m 2
 899.999023438 217.525390625 898.405273438 193.298828125 895.21484375 170.596679688 c 0
 892.02734375 147.89453125 889.635742188 125.022460938 888.041015625 101.981445312 c 0
 887.244140625 72.841796875 874.6875 49.123046875 850.373046875 30.826171875 c 0
 826.05859375 12.5283203125 793.173828125 1.0078125 751.719726562 -3.736328125 c 0
 707.075195312 -8.4794921875 661.633789062 -12.3759765625 615.395507812 -15.42578125 c 0
 569.158203125 -18.4755859375 522.91796875 -20 476.680664062 -20 c 0
 399.352539062 -20 324.016601562 -15.9345703125 250.673828125 -7.8017578125 c 0
 215.594726562 -3.736328125 185.501953125 7.6142578125 160.388671875 26.251953125 c 0
 135.278320312 44.888671875 122.323242188 76.23046875 121.524414062 120.279296875 c 2
 115.544921875 717.9921875 l 2
 115.544921875 736.2890625 110.762695312 753.5703125 101.196289062 769.834960938 c 0
 100.400390625 771.189453125 100 772.545898438 100 773.900390625 c 0
 100 777.966796875 104.384765625 780 113.154296875 780 c 0
 128.30078125 780 143.249023438 777.2890625 157.997070312 771.868164062 c 0
 172.74609375 766.446289062 180.120117188 760.0078125 180.120117188 752.553710938 c 2
 183.708007812 132.477539062 l 2
 183.708007812 101.981445312 190.484375 80.4658203125 204.036132812 67.9287109375 c 0
 217.587890625 55.3916015625 240.309570312 47.08984375 272.196289062 43.0244140625 c 0
 304.881835938 38.95703125 338.764648438 36.0771484375 373.840820312 34.3828125 c 0
 408.91796875 32.689453125 444.393554688 31.8427734375 480.268554688 31.8427734375 c 0
 524.115234375 31.8427734375 567.36328125 33.197265625 610.012695312 35.908203125 c 0
 652.665039062 38.619140625 693.521484375 42.345703125 732.584960938 47.08984375 c 0
 753.311523438 49.80078125 770.252929688 53.3583984375 783.40625 57.763671875 c 0
 796.560546875 62.16796875 807.323242188 70.640625 815.693359375 83.17578125 c 0
 824.064453125 95.7138671875 831.438476562 114.857421875 837.81640625 140.609375 c 0
 844.193359375 166.361328125 850.571289062 201.600585938 856.94921875 246.327148438 c 0
 858.543945312 260.55859375 861.732421875 271.231445312 866.514648438 278.34765625 c 0
 871.297851562 285.463867188 876.083007812 289.020507812 880.865234375 289.020507812 c 0
 885.6484375 289.020507812 890.033203125 285.6328125 894.01953125 278.85546875 c 0
 898.005859375 272.079101562 899.999023438 261.9140625 899.999023438 248.360351562 c 2
 899.999023438 243.27734375 l 2
EndSplineSet
EndChar

StartChar: uniE105
Encoding: 57605 57605 30
Width: 1000
VWidth: 0
Flags: W
LayerCount: 2
Fore
SplineSet
750.471679688 51.1748046875 m 2
 755.217773438 51.1748046875 758.383789062 53.18359375 759.965820312 57.205078125 c 0
 782.909179688 135.212890625 799.721679688 218.05078125 810.401367188 305.7109375 c 0
 821.08203125 393.37109375 828.795898438 480.62890625 833.543945312 567.486328125 c 1
 292.388671875 533.708984375 l 1
 274.19140625 509.58203125 259.36328125 492.573242188 246.560546875 477.735351562 c 0
 224.012695312 451.59765625 219.418945312 447.172851562 197.267578125 424.65625 c 0
 175.11328125 402.138671875 167.049804688 395.063476562 149.25 380.990234375 c 0
 131.447265625 366.916992188 118.591796875 359.87890625 110.6796875 359.87890625 c 0
 103.559570312 359.87890625 100 362.6953125 100 368.323242188 c 0
 100 374.7578125 105.537109375 383.603515625 116.614257812 394.86328125 c 0
 133.822265625 412.354492188 168.236328125 453.608398438 193.751953125 486.783203125 c 0
 214.534179688 513.8046875 242.940429688 555.22265625 269.840820312 598.248046875 c 0
 285 622.49609375 298.047851562 649.721679688 309.916015625 676.857421875 c 0
 325.293945312 712.0234375 333.650390625 739.38671875 333.650390625 759.4921875 c 2
 333.650390625 769.142578125 l 2
 333.650390625 776.379882812 336.418945312 780 341.95703125 780 c 0
 345.9140625 780 353.034179688 777.385742188 363.319335938 772.158203125 c 0
 373.603515625 766.930664062 383.295898438 760.294921875 392.393554688 752.252929688 c 0
 401.491210938 744.2109375 406.041992188 736.168945312 406.041992188 728.126953125 c 0
 406.041992188 726.518554688 401.690429688 716.666992188 392.987304688 698.571289062 c 0
 384.28515625 680.4765625 372.616210938 657.958984375 357.979492188 631.017578125 c 0
 343.342773438 604.07421875 342.775390625 604.159179688 331.55078125 587.994140625 c 1
 847.783203125 620.565429688 l 1
 852.53125 620.565429688 l 2
 865.981445312 620.565429688 877.254882812 616.946289062 886.352539062 609.708007812 c 0
 895.451171875 602.469726562 900 595.635742188 900 589.200195312 c 0
 900 584.375 898.813476562 578.946289062 896.440429688 572.915039062 c 0
 894.06640625 566.883789062 892.484375 559.4453125 891.693359375 550.59765625 c 0
 888.529296875 497.520507812 883.98046875 443.034179688 878.045898438 387.138671875 c 0
 872.112304688 331.245117188 865.190429688 276.958984375 857.278320312 224.282226562 c 0
 849.365234375 171.607421875 840.267578125 123.5546875 829.982421875 80.1259765625 c 0
 826.818359375 66.4541015625 823.456054688 51.7763671875 819.895507812 36.0947265625 c 0
 816.3359375 20.412109375 808.225585938 6.5390625 795.568359375 -5.5244140625 c 0
 786.073242188 -15.173828125 775.393554688 -20 763.525390625 -20 c 0
 754.822265625 -20 742.165039062 -16.380859375 725.548828125 -9.142578125 c 0
 708.935546875 -1.9052734375 691.33203125 7.546875 672.73828125 19.2060546875 c 0
 654.147460938 30.8671875 636.346679688 42.9306640625 619.334960938 55.396484375 c 0
 602.326171875 67.86328125 588.283203125 79.5234375 577.208007812 90.3798828125 c 0
 566.130859375 101.237304688 560.591796875 109.481445312 560.591796875 115.110351562 c 0
 560.591796875 121.544921875 564.548828125 124.760742188 572.459960938 124.760742188 c 0
 578.790039062 124.760742188 587.096679688 121.946289062 597.380859375 116.31640625 c 0
 648.806640625 87.3642578125 698.650390625 65.6494140625 746.911132812 51.1748046875 c 1
 750.471679688 51.1748046875 l 2
EndSplineSet
EndChar

StartChar: uniE10A
Encoding: 57610 57610 31
Width: 1000
VWidth: 0
Flags: W
LayerCount: 2
Fore
SplineSet
307.013671875 686.649414062 m 1
 306.368164062 643.15234375 304.755859375 594.470703125 302.17578125 540.602539062 c 0
 299.596679688 486.734375 295.08203125 435.041015625 288.633789062 385.520507812 c 0
 283.473632812 344.032226562 274.928710938 303.546875 262.999023438 264.06640625 c 0
 251.067382812 224.583984375 237.364257812 187.612304688 221.88671875 153.150390625 c 0
 206.408203125 118.6875 191.091796875 88.5751953125 175.936523438 62.810546875 c 0
 160.782226562 37.046875 146.916015625 16.8056640625 134.340820312 2.083984375 c 0
 121.764648438 -12.638671875 112.252929688 -20 105.803710938 -20 c 0
 101.934570312 -20 100 -17.3232421875 100 -11.9697265625 c 0
 100 -8.6240234375 100.805664062 -4.107421875 102.41796875 1.580078125 c 0
 104.030273438 7.2685546875 107.09375 13.7939453125 111.608398438 21.154296875 c 0
 152.237304688 91.41796875 182.708007812 162.350585938 203.022460938 233.952148438 c 0
 223.336914062 305.5546875 236.71875 377.490234375 243.16796875 449.76171875 c 0
 249.616210938 522.032226562 252.840820312 594.638671875 252.840820312 667.579101562 c 0
 252.840820312 693.674804688 250.583984375 718.770507812 246.0703125 742.860351562 c 0
 245.424804688 744.868164062 245.102539062 746.875976562 245.102539062 748.8828125 c 2
 245.102539062 753.90234375 l 2
 245.102539062 759.255859375 247.360351562 761.932617188 251.874023438 761.932617188 c 0
 255.743164062 761.932617188 262.353515625 759.924804688 271.705078125 755.91015625 c 0
 281.055664062 751.893554688 293.791992188 745.202148438 309.915039062 735.833984375 c 1
 793.591796875 767.955078125 l 2
 805.19921875 769.29296875 814.873046875 770.631835938 822.611328125 771.969726562 c 0
 830.350585938 773.30859375 838.411132812 775.315429688 846.794921875 777.9921875 c 0
 850.665039062 779.331054688 853.889648438 780 856.46875 780 c 0
 859.048828125 780 863.884765625 778.326171875 870.979492188 774.98046875 c 0
 878.073242188 771.634765625 884.68359375 766.950195312 890.809570312 760.927734375 c 0
 896.936523438 754.905273438 900 748.213867188 900 740.853515625 c 0
 900 730.815429688 895.163085938 725.126953125 885.489257812 723.7890625 c 2
 307.013671875 686.649414062 l 1
EndSplineSet
EndChar

StartChar: uniE11D
Encoding: 57629 57629 32
Width: 1000
VWidth: 0
Flags: W
LayerCount: 2
Fore
SplineSet
678.819335938 595.903320312 m 1
 317.615234375 572.770507812 l 1
 325.642578125 462.890625 l 1
 669.901367188 484.095703125 l 1
 678.819335938 595.903320312 l 1
689.522460938 737.58984375 m 1
 306.020507812 710.6015625 l 1
 314.047851562 611.325195312 l 1
 681.49609375 636.385742188 l 1
 689.522460938 737.58984375 l 1
520.959960938 266.264648438 m 1
 521.8515625 -4.5791015625 l 2
 521.8515625 -8.4345703125 520.663085938 -11.96875 518.284179688 -15.181640625 c 0
 515.90625 -18.3935546875 512.338867188 -20 507.58203125 -20 c 0
 504.609375 -20 500.150390625 -18.3935546875 494.204101562 -15.181640625 c 0
 485.28515625 -8.7568359375 479.190429688 -3.6142578125 475.920898438 0.240234375 c 0
 472.650390625 4.0966796875 471.015625 8.2724609375 471.015625 12.76953125 c 0
 471.015625 14.0556640625 471.1640625 15.1796875 471.4609375 16.1435546875 c 0
 471.758789062 17.107421875 471.907226562 17.9111328125 471.907226562 18.5537109375 c 0
 473.096679688 28.1923828125 473.989257812 39.27734375 474.583007812 51.8076171875 c 0
 475.177734375 64.3369140625 475.474609375 73.494140625 475.474609375 79.275390625 c 2
 476.3671875 264.336914062 l 1
 162.4296875 249.877929688 l 1
 149.051757812 249.877929688 l 2
 140.728515625 249.877929688 131.958007812 251.646484375 122.7421875 255.1796875 c 0
 113.526367188 258.713867188 106.243164062 269.4765625 100.891601562 287.469726562 c 0
 100.296875 288.75390625 100 290.361328125 100 292.2890625 c 0
 100 294.859375 101.486328125 296.143554688 104.459960938 296.143554688 c 2
 108.026367188 296.143554688 l 2
 113.97265625 294.216796875 120.215820312 292.931640625 126.755859375 292.2890625 c 0
 133.295898438 291.645507812 139.5390625 291.325195312 145.485351562 291.325195312 c 2
 155.295898438 291.325195312 l 1
 476.366210938 307.709960938 l 1
 476.366210938 429.157226562 l 1
 329.208007812 421.4453125 l 1
 331.883789062 393.493164062 l 1
 331.883789062 390.603515625 l 2
 331.883789062 382.892578125 328.614257812 379.03515625 322.07421875 379.03515625 c 0
 319.6953125 379.03515625 315.533203125 379.83984375 309.587890625 381.4453125 c 0
 303.641601562 383.051757812 298.142578125 386.103515625 293.088867188 390.603515625 c 0
 288.034179688 395.1015625 285.506835938 400.8828125 285.506835938 407.952148438 c 2
 285.506835938 421.4453125 l 1
 285.506835938 435.421875 l 2
 285.506835938 440.239257812 285.209960938 445.541015625 284.615234375 451.325195312 c 2
 265.88671875 704.819335938 l 2
 264.697265625 721.526367188 260.53515625 736.948242188 253.400390625 751.0859375 c 0
 250.427734375 756.225585938 248.94140625 760.401367188 248.94140625 763.615234375 c 0
 248.94140625 766.829101562 251.616210938 768.434570312 256.967773438 768.434570312 c 0
 265.291992188 768.434570312 282.534179688 762.97265625 308.6953125 752.047851562 c 1
 703.791015625 780 l 1
 709.141601562 780 l 2
 715.682617188 780 722.817382812 777.4296875 730.546875 772.290039062 c 0
 737.681640625 766.506835938 741.249023438 760.081054688 741.249023438 753.01171875 c 0
 741.249023438 748.513671875 740.357421875 744.498046875 738.573242188 740.96484375 c 0
 736.790039062 737.430664062 735.600585938 734.37890625 735.005859375 731.807617188 c 2
 711.817382812 486.989257812 l 1
 727.276367188 472.208007812 735.005859375 461.28515625 735.005859375 454.217773438 c 0
 735.005859375 447.791992188 728.465820312 443.936523438 715.385742188 442.650390625 c 2
 520.958007812 432.047851562 l 1
 520.958007812 308.674804688 l 1
 802.787109375 323.131835938 l 2
 812.89453125 323.776367188 821.665039062 324.740234375 829.096679688 326.024414062 c 0
 836.529296875 327.309570312 844.407226562 329.237304688 852.731445312 331.807617188 c 0
 856.298828125 333.09375 858.974609375 333.735351562 860.7578125 333.735351562 c 0
 865.514648438 333.735351562 871.014648438 331.485351562 877.2578125 326.98828125 c 0
 883.5 322.490234375 888.8515625 317.188476562 893.311523438 311.084960938 c 0
 897.770507812 304.979492188 900 300 900 296.14453125 c 0
 900 289.71875 896.134765625 285.864257812 888.405273438 284.579101562 c 2
 520.959960938 266.264648438 l 1
EndSplineSet
EndChar

StartChar: uniE164
Encoding: 57700 57700 33
Width: 1000
VWidth: 0
Flags: W
LayerCount: 2
Fore
SplineSet
436.577148438 126.541992188 m 2
 433.451171875 125.791015625 430.63671875 125.228515625 428.135742188 124.853515625 c 0
 425.634765625 124.478515625 423.447265625 124.291015625 421.571289062 124.291015625 c 0
 416.569335938 124.291015625 412.426757812 128.60546875 409.14453125 137.233398438 c 0
 405.861328125 145.861328125 403.517578125 154.865234375 402.110351562 164.244140625 c 0
 400.703125 173.623046875 400 179.8125 400 182.813476562 c 0
 400 186.565429688 400.78125 188.440429688 402.344726562 188.440429688 c 0
 403.283203125 188.440429688 404.064453125 188.065429688 404.689453125 187.315429688 c 0
 407.502929688 185.064453125 410.708007812 183.564453125 414.302734375 182.813476562 c 0
 417.897460938 182.063476562 421.258789062 181.688476562 424.384765625 181.688476562 c 2
 430.01171875 181.688476562 l 1
 754.044921875 225.580078125 l 2
 759.359375 226.331054688 763.500976562 227.268554688 766.471679688 228.393554688 c 0
 769.44140625 229.51953125 772.645507812 231.583007812 776.083984375 234.583984375 c 0
 776.709960938 235.333984375 777.491210938 235.708984375 778.4296875 235.708984375 c 0
 779.6796875 235.708984375 782.024414062 233.646484375 785.462890625 229.51953125 c 0
 788.90234375 225.392578125 792.184570312 219.765625 795.310546875 212.637695312 c 0
 798.4375 205.509765625 800 197.444335938 800 188.440429688 c 0
 800 179.4375 797.811523438 174.185546875 793.434570312 172.684570312 c 2
 436.577148438 126.541992188 l 2
EndSplineSet
EndChar

StartChar: uniE165
Encoding: 57701 57701 34
Width: 1000
VWidth: 0
Flags: W
LayerCount: 2
Fore
SplineSet
436.364257812 -19.25390625 m 2
 434.16015625 -19.25390625 432.11328125 -19.3779296875 430.224609375 -19.626953125 c 0
 428.334960938 -19.875 426.603515625 -20 425.029296875 -20 c 0
 417.788085938 -20 412.908203125 -17.5126953125 410.389648438 -12.537109375 c 0
 408.185546875 -8.5576171875 406.217773438 -3.955078125 404.486328125 1.2685546875 c 0
 402.754882812 6.4931640625 401.416992188 11.34375 400.471679688 15.8212890625 c 0
 400.157226562 16.8154296875 400 18.30859375 400 20.2978515625 c 0
 400 23.2841796875 400.944335938 24.775390625 402.833007812 24.775390625 c 0
 403.462890625 24.775390625 404.092773438 24.52734375 404.72265625 24.029296875 c 0
 408.500976562 22.537109375 412.357421875 21.29296875 416.29296875 20.2978515625 c 0
 420.228515625 19.3037109375 423.927734375 18.8056640625 427.390625 18.8056640625 c 2
 430.224609375 18.8056640625 l 1
 754.19140625 40.4482421875 l 2
 762.376953125 40.9453125 769.618164062 42.6865234375 775.915039062 45.671875 c 0
 776.544921875 45.671875 777.095703125 45.796875 777.567382812 46.044921875 c 0
 778.040039062 46.2939453125 778.43359375 46.41796875 778.748046875 46.41796875 c 0
 783.15625 46.41796875 787.799804688 42.6865234375 792.6796875 35.224609375 c 0
 797.559570312 27.76171875 800 21.044921875 800 15.07421875 c 0
 800 8.6064453125 797.638671875 4.875 792.916015625 3.880859375 c 2
 436.364257812 -19.25390625 l 2
490.672851562 321.044921875 m 2
 488.46875 321.044921875 486.422851562 320.919921875 484.534179688 320.671875 c 0
 482.64453125 320.423828125 480.913085938 320.298828125 479.338867188 320.298828125 c 0
 471.153320312 320.298828125 465.643554688 323.657226562 462.809570312 330.374023438 c 0
 459.9765625 337.08984375 457.772460938 344.92578125 456.198242188 353.881835938 c 0
 455.883789062 354.875976562 455.7265625 356.120117188 455.7265625 357.612304688 c 0
 455.7265625 359.602539062 456.513671875 360.596679688 458.087890625 360.596679688 c 0
 458.40234375 360.596679688 458.717773438 360.473632812 459.032226562 360.223632812 c 0
 459.346679688 359.975585938 459.662109375 359.8515625 459.9765625 359.8515625 c 0
 465.014648438 357.861328125 470.99609375 356.866210938 477.921875 356.866210938 c 2
 484.061523438 356.866210938 l 1
 678.158203125 373.284179688 l 2
 682.880859375 373.782226562 687.209960938 374.403320312 691.145507812 375.149414062 c 0
 695.081054688 375.896484375 699.094726562 377.264648438 703.1875 379.25390625 c 0
 703.817382812 379.751953125 705.076171875 380 706.965820312 380 c 0
 710.114257812 380 714.364257812 377.264648438 719.716796875 371.791992188 c 0
 725.068359375 366.318359375 727.745117188 359.10546875 727.745117188 350.149414062 c 0
 727.745117188 343.682617188 725.698242188 339.950195312 721.60546875 338.956054688 c 2
 490.672851562 321.044921875 l 2
EndSplineSet
EndChar

StartChar: uniE166
Encoding: 57702 57702 35
Width: 1000
VWidth: 0
Flags: W
LayerCount: 2
Fore
SplineSet
431.455078125 -20 m 1
 423.943359375 -20 l 2
 416.745117188 -20 411.971679688 -18.3544921875 409.624023438 -15.0615234375 c 0
 407.27734375 -11.76953125 404.225585938 -3.5390625 400.469726562 9.62890625 c 0
 400.15625 10.453125 400 11.4814453125 400 12.7158203125 c 0
 400 14.3623046875 400.782226562 15.1845703125 402.34765625 15.1845703125 c 0
 402.66015625 15.1845703125 403.051757812 15.08203125 403.520507812 14.876953125 c 0
 403.990234375 14.6708984375 404.381835938 14.568359375 404.694335938 14.568359375 c 0
 408.137695312 14.15625 411.345703125 13.6416015625 414.319335938 13.0244140625 c 0
 417.291992188 12.4072265625 420.34375 12.0986328125 423.473632812 12.0986328125 c 2
 427.69921875 12.0986328125 l 1
 752.58203125 27.53125 l 2
 756.963867188 27.9423828125 760.875976562 28.4560546875 764.319335938 29.07421875 c 0
 767.76171875 29.69140625 771.831054688 30.6171875 776.525390625 31.8515625 c 2
 778.403320312 31.8515625 l 2
 781.533203125 31.8515625 785.915039062 29.5888671875 791.548828125 25.0615234375 c 0
 797.182617188 20.53515625 800 14.3623046875 800 6.54296875 c 0
 800 0.3701171875 798.122070312 -2.7158203125 794.366210938 -2.7158203125 c 2
 431.455078125 -20 l 1
515.961914062 166.419921875 m 2
 514.397460938 166.419921875 512.91015625 166.31640625 511.501953125 166.111328125 c 0
 510.09375 165.905273438 508.763671875 165.801757812 507.51171875 165.801757812 c 0
 503.129882812 165.801757812 499.217773438 167.55078125 495.774414062 171.049804688 c 0
 492.331054688 174.546875 489.044921875 182.674804688 485.915039062 195.431640625 c 0
 485.602539062 196.254882812 485.446289062 197.284179688 485.446289062 198.518554688 c 0
 485.446289062 199.752929688 486.228515625 200.370117188 487.793945312 200.370117188 c 2
 489.201171875 200.370117188 l 2
 492.331054688 199.546875 495.3046875 198.827148438 498.122070312 198.209960938 c 0
 500.939453125 197.592773438 504.069335938 197.284179688 507.51171875 197.284179688 c 2
 510.797851562 197.284179688 l 1
 678.874023438 210.247070312 l 2
 682.31640625 210.658203125 685.446289062 211.0703125 688.263671875 211.481445312 c 0
 691.080078125 211.892578125 693.740234375 212.715820312 696.244140625 213.950195312 c 0
 696.870117188 214.362304688 697.965820312 214.568359375 699.53125 214.568359375 c 0
 700.783203125 214.568359375 702.973632812 213.641601562 706.103515625 211.790039062 c 0
 709.233398438 209.938476562 712.20703125 207.366210938 715.0234375 204.07421875 c 0
 717.840820312 200.78125 719.249023438 196.872070312 719.249023438 192.345703125 c 0
 719.249023438 185.76171875 716.275390625 182.057617188 710.329101562 181.234375 c 2
 515.961914062 166.419921875 l 2
489.670898438 329.3828125 m 2
 487.16796875 328.971679688 484.8203125 328.765625 482.62890625 328.765625 c 2
 476.995117188 328.765625 l 1
 474.647460938 328.765625 l 2
 469.639648438 328.765625 465.805664062 331.131835938 463.145507812 335.864257812 c 0
 460.485351562 340.596679688 458.059570312 346.872070312 455.868164062 354.69140625 c 0
 455.555664062 355.513671875 455.399414062 356.54296875 455.399414062 357.77734375 c 0
 455.399414062 359.423828125 456.181640625 360.247070312 457.74609375 360.247070312 c 0
 458.059570312 360.247070312 458.372070312 360.143554688 458.685546875 359.938476562 c 0
 458.998046875 359.732421875 459.311523438 359.62890625 459.624023438 359.62890625 c 0
 464.319335938 357.983398438 469.483398438 357.16015625 475.1171875 357.16015625 c 0
 476.369140625 357.16015625 477.69921875 357.263671875 479.108398438 357.46875 c 0
 480.516601562 357.674804688 481.846679688 357.77734375 483.098632812 357.77734375 c 2
 696.713867188 374.444335938 l 2
 701.095703125 374.856445312 704.850585938 375.576171875 707.98046875 376.604492188 c 0
 711.110351562 377.633789062 714.397460938 378.559570312 717.83984375 379.3828125 c 0
 718.466796875 379.3828125 719.013671875 379.485351562 719.483398438 379.69140625 c 0
 719.953125 379.897460938 720.500976562 380 721.126953125 380 c 0
 725.1953125 380 730.203125 376.9140625 736.150390625 370.741210938 c 0
 739.90625 365.801757812 741.784179688 361.0703125 741.784179688 356.54296875 c 0
 741.784179688 351.193359375 739.749023438 348.107421875 735.680664062 347.284179688 c 2
 489.670898438 329.3828125 l 2
EndSplineSet
EndChar

StartChar: uniE167
Encoding: 57703 57703 36
Width: 1000
VWidth: 0
Flags: W
LayerCount: 2
Fore
SplineSet
768.911132812 352.333984375 m 1
 646.631835938 344.841796875 l 1
 645.595703125 242.82421875 l 1
 645.595703125 235.907226562 l 2
 645.595703125 222.458984375 647.150390625 213.622070312 650.258789062 209.39453125 c 0
 653.3671875 205.16796875 661.657226562 203.0546875 675.12890625 203.0546875 c 0
 686.182617188 203.0546875 694.818359375 203.342773438 701.036132812 203.918945312 c 0
 707.25390625 204.49609375 712.434570312 205.551757812 716.580078125 207.088867188 c 0
 720.724609375 208.625976562 725.215820312 210.35546875 730.051757812 212.276367188 c 0
 730.7421875 212.661132812 731.778320312 212.853515625 733.16015625 212.853515625 c 0
 736.959960938 212.853515625 741.623046875 210.451171875 747.150390625 205.6484375 c 0
 752.676757812 200.845703125 755.440429688 196.138671875 755.440429688 191.52734375 c 0
 755.440429688 186.532226562 752.158203125 183.458007812 745.595703125 182.305664062 c 0
 734.887695312 180 723.40234375 178.174804688 711.139648438 176.830078125 c 0
 698.876953125 175.485351562 687.21875 174.8125 676.166015625 174.8125 c 0
 657.166992188 174.8125 643.004882812 178.174804688 633.678710938 184.899414062 c 0
 624.352539062 191.624023438 619.689453125 206.12890625 619.689453125 228.415039062 c 2
 619.689453125 230.720703125 l 1
 620.724609375 343.688476562 l 1
 560.622070312 339.653320312 l 1
 559.584960938 301.61328125 556.044921875 269.625 550 243.6875 c 0
 543.955078125 217.751953125 534.71484375 195.2734375 522.279296875 176.252929688 c 0
 509.844726562 157.233398438 493.609375 138.884765625 473.57421875 121.209960938 c 0
 467.702148438 115.830078125 462.866210938 113.140625 459.067382812 113.140625 c 0
 456.303710938 113.140625 454.921875 114.676757812 454.921875 117.751953125 c 0
 454.921875 121.978515625 457.51171875 126.973632812 462.693359375 132.737304688 c 0
 478.583007812 150.413085938 491.795898438 168.375976562 502.331054688 186.627929688 c 0
 512.866210938 204.879882812 520.811523438 226.013671875 526.165039062 250.029296875 c 0
 531.51953125 274.043945312 534.196289062 303.534179688 534.196289062 338.501953125 c 1
 433.16015625 332.161132812 l 1
 446.11328125 59.5380859375 l 1
 751.294921875 71.6416015625 l 1
 768.911132812 352.333984375 l 1
447.150390625 33.6015625 m 1
 449.22265625 -8.47265625 l 1
 449.22265625 -10.2021484375 l 2
 449.22265625 -12.8916015625 448.618164062 -15.197265625 447.409179688 -17.1181640625 c 0
 446.200195312 -19.0390625 444.213867188 -20 441.450195312 -20 c 0
 437.651367188 -20 433.07421875 -18.1748046875 427.719726562 -14.525390625 c 0
 422.366210938 -10.875 419.689453125 -6.359375 419.689453125 -0.9794921875 c 2
 419.689453125 3.6318359375 l 2
 419.689453125 5.16796875 419.861328125 6.896484375 420.20703125 8.818359375 c 0
 420.552734375 13.0458984375 420.811523438 17.3681640625 420.984375 21.787109375 c 0
 421.157226562 26.205078125 421.243164062 30.9130859375 421.243164062 35.908203125 c 2
 421.243164062 47.435546875 l 1
 408.290039062 314.870117188 l 2
 407.944335938 324.092773438 407.166992188 332.353515625 405.958007812 339.654296875 c 0
 404.749023438 346.955078125 403.28125 354.255859375 401.5546875 361.555664062 c 0
 401.208984375 363.477539062 400.86328125 365.111328125 400.517578125 366.455078125 c 0
 400.172851562 367.80078125 400 369.048828125 400 370.202148438 c 0
 400 372.891601562 401.208984375 374.236328125 403.626953125 374.236328125 c 0
 406.044921875 374.236328125 409.7578125 373.083984375 414.766601562 370.778320312 c 0
 419.775390625 368.473632812 426.59765625 364.438476562 435.233398438 358.674804688 c 1
 775.12890625 380 l 1
 778.755859375 380 l 2
 784.62890625 380 789.63671875 377.598632812 793.782226562 372.795898438 c 0
 797.926757812 367.9921875 800 363.861328125 800 360.403320312 c 0
 800 358.482421875 799.567382812 356.657226562 798.704101562 354.927734375 c 0
 797.840820312 353.198242188 797.236328125 351.565429688 796.890625 350.029296875 c 2
 778.755859375 74.525390625 l 1
 788.7734375 64.5341796875 793.782226562 57.041015625 793.782226562 52.0458984375 c 0
 793.782226562 47.8193359375 789.46484375 45.322265625 780.829101562 44.5537109375 c 2
 447.150390625 33.6015625 l 1
EndSplineSet
EndChar

StartChar: uniE168
Encoding: 57704 57704 37
Width: 1000
VWidth: 0
Flags: W
LayerCount: 2
Fore
SplineSet
688.215820312 193.18359375 m 1
 581.818359375 186.451171875 l 1
 555.780273438 11.9775390625 l 1
 675.645507812 17.0263671875 l 1
 688.215820312 193.18359375 l 1
434.567382812 -20 m 1
 428.283203125 -20 l 2
 420.80078125 -20 415.114257812 -18.69140625 411.223632812 -16.072265625 c 0
 407.333007812 -13.455078125 403.741210938 -6.349609375 400.44921875 5.2451171875 c 0
 400.149414062 5.994140625 400 7.115234375 400 8.611328125 c 0
 400 10.4814453125 400.8984375 11.416015625 402.693359375 11.416015625 c 0
 402.993164062 11.416015625 403.291992188 11.322265625 403.591796875 11.13671875 c 0
 403.890625 10.94921875 404.190429688 10.85546875 404.489257812 10.85546875 c 0
 408.379882812 9.7333984375 411.971679688 8.798828125 415.263671875 8.0498046875 c 0
 418.555664062 7.302734375 421.998046875 6.9287109375 425.588867188 6.9287109375 c 2
 428.731445312 6.9287109375 l 1
 532.435546875 11.416015625 l 1
 558.024414062 185.330078125 l 1
 497.418945312 181.40234375 l 2
 495.323242188 181.40234375 493.453125 181.309570312 491.806640625 181.122070312 c 0
 490.161132812 180.935546875 488.58984375 180.842773438 487.092773438 180.842773438 c 0
 481.107421875 180.842773438 476.916992188 182.151367188 474.5234375 184.768554688 c 0
 471.530273438 187.760742188 469.135742188 191.782226562 467.33984375 196.831054688 c 0
 465.543945312 201.87890625 464.646484375 204.965820312 464.646484375 206.087890625 c 0
 464.646484375 208.331054688 465.694335938 209.454101562 467.7890625 209.454101562 c 2
 469.135742188 209.454101562 l 2
 472.12890625 208.331054688 474.971679688 207.583007812 477.666015625 207.208984375 c 0
 480.359375 206.834960938 482.903320312 206.647460938 485.297851562 206.647460938 c 0
 486.793945312 206.647460938 488.365234375 206.741210938 490.01171875 206.928710938 c 0
 491.657226562 207.115234375 493.228515625 207.208984375 494.724609375 207.208984375 c 2
 561.616210938 211.13671875 l 1
 580.471679688 340.168945312 l 1
 481.706054688 332.875976562 l 2
 479.91015625 332.501953125 478.263671875 332.314453125 476.767578125 332.314453125 c 2
 472.278320312 332.314453125 l 2
 465.694335938 332.314453125 460.830078125 333.716796875 457.6875 336.521484375 c 0
 454.545898438 339.327148438 451.627929688 345.591796875 448.93359375 355.31640625 c 0
 448.634765625 356.063476562 448.485351562 356.999023438 448.485351562 358.12109375 c 0
 448.485351562 359.6171875 449.233398438 360.365234375 450.729492188 360.365234375 c 0
 451.029296875 360.365234375 451.328125 360.271484375 451.627929688 360.084960938 c 0
 451.926757812 359.897460938 452.2265625 359.803710938 452.525390625 359.803710938 c 0
 457.314453125 358.307617188 462.251953125 357.559570312 467.33984375 357.559570312 c 0
 468.836914062 357.559570312 470.258789062 357.653320312 471.60546875 357.83984375 c 0
 472.952148438 358.02734375 474.223632812 358.12109375 475.421875 358.12109375 c 2
 702.58203125 374.951171875 l 2
 706.772460938 375.325195312 710.438476562 375.88671875 713.581054688 376.633789062 c 0
 716.723632812 377.3828125 719.940429688 378.317382812 723.232421875 379.439453125 c 0
 723.831054688 379.439453125 724.280273438 379.533203125 724.580078125 379.719726562 c 0
 724.87890625 379.90625 725.328125 380 725.926757812 380 c 0
 728.021484375 380 730.71484375 379.065429688 734.006835938 377.1953125 c 0
 737.299804688 375.325195312 740.291992188 372.89453125 742.985351562 369.90234375 c 0
 745.6796875 366.909179688 747.026367188 363.357421875 747.026367188 359.243164062 c 0
 747.026367188 354.754882812 744.78125 352.13671875 740.291992188 351.388671875 c 2
 605.163085938 341.8515625 l 1
 585.859375 212.819335938 l 1
 694.94921875 219.55078125 l 1
 697.194335938 219.55078125 l 2
 702.282226562 219.55078125 706.622070312 217.9609375 710.212890625 214.782226562 c 0
 713.8046875 211.602539062 715.600585938 207.770507812 715.600585938 203.282226562 c 0
 715.600585938 201.038085938 715.2265625 198.98046875 714.478515625 197.110351562 c 0
 713.73046875 195.241210938 713.206054688 193.557617188 712.907226562 192.061523438 c 2
 698.541015625 18.1484375 l 1
 756.453125 20.392578125 l 2
 760.643554688 20.767578125 764.235351562 21.140625 767.227539062 21.5146484375 c 0
 770.220703125 21.888671875 773.512695312 22.8232421875 777.104492188 24.3193359375 c 0
 777.703125 24.693359375 778.600585938 24.880859375 779.797851562 24.880859375 c 0
 783.090820312 24.880859375 787.280273438 22.3564453125 792.368164062 17.3076171875 c 0
 797.456054688 12.2578125 800 7.115234375 800 1.87890625 c 0
 800 -2.234375 797.755859375 -4.666015625 793.266601562 -5.4140625 c 2
 434.567382812 -20 l 1
EndSplineSet
EndChar

StartChar: uniE169
Encoding: 57705 57705 38
Width: 1000
VWidth: 0
Flags: W
LayerCount: 2
Fore
SplineSet
784.389648438 8.681640625 m 0
 784.389648438 4.2421875 782.114257812 0.4013671875 777.560546875 -2.8427734375 c 0
 773.0078125 -6.0859375 769.430664062 -7.7080078125 766.829101562 -7.7080078125 c 0
 763.251953125 -7.7080078125 760.487304688 -6.1708984375 758.536132812 -3.0986328125 c 0
 741.30078125 23.1923828125 722.926757812 48.4599609375 703.4140625 72.7021484375 c 0
 683.90234375 96.9443359375 663.251953125 119.650390625 641.462890625 140.8203125 c 0
 639.51171875 142.868164062 638.536132812 144.916992188 638.536132812 146.965820312 c 0
 638.536132812 149.697265625 639.91796875 152.94140625 642.682617188 156.696289062 c 0
 645.446289062 160.453125 648.454101562 162.331054688 651.70703125 162.331054688 c 0
 653.0078125 162.331054688 654.633789062 161.647460938 656.584960938 160.282226562 c 0
 678.047851562 138.770507812 699.186523438 116.235351562 720 92.6767578125 c 0
 740.8125 69.1171875 761.30078125 43.6796875 781.462890625 16.3642578125 c 0
 783.4140625 13.974609375 784.389648438 11.4130859375 784.389648438 8.681640625 c 0
412.194335938 -20 m 0
 408.29296875 -20 406.340820312 -18.462890625 406.340820312 -15.390625 c 0
 406.340820312 -12.3173828125 408.780273438 -8.220703125 413.658203125 -3.0986328125 c 0
 436.748046875 19.095703125 457.560546875 42.2275390625 476.09765625 66.2998046875 c 0
 494.634765625 90.3720703125 510.568359375 116.40625 523.90234375 144.404296875 c 0
 524.877929688 146.453125 525.772460938 149.184570312 526.584960938 152.599609375 c 0
 527.3984375 156.013671875 528.129882812 159.2578125 528.780273438 162.330078125 c 0
 529.10546875 164.037109375 530.081054688 164.891601562 531.70703125 164.891601562 c 0
 533.0078125 164.891601562 535.447265625 163.610351562 539.024414062 161.049804688 c 0
 542.6015625 158.489257812 546.015625 155.245117188 549.267578125 151.318359375 c 0
 552.520507812 147.392578125 554.146484375 143.208984375 554.146484375 138.770507812 c 0
 554.146484375 137.404296875 553.8203125 136.0390625 553.170898438 134.673828125 c 0
 537.885742188 108.041015625 522.520507812 85.0791015625 507.073242188 65.787109375 c 0
 491.625976562 46.4951171875 477.235351562 30.4482421875 463.90234375 17.6435546875 c 0
 450.568359375 4.83984375 439.267578125 -4.634765625 430 -10.78125 c 0
 420.731445312 -16.9267578125 414.796875 -20 412.194335938 -20 c 0
436.584960938 218.66796875 m 2
 434.30859375 218.327148438 432.194335938 218.15625 430.244140625 218.15625 c 2
 424.877929688 218.15625 l 2
 417.073242188 218.15625 411.30078125 220.97265625 407.560546875 226.606445312 c 0
 403.8203125 232.240234375 401.462890625 236.764648438 400.487304688 240.178710938 c 0
 400.162109375 240.862304688 400 241.715820312 400 242.740234375 c 0
 400 244.447265625 400.8125 245.30078125 402.438476562 245.30078125 c 0
 403.088867188 245.30078125 403.577148438 245.21484375 403.90234375 245.043945312 c 0
 404.227539062 244.874023438 404.552734375 244.788085938 404.877929688 244.788085938 c 0
 408.129882812 244.10546875 411.544921875 243.59375 415.122070312 243.251953125 c 0
 418.69921875 242.91015625 422.114257812 242.740234375 425.366210938 242.740234375 c 2
 431.219726562 242.740234375 l 1
 584.877929688 251.958984375 l 1
 583.90234375 348.24609375 l 2
 583.90234375 357.46484375 581.951171875 366.341796875 578.048828125 374.87890625 c 0
 577.723632812 375.561523438 577.560546875 376.244140625 577.560546875 376.926757812 c 0
 577.560546875 378.975585938 579.349609375 380 582.926757812 380 c 0
 583.577148438 380 586.178710938 379.658203125 590.731445312 378.975585938 c 0
 595.284179688 378.29296875 599.674804688 377.012695312 603.90234375 375.134765625 c 0
 608.129882812 373.255859375 610.244140625 370.098632812 610.244140625 365.659179688 c 2
 610.244140625 252.983398438 l 1
 745.853515625 261.177734375 l 2
 751.056640625 261.51953125 755.853515625 262.03125 760.244140625 262.713867188 c 0
 764.633789062 263.396484375 769.10546875 264.420898438 773.658203125 265.787109375 c 0
 774.30859375 266.12890625 774.958984375 266.384765625 775.609375 266.555664062 c 0
 776.259765625 266.7265625 777.073242188 266.811523438 778.048828125 266.811523438 c 0
 779.674804688 266.811523438 782.276367188 265.787109375 785.853515625 263.73828125 c 0
 789.430664062 261.689453125 792.682617188 259.12890625 795.609375 256.055664062 c 0
 798.536132812 252.983398438 800 249.739257812 800 246.325195312 c 0
 800 242.227539062 797.885742188 239.837890625 793.658203125 239.154296875 c 2
 436.584960938 218.66796875 l 2
EndSplineSet
EndChar

StartChar: uniE16A
Encoding: 57706 57706 39
Width: 1000
VWidth: 0
Flags: W
LayerCount: 2
Fore
SplineSet
578.240234375 171.416992188 m 1
 577.77734375 60.1044921875 l 2
 577.77734375 44.8466796875 579.552734375 33.3154296875 583.1015625 25.513671875 c 0
 586.651367188 17.7119140625 593.75 12.509765625 604.397460938 9.9091796875 c 0
 615.045898438 7.30859375 631.172851562 6.0078125 652.77734375 6.0078125 c 0
 668.826171875 6.0078125 684.413085938 6.875 699.537109375 8.6083984375 c 0
 714.66015625 10.341796875 728.0859375 12.509765625 739.814453125 15.1103515625 c 0
 751.54296875 17.7119140625 760.030273438 20.3994140625 765.27734375 23.1728515625 c 0
 767.12890625 24.2138671875 768.981445312 24.7333984375 770.833007812 24.7333984375 c 0
 776.080078125 24.7333984375 780.864257812 22.0458984375 785.185546875 16.6708984375 c 0
 789.505859375 11.2958984375 791.666992188 6.875 791.666992188 3.4072265625 c 0
 791.666992188 -1.447265625 788.580078125 -4.3955078125 782.407226562 -5.435546875 c 0
 757.407226562 -9.943359375 733.950195312 -13.498046875 712.036132812 -16.0986328125 c 0
 690.123046875 -18.7001953125 669.59765625 -20 650.462890625 -20 c 0
 627.623046875 -20 609.02734375 -18.3525390625 594.674804688 -15.0576171875 c 0
 580.323242188 -11.763671875 569.752929688 -4.828125 562.961914062 5.748046875 c 0
 556.171875 16.3251953125 552.77734375 32.189453125 552.77734375 53.3427734375 c 2
 552.77734375 55.4228515625 l 1
 553.240234375 166.735351562 l 1
 438.888671875 145.41015625 l 2
 434.567382812 144.715820312 431.095703125 144.109375 428.471679688 143.588867188 c 0
 425.848632812 143.069335938 423.45703125 142.80859375 421.295898438 142.80859375 c 0
 418.518554688 142.80859375 415.89453125 143.502929688 413.42578125 144.889648438 c 0
 410.95703125 146.623046875 408.564453125 148.963867188 406.25 151.911132812 c 0
 403.935546875 154.859375 402.005859375 157.720703125 400.462890625 160.494140625 c 0
 400.154296875 161.1875 400 162.0546875 400 163.094726562 c 0
 400 165.869140625 401.388671875 167.255859375 404.166992188 167.255859375 c 0
 405.709960938 166.909179688 407.021484375 166.735351562 408.1015625 166.735351562 c 2
 411.57421875 166.735351562 l 2
 414.96875 166.735351562 418.1328125 166.99609375 421.064453125 167.516601562 c 0
 423.99609375 168.037109375 426.8515625 168.470703125 429.62890625 168.81640625 c 2
 553.703125 191.703125 l 1
 554.62890625 352.952148438 l 2
 554.62890625 356.765625 554.3203125 360.3203125 553.703125 363.615234375 c 0
 553.0859375 366.909179688 551.696289062 370.291015625 549.536132812 373.7578125 c 0
 548.918945312 375.14453125 548.610351562 376.01171875 548.610351562 376.359375 c 0
 548.610351562 378.786132812 550.307617188 380 553.703125 380 c 0
 556.48046875 380 560.647460938 378.959960938 566.203125 376.87890625 c 0
 575.153320312 373.064453125 579.62890625 369.076171875 579.62890625 364.915039062 c 2
 578.703125 196.384765625 l 1
 746.295898438 227.073242188 l 2
 750.6171875 227.767578125 754.70703125 228.895507812 758.564453125 230.455078125 c 0
 762.422851562 232.015625 766.357421875 233.8359375 770.370117188 235.916992188 c 0
 771.295898438 236.610351562 772.375976562 237.130859375 773.610351562 237.4765625 c 0
 774.845703125 237.82421875 776.080078125 237.997070312 777.314453125 237.997070312 c 0
 779.166992188 237.997070312 781.8671875 237.130859375 785.416992188 235.396484375 c 0
 788.965820312 233.662109375 792.284179688 231.321289062 795.370117188 228.375 c 0
 798.45703125 225.426757812 800 222.045898438 800 218.231445312 c 0
 800 214.0703125 797.838867188 211.642578125 793.518554688 210.94921875 c 2
 578.240234375 171.416992188 l 1
EndSplineSet
EndChar

StartChar: uniE1C8
Encoding: 57800 57800 40
Width: 1000
VWidth: 0
Flags: W
LayerCount: 2
Fore
SplineSet
336.577148438 426.541992188 m 2
 333.451171875 425.791015625 330.63671875 425.228515625 328.135742188 424.853515625 c 0
 325.634765625 424.478515625 323.447265625 424.291015625 321.571289062 424.291015625 c 0
 316.569335938 424.291015625 312.426757812 428.60546875 309.14453125 437.233398438 c 0
 305.861328125 445.861328125 303.517578125 454.865234375 302.110351562 464.244140625 c 0
 300.703125 473.623046875 300 479.8125 300 482.813476562 c 0
 300 486.565429688 300.78125 488.440429688 302.344726562 488.440429688 c 0
 303.283203125 488.440429688 304.064453125 488.065429688 304.689453125 487.315429688 c 0
 307.502929688 485.064453125 310.708007812 483.564453125 314.302734375 482.813476562 c 0
 317.897460938 482.063476562 321.258789062 481.688476562 324.384765625 481.688476562 c 2
 330.01171875 481.688476562 l 1
 654.044921875 525.580078125 l 2
 659.359375 526.331054688 663.500976562 527.268554688 666.471679688 528.393554688 c 0
 669.44140625 529.51953125 672.645507812 531.583007812 676.083984375 534.583984375 c 0
 676.709960938 535.333984375 677.491210938 535.708984375 678.4296875 535.708984375 c 0
 679.6796875 535.708984375 682.024414062 533.646484375 685.462890625 529.51953125 c 0
 688.90234375 525.392578125 692.184570312 519.765625 695.310546875 512.637695312 c 0
 698.4375 505.509765625 700 497.444335938 700 488.440429688 c 0
 700 479.4375 697.811523438 474.185546875 693.434570312 472.684570312 c 2
 336.577148438 426.541992188 l 2
EndSplineSet
EndChar

StartChar: uniE1C9
Encoding: 57801 57801 41
Width: 1000
VWidth: 0
Flags: W
LayerCount: 2
Fore
SplineSet
336.364257812 280.74609375 m 2
 334.16015625 280.74609375 332.11328125 280.622070312 330.224609375 280.373046875 c 0
 328.334960938 280.125 326.603515625 280 325.029296875 280 c 0
 317.788085938 280 312.908203125 282.487304688 310.389648438 287.462890625 c 0
 308.185546875 291.442382812 306.217773438 296.044921875 304.486328125 301.268554688 c 0
 302.754882812 306.493164062 301.416992188 311.34375 300.471679688 315.821289062 c 0
 300.157226562 316.815429688 300 318.30859375 300 320.297851562 c 0
 300 323.284179688 300.944335938 324.775390625 302.833007812 324.775390625 c 0
 303.462890625 324.775390625 304.092773438 324.52734375 304.72265625 324.029296875 c 0
 308.500976562 322.537109375 312.357421875 321.29296875 316.29296875 320.297851562 c 0
 320.228515625 319.303710938 323.927734375 318.805664062 327.390625 318.805664062 c 2
 330.224609375 318.805664062 l 1
 654.19140625 340.448242188 l 2
 662.376953125 340.9453125 669.618164062 342.686523438 675.915039062 345.671875 c 0
 676.544921875 345.671875 677.095703125 345.796875 677.567382812 346.044921875 c 0
 678.040039062 346.293945312 678.43359375 346.41796875 678.748046875 346.41796875 c 0
 683.15625 346.41796875 687.799804688 342.686523438 692.6796875 335.224609375 c 0
 697.559570312 327.76171875 700 321.044921875 700 315.07421875 c 0
 700 308.606445312 697.638671875 304.875 692.916015625 303.880859375 c 2
 336.364257812 280.74609375 l 2
390.672851562 621.044921875 m 2
 388.46875 621.044921875 386.422851562 620.919921875 384.534179688 620.671875 c 0
 382.64453125 620.423828125 380.913085938 620.298828125 379.338867188 620.298828125 c 0
 371.153320312 620.298828125 365.643554688 623.657226562 362.809570312 630.374023438 c 0
 359.9765625 637.08984375 357.772460938 644.92578125 356.198242188 653.881835938 c 0
 355.883789062 654.875976562 355.7265625 656.120117188 355.7265625 657.612304688 c 0
 355.7265625 659.602539062 356.513671875 660.596679688 358.087890625 660.596679688 c 0
 358.40234375 660.596679688 358.717773438 660.473632812 359.032226562 660.223632812 c 0
 359.346679688 659.975585938 359.662109375 659.8515625 359.9765625 659.8515625 c 0
 365.014648438 657.861328125 370.99609375 656.866210938 377.921875 656.866210938 c 2
 384.061523438 656.866210938 l 1
 578.158203125 673.284179688 l 2
 582.880859375 673.782226562 587.209960938 674.403320312 591.145507812 675.149414062 c 0
 595.081054688 675.896484375 599.094726562 677.264648438 603.1875 679.25390625 c 0
 603.817382812 679.751953125 605.076171875 680 606.965820312 680 c 0
 610.114257812 680 614.364257812 677.264648438 619.716796875 671.791992188 c 0
 625.068359375 666.318359375 627.745117188 659.10546875 627.745117188 650.149414062 c 0
 627.745117188 643.682617188 625.698242188 639.950195312 621.60546875 638.956054688 c 2
 390.672851562 621.044921875 l 2
EndSplineSet
EndChar

StartChar: uniE1CA
Encoding: 57802 57802 42
Width: 1000
VWidth: 0
Flags: W
LayerCount: 2
Fore
SplineSet
331.455078125 280 m 1
 323.943359375 280 l 2
 316.745117188 280 311.971679688 281.645507812 309.624023438 284.938476562 c 0
 307.27734375 288.23046875 304.225585938 296.4609375 300.469726562 309.62890625 c 0
 300.15625 310.453125 300 311.481445312 300 312.715820312 c 0
 300 314.362304688 300.782226562 315.184570312 302.34765625 315.184570312 c 0
 302.66015625 315.184570312 303.051757812 315.08203125 303.520507812 314.876953125 c 0
 303.990234375 314.670898438 304.381835938 314.568359375 304.694335938 314.568359375 c 0
 308.137695312 314.15625 311.345703125 313.641601562 314.319335938 313.024414062 c 0
 317.291992188 312.407226562 320.34375 312.098632812 323.473632812 312.098632812 c 2
 327.69921875 312.098632812 l 1
 652.58203125 327.53125 l 2
 656.963867188 327.942382812 660.875976562 328.456054688 664.319335938 329.07421875 c 0
 667.76171875 329.69140625 671.831054688 330.6171875 676.525390625 331.8515625 c 2
 678.403320312 331.8515625 l 2
 681.533203125 331.8515625 685.915039062 329.588867188 691.548828125 325.061523438 c 0
 697.182617188 320.53515625 700 314.362304688 700 306.54296875 c 0
 700 300.370117188 698.122070312 297.284179688 694.366210938 297.284179688 c 2
 331.455078125 280 l 1
415.961914062 466.419921875 m 2
 414.397460938 466.419921875 412.91015625 466.31640625 411.501953125 466.111328125 c 0
 410.09375 465.905273438 408.763671875 465.801757812 407.51171875 465.801757812 c 0
 403.129882812 465.801757812 399.217773438 467.55078125 395.774414062 471.049804688 c 0
 392.331054688 474.546875 389.044921875 482.674804688 385.915039062 495.431640625 c 0
 385.602539062 496.254882812 385.446289062 497.284179688 385.446289062 498.518554688 c 0
 385.446289062 499.752929688 386.228515625 500.370117188 387.793945312 500.370117188 c 2
 389.201171875 500.370117188 l 2
 392.331054688 499.546875 395.3046875 498.827148438 398.122070312 498.209960938 c 0
 400.939453125 497.592773438 404.069335938 497.284179688 407.51171875 497.284179688 c 2
 410.797851562 497.284179688 l 1
 578.874023438 510.247070312 l 2
 582.31640625 510.658203125 585.446289062 511.0703125 588.263671875 511.481445312 c 0
 591.080078125 511.892578125 593.740234375 512.715820312 596.244140625 513.950195312 c 0
 596.870117188 514.362304688 597.965820312 514.568359375 599.53125 514.568359375 c 0
 600.783203125 514.568359375 602.973632812 513.641601562 606.103515625 511.790039062 c 0
 609.233398438 509.938476562 612.20703125 507.366210938 615.0234375 504.07421875 c 0
 617.840820312 500.78125 619.249023438 496.872070312 619.249023438 492.345703125 c 0
 619.249023438 485.76171875 616.275390625 482.057617188 610.329101562 481.234375 c 2
 415.961914062 466.419921875 l 2
389.670898438 629.3828125 m 2
 387.16796875 628.971679688 384.8203125 628.765625 382.62890625 628.765625 c 2
 376.995117188 628.765625 l 1
 374.647460938 628.765625 l 2
 369.639648438 628.765625 365.805664062 631.131835938 363.145507812 635.864257812 c 0
 360.485351562 640.596679688 358.059570312 646.872070312 355.868164062 654.69140625 c 0
 355.555664062 655.513671875 355.399414062 656.54296875 355.399414062 657.77734375 c 0
 355.399414062 659.423828125 356.181640625 660.247070312 357.74609375 660.247070312 c 0
 358.059570312 660.247070312 358.372070312 660.143554688 358.685546875 659.938476562 c 0
 358.998046875 659.732421875 359.311523438 659.62890625 359.624023438 659.62890625 c 0
 364.319335938 657.983398438 369.483398438 657.16015625 375.1171875 657.16015625 c 0
 376.369140625 657.16015625 377.69921875 657.263671875 379.108398438 657.46875 c 0
 380.516601562 657.674804688 381.846679688 657.77734375 383.098632812 657.77734375 c 2
 596.713867188 674.444335938 l 2
 601.095703125 674.856445312 604.850585938 675.576171875 607.98046875 676.604492188 c 0
 611.110351562 677.633789062 614.397460938 678.559570312 617.83984375 679.3828125 c 0
 618.466796875 679.3828125 619.013671875 679.485351562 619.483398438 679.69140625 c 0
 619.953125 679.897460938 620.500976562 680 621.126953125 680 c 0
 625.1953125 680 630.203125 676.9140625 636.150390625 670.741210938 c 0
 639.90625 665.801757812 641.784179688 661.0703125 641.784179688 656.54296875 c 0
 641.784179688 651.193359375 639.749023438 648.107421875 635.680664062 647.284179688 c 2
 389.670898438 629.3828125 l 2
EndSplineSet
EndChar

StartChar: uniE1CB
Encoding: 57803 57803 43
Width: 1000
VWidth: 0
Flags: W
LayerCount: 2
Fore
SplineSet
668.911132812 652.333984375 m 1
 546.631835938 644.841796875 l 1
 545.595703125 542.82421875 l 1
 545.595703125 535.907226562 l 2
 545.595703125 522.458984375 547.150390625 513.622070312 550.258789062 509.39453125 c 0
 553.3671875 505.16796875 561.657226562 503.0546875 575.12890625 503.0546875 c 0
 586.182617188 503.0546875 594.818359375 503.342773438 601.036132812 503.918945312 c 0
 607.25390625 504.49609375 612.434570312 505.551757812 616.580078125 507.088867188 c 0
 620.724609375 508.625976562 625.215820312 510.35546875 630.051757812 512.276367188 c 0
 630.7421875 512.661132812 631.778320312 512.853515625 633.16015625 512.853515625 c 0
 636.959960938 512.853515625 641.623046875 510.451171875 647.150390625 505.6484375 c 0
 652.676757812 500.845703125 655.440429688 496.138671875 655.440429688 491.52734375 c 0
 655.440429688 486.532226562 652.158203125 483.458007812 645.595703125 482.305664062 c 0
 634.887695312 480 623.40234375 478.174804688 611.139648438 476.830078125 c 0
 598.876953125 475.485351562 587.21875 474.8125 576.166015625 474.8125 c 0
 557.166992188 474.8125 543.004882812 478.174804688 533.678710938 484.899414062 c 0
 524.352539062 491.624023438 519.689453125 506.12890625 519.689453125 528.415039062 c 2
 519.689453125 530.720703125 l 1
 520.724609375 643.688476562 l 1
 460.622070312 639.653320312 l 1
 459.584960938 601.61328125 456.044921875 569.625 450 543.6875 c 0
 443.955078125 517.751953125 434.71484375 495.2734375 422.279296875 476.252929688 c 0
 409.844726562 457.233398438 393.609375 438.884765625 373.57421875 421.209960938 c 0
 367.702148438 415.830078125 362.866210938 413.140625 359.067382812 413.140625 c 0
 356.303710938 413.140625 354.921875 414.676757812 354.921875 417.751953125 c 0
 354.921875 421.978515625 357.51171875 426.973632812 362.693359375 432.737304688 c 0
 378.583007812 450.413085938 391.795898438 468.375976562 402.331054688 486.627929688 c 0
 412.866210938 504.879882812 420.811523438 526.013671875 426.165039062 550.029296875 c 0
 431.51953125 574.043945312 434.196289062 603.534179688 434.196289062 638.501953125 c 1
 333.16015625 632.161132812 l 1
 346.11328125 359.538085938 l 1
 651.294921875 371.641601562 l 1
 668.911132812 652.333984375 l 1
347.150390625 333.6015625 m 1
 349.22265625 291.52734375 l 1
 349.22265625 289.797851562 l 2
 349.22265625 287.108398438 348.618164062 284.802734375 347.409179688 282.881835938 c 0
 346.200195312 280.9609375 344.213867188 280 341.450195312 280 c 0
 337.651367188 280 333.07421875 281.825195312 327.719726562 285.474609375 c 0
 322.366210938 289.125 319.689453125 293.640625 319.689453125 299.020507812 c 2
 319.689453125 303.631835938 l 2
 319.689453125 305.16796875 319.861328125 306.896484375 320.20703125 308.818359375 c 0
 320.552734375 313.045898438 320.811523438 317.368164062 320.984375 321.787109375 c 0
 321.157226562 326.205078125 321.243164062 330.913085938 321.243164062 335.908203125 c 2
 321.243164062 347.435546875 l 1
 308.290039062 614.870117188 l 2
 307.944335938 624.092773438 307.166992188 632.353515625 305.958007812 639.654296875 c 0
 304.749023438 646.955078125 303.28125 654.255859375 301.5546875 661.555664062 c 0
 301.208984375 663.477539062 300.86328125 665.111328125 300.517578125 666.455078125 c 0
 300.172851562 667.80078125 300 669.048828125 300 670.202148438 c 0
 300 672.891601562 301.208984375 674.236328125 303.626953125 674.236328125 c 0
 306.044921875 674.236328125 309.7578125 673.083984375 314.766601562 670.778320312 c 0
 319.775390625 668.473632812 326.59765625 664.438476562 335.233398438 658.674804688 c 1
 675.12890625 680 l 1
 678.755859375 680 l 2
 684.62890625 680 689.63671875 677.598632812 693.782226562 672.795898438 c 0
 697.926757812 667.9921875 700 663.861328125 700 660.403320312 c 0
 700 658.482421875 699.567382812 656.657226562 698.704101562 654.927734375 c 0
 697.840820312 653.198242188 697.236328125 651.565429688 696.890625 650.029296875 c 2
 678.755859375 374.525390625 l 1
 688.7734375 364.534179688 693.782226562 357.041015625 693.782226562 352.045898438 c 0
 693.782226562 347.819335938 689.46484375 345.322265625 680.829101562 344.553710938 c 2
 347.150390625 333.6015625 l 1
EndSplineSet
EndChar

StartChar: uniE1CC
Encoding: 57804 57804 44
Width: 1000
VWidth: 0
Flags: W
LayerCount: 2
Fore
SplineSet
588.215820312 493.18359375 m 1
 481.818359375 486.451171875 l 1
 455.780273438 311.977539062 l 1
 575.645507812 317.026367188 l 1
 588.215820312 493.18359375 l 1
334.567382812 280 m 1
 328.283203125 280 l 2
 320.80078125 280 315.114257812 281.30859375 311.223632812 283.927734375 c 0
 307.333007812 286.544921875 303.741210938 293.650390625 300.44921875 305.245117188 c 0
 300.149414062 305.994140625 300 307.115234375 300 308.611328125 c 0
 300 310.481445312 300.8984375 311.416015625 302.693359375 311.416015625 c 0
 302.993164062 311.416015625 303.291992188 311.322265625 303.591796875 311.13671875 c 0
 303.890625 310.94921875 304.190429688 310.85546875 304.489257812 310.85546875 c 0
 308.379882812 309.733398438 311.971679688 308.798828125 315.263671875 308.049804688 c 0
 318.555664062 307.302734375 321.998046875 306.928710938 325.588867188 306.928710938 c 2
 328.731445312 306.928710938 l 1
 432.435546875 311.416015625 l 1
 458.024414062 485.330078125 l 1
 397.418945312 481.40234375 l 2
 395.323242188 481.40234375 393.453125 481.309570312 391.806640625 481.122070312 c 0
 390.161132812 480.935546875 388.58984375 480.842773438 387.092773438 480.842773438 c 0
 381.107421875 480.842773438 376.916992188 482.151367188 374.5234375 484.768554688 c 0
 371.530273438 487.760742188 369.135742188 491.782226562 367.33984375 496.831054688 c 0
 365.543945312 501.87890625 364.646484375 504.965820312 364.646484375 506.087890625 c 0
 364.646484375 508.331054688 365.694335938 509.454101562 367.7890625 509.454101562 c 2
 369.135742188 509.454101562 l 2
 372.12890625 508.331054688 374.971679688 507.583007812 377.666015625 507.208984375 c 0
 380.359375 506.834960938 382.903320312 506.647460938 385.297851562 506.647460938 c 0
 386.793945312 506.647460938 388.365234375 506.741210938 390.01171875 506.928710938 c 0
 391.657226562 507.115234375 393.228515625 507.208984375 394.724609375 507.208984375 c 2
 461.616210938 511.13671875 l 1
 480.471679688 640.168945312 l 1
 381.706054688 632.875976562 l 2
 379.91015625 632.501953125 378.263671875 632.314453125 376.767578125 632.314453125 c 2
 372.278320312 632.314453125 l 2
 365.694335938 632.314453125 360.830078125 633.716796875 357.6875 636.521484375 c 0
 354.545898438 639.327148438 351.627929688 645.591796875 348.93359375 655.31640625 c 0
 348.634765625 656.063476562 348.485351562 656.999023438 348.485351562 658.12109375 c 0
 348.485351562 659.6171875 349.233398438 660.365234375 350.729492188 660.365234375 c 0
 351.029296875 660.365234375 351.328125 660.271484375 351.627929688 660.084960938 c 0
 351.926757812 659.897460938 352.2265625 659.803710938 352.525390625 659.803710938 c 0
 357.314453125 658.307617188 362.251953125 657.559570312 367.33984375 657.559570312 c 0
 368.836914062 657.559570312 370.258789062 657.653320312 371.60546875 657.83984375 c 0
 372.952148438 658.02734375 374.223632812 658.12109375 375.421875 658.12109375 c 2
 602.58203125 674.951171875 l 2
 606.772460938 675.325195312 610.438476562 675.88671875 613.581054688 676.633789062 c 0
 616.723632812 677.3828125 619.940429688 678.317382812 623.232421875 679.439453125 c 0
 623.831054688 679.439453125 624.280273438 679.533203125 624.580078125 679.719726562 c 0
 624.87890625 679.90625 625.328125 680 625.926757812 680 c 0
 628.021484375 680 630.71484375 679.065429688 634.006835938 677.1953125 c 0
 637.299804688 675.325195312 640.291992188 672.89453125 642.985351562 669.90234375 c 0
 645.6796875 666.909179688 647.026367188 663.357421875 647.026367188 659.243164062 c 0
 647.026367188 654.754882812 644.78125 652.13671875 640.291992188 651.388671875 c 2
 505.163085938 641.8515625 l 1
 485.859375 512.819335938 l 1
 594.94921875 519.55078125 l 1
 597.194335938 519.55078125 l 2
 602.282226562 519.55078125 606.622070312 517.9609375 610.212890625 514.782226562 c 0
 613.8046875 511.602539062 615.600585938 507.770507812 615.600585938 503.282226562 c 0
 615.600585938 501.038085938 615.2265625 498.98046875 614.478515625 497.110351562 c 0
 613.73046875 495.241210938 613.206054688 493.557617188 612.907226562 492.061523438 c 2
 598.541015625 318.1484375 l 1
 656.453125 320.392578125 l 2
 660.643554688 320.767578125 664.235351562 321.140625 667.227539062 321.514648438 c 0
 670.220703125 321.888671875 673.512695312 322.823242188 677.104492188 324.319335938 c 0
 677.703125 324.693359375 678.600585938 324.880859375 679.797851562 324.880859375 c 0
 683.090820312 324.880859375 687.280273438 322.356445312 692.368164062 317.307617188 c 0
 697.456054688 312.2578125 700 307.115234375 700 301.87890625 c 0
 700 297.765625 697.755859375 295.333984375 693.266601562 294.5859375 c 2
 334.567382812 280 l 1
EndSplineSet
EndChar

StartChar: uniE1CD
Encoding: 57805 57805 45
Width: 1000
VWidth: 0
Flags: W
LayerCount: 2
Fore
SplineSet
684.389648438 308.681640625 m 0
 684.389648438 304.2421875 682.114257812 300.401367188 677.560546875 297.157226562 c 0
 673.0078125 293.9140625 669.430664062 292.291992188 666.829101562 292.291992188 c 0
 663.251953125 292.291992188 660.487304688 293.829101562 658.536132812 296.901367188 c 0
 641.30078125 323.192382812 622.926757812 348.459960938 603.4140625 372.702148438 c 0
 583.90234375 396.944335938 563.251953125 419.650390625 541.462890625 440.8203125 c 0
 539.51171875 442.868164062 538.536132812 444.916992188 538.536132812 446.965820312 c 0
 538.536132812 449.697265625 539.91796875 452.94140625 542.682617188 456.696289062 c 0
 545.446289062 460.453125 548.454101562 462.331054688 551.70703125 462.331054688 c 0
 553.0078125 462.331054688 554.633789062 461.647460938 556.584960938 460.282226562 c 0
 578.047851562 438.770507812 599.186523438 416.235351562 620 392.676757812 c 0
 640.8125 369.1171875 661.30078125 343.6796875 681.462890625 316.364257812 c 0
 683.4140625 313.974609375 684.389648438 311.413085938 684.389648438 308.681640625 c 0
312.194335938 280 m 0
 308.29296875 280 306.340820312 281.537109375 306.340820312 284.609375 c 0
 306.340820312 287.682617188 308.780273438 291.779296875 313.658203125 296.901367188 c 0
 336.748046875 319.095703125 357.560546875 342.227539062 376.09765625 366.299804688 c 0
 394.634765625 390.372070312 410.568359375 416.40625 423.90234375 444.404296875 c 0
 424.877929688 446.453125 425.772460938 449.184570312 426.584960938 452.599609375 c 0
 427.3984375 456.013671875 428.129882812 459.2578125 428.780273438 462.330078125 c 0
 429.10546875 464.037109375 430.081054688 464.891601562 431.70703125 464.891601562 c 0
 433.0078125 464.891601562 435.447265625 463.610351562 439.024414062 461.049804688 c 0
 442.6015625 458.489257812 446.015625 455.245117188 449.267578125 451.318359375 c 0
 452.520507812 447.392578125 454.146484375 443.208984375 454.146484375 438.770507812 c 0
 454.146484375 437.404296875 453.8203125 436.0390625 453.170898438 434.673828125 c 0
 437.885742188 408.041015625 422.520507812 385.079101562 407.073242188 365.787109375 c 0
 391.625976562 346.495117188 377.235351562 330.448242188 363.90234375 317.643554688 c 0
 350.568359375 304.83984375 339.267578125 295.365234375 330 289.21875 c 0
 320.731445312 283.073242188 314.796875 280 312.194335938 280 c 0
336.584960938 518.66796875 m 2
 334.30859375 518.327148438 332.194335938 518.15625 330.244140625 518.15625 c 2
 324.877929688 518.15625 l 2
 317.073242188 518.15625 311.30078125 520.97265625 307.560546875 526.606445312 c 0
 303.8203125 532.240234375 301.462890625 536.764648438 300.487304688 540.178710938 c 0
 300.162109375 540.862304688 300 541.715820312 300 542.740234375 c 0
 300 544.447265625 300.8125 545.30078125 302.438476562 545.30078125 c 0
 303.088867188 545.30078125 303.577148438 545.21484375 303.90234375 545.043945312 c 0
 304.227539062 544.874023438 304.552734375 544.788085938 304.877929688 544.788085938 c 0
 308.129882812 544.10546875 311.544921875 543.59375 315.122070312 543.251953125 c 0
 318.69921875 542.91015625 322.114257812 542.740234375 325.366210938 542.740234375 c 2
 331.219726562 542.740234375 l 1
 484.877929688 551.958984375 l 1
 483.90234375 648.24609375 l 2
 483.90234375 657.46484375 481.951171875 666.341796875 478.048828125 674.87890625 c 0
 477.723632812 675.561523438 477.560546875 676.244140625 477.560546875 676.926757812 c 0
 477.560546875 678.975585938 479.349609375 680 482.926757812 680 c 0
 483.577148438 680 486.178710938 679.658203125 490.731445312 678.975585938 c 0
 495.284179688 678.29296875 499.674804688 677.012695312 503.90234375 675.134765625 c 0
 508.129882812 673.255859375 510.244140625 670.098632812 510.244140625 665.659179688 c 2
 510.244140625 552.983398438 l 1
 645.853515625 561.177734375 l 2
 651.056640625 561.51953125 655.853515625 562.03125 660.244140625 562.713867188 c 0
 664.633789062 563.396484375 669.10546875 564.420898438 673.658203125 565.787109375 c 0
 674.30859375 566.12890625 674.958984375 566.384765625 675.609375 566.555664062 c 0
 676.259765625 566.7265625 677.073242188 566.811523438 678.048828125 566.811523438 c 0
 679.674804688 566.811523438 682.276367188 565.787109375 685.853515625 563.73828125 c 0
 689.430664062 561.689453125 692.682617188 559.12890625 695.609375 556.055664062 c 0
 698.536132812 552.983398438 700 549.739257812 700 546.325195312 c 0
 700 542.227539062 697.885742188 539.837890625 693.658203125 539.154296875 c 2
 336.584960938 518.66796875 l 2
EndSplineSet
EndChar

StartChar: uniE1CE
Encoding: 57806 57806 46
Width: 1000
VWidth: 0
Flags: W
LayerCount: 2
Fore
SplineSet
478.240234375 471.416992188 m 1
 477.77734375 360.104492188 l 2
 477.77734375 344.846679688 479.552734375 333.315429688 483.1015625 325.513671875 c 0
 486.651367188 317.711914062 493.75 312.509765625 504.397460938 309.909179688 c 0
 515.045898438 307.30859375 531.172851562 306.0078125 552.77734375 306.0078125 c 0
 568.826171875 306.0078125 584.413085938 306.875 599.537109375 308.608398438 c 0
 614.66015625 310.341796875 628.0859375 312.509765625 639.814453125 315.110351562 c 0
 651.54296875 317.711914062 660.030273438 320.399414062 665.27734375 323.172851562 c 0
 667.12890625 324.213867188 668.981445312 324.733398438 670.833007812 324.733398438 c 0
 676.080078125 324.733398438 680.864257812 322.045898438 685.185546875 316.670898438 c 0
 689.505859375 311.295898438 691.666992188 306.875 691.666992188 303.407226562 c 0
 691.666992188 298.552734375 688.580078125 295.604492188 682.407226562 294.564453125 c 0
 657.407226562 290.056640625 633.950195312 286.501953125 612.036132812 283.901367188 c 0
 590.123046875 281.299804688 569.59765625 280 550.462890625 280 c 0
 527.623046875 280 509.02734375 281.647460938 494.674804688 284.942382812 c 0
 480.323242188 288.236328125 469.752929688 295.171875 462.961914062 305.748046875 c 0
 456.171875 316.325195312 452.77734375 332.189453125 452.77734375 353.342773438 c 2
 452.77734375 355.422851562 l 1
 453.240234375 466.735351562 l 1
 338.888671875 445.41015625 l 2
 334.567382812 444.715820312 331.095703125 444.109375 328.471679688 443.588867188 c 0
 325.848632812 443.069335938 323.45703125 442.80859375 321.295898438 442.80859375 c 0
 318.518554688 442.80859375 315.89453125 443.502929688 313.42578125 444.889648438 c 0
 310.95703125 446.623046875 308.564453125 448.963867188 306.25 451.911132812 c 0
 303.935546875 454.859375 302.005859375 457.720703125 300.462890625 460.494140625 c 0
 300.154296875 461.1875 300 462.0546875 300 463.094726562 c 0
 300 465.869140625 301.388671875 467.255859375 304.166992188 467.255859375 c 0
 305.709960938 466.909179688 307.021484375 466.735351562 308.1015625 466.735351562 c 2
 311.57421875 466.735351562 l 2
 314.96875 466.735351562 318.1328125 466.99609375 321.064453125 467.516601562 c 0
 323.99609375 468.037109375 326.8515625 468.470703125 329.62890625 468.81640625 c 2
 453.703125 491.703125 l 1
 454.62890625 652.952148438 l 2
 454.62890625 656.765625 454.3203125 660.3203125 453.703125 663.615234375 c 0
 453.0859375 666.909179688 451.696289062 670.291015625 449.536132812 673.7578125 c 0
 448.918945312 675.14453125 448.610351562 676.01171875 448.610351562 676.359375 c 0
 448.610351562 678.786132812 450.307617188 680 453.703125 680 c 0
 456.48046875 680 460.647460938 678.959960938 466.203125 676.87890625 c 0
 475.153320312 673.064453125 479.62890625 669.076171875 479.62890625 664.915039062 c 2
 478.703125 496.384765625 l 1
 646.295898438 527.073242188 l 2
 650.6171875 527.767578125 654.70703125 528.895507812 658.564453125 530.455078125 c 0
 662.422851562 532.015625 666.357421875 533.8359375 670.370117188 535.916992188 c 0
 671.295898438 536.610351562 672.375976562 537.130859375 673.610351562 537.4765625 c 0
 674.845703125 537.82421875 676.080078125 537.997070312 677.314453125 537.997070312 c 0
 679.166992188 537.997070312 681.8671875 537.130859375 685.416992188 535.396484375 c 0
 688.965820312 533.662109375 692.284179688 531.321289062 695.370117188 528.375 c 0
 698.45703125 525.426757812 700 522.045898438 700 518.231445312 c 0
 700 514.0703125 697.838867188 511.642578125 693.518554688 510.94921875 c 2
 478.240234375 471.416992188 l 1
EndSplineSet
EndChar

StartChar: uniE22C
Encoding: 57900 57900 47
Width: 1000
VWidth: 0
Flags: W
LayerCount: 2
Fore
SplineSet
286.577148438 276.541992188 m 2
 283.451171875 275.791015625 280.63671875 275.228515625 278.135742188 274.853515625 c 0
 275.634765625 274.478515625 273.447265625 274.291015625 271.571289062 274.291015625 c 0
 266.569335938 274.291015625 262.426757812 278.60546875 259.14453125 287.233398438 c 0
 255.861328125 295.861328125 253.517578125 304.865234375 252.110351562 314.244140625 c 0
 250.703125 323.623046875 250 329.8125 250 332.813476562 c 0
 250 336.565429688 250.78125 338.440429688 252.344726562 338.440429688 c 0
 253.283203125 338.440429688 254.064453125 338.065429688 254.689453125 337.315429688 c 0
 257.502929688 335.064453125 260.708007812 333.564453125 264.302734375 332.813476562 c 0
 267.897460938 332.063476562 271.258789062 331.688476562 274.384765625 331.688476562 c 2
 280.01171875 331.688476562 l 1
 604.044921875 375.580078125 l 2
 609.359375 376.331054688 613.500976562 377.268554688 616.471679688 378.393554688 c 0
 619.44140625 379.51953125 622.645507812 381.583007812 626.083984375 384.583984375 c 0
 626.709960938 385.333984375 627.491210938 385.708984375 628.4296875 385.708984375 c 0
 629.6796875 385.708984375 632.024414062 383.646484375 635.462890625 379.51953125 c 0
 638.90234375 375.392578125 642.184570312 369.765625 645.310546875 362.637695312 c 0
 648.4375 355.509765625 650 347.444335938 650 338.440429688 c 0
 650 329.4375 647.811523438 324.185546875 643.435546875 322.684570312 c 2
 286.577148438 276.541992188 l 2
EndSplineSet
EndChar

StartChar: uniE22D
Encoding: 57901 57901 48
Width: 1000
VWidth: 0
Flags: W
LayerCount: 2
Fore
SplineSet
286.364257812 180.559570312 m 2
 284.16015625 180.559570312 282.11328125 180.466796875 280.224609375 180.279296875 c 0
 278.334960938 180.09375 276.603515625 180 275.029296875 180 c 0
 267.788085938 180 262.908203125 181.865234375 260.389648438 185.596679688 c 0
 258.185546875 188.58203125 256.217773438 192.034179688 254.486328125 195.952148438 c 0
 252.754882812 199.869140625 251.416992188 203.5078125 250.471679688 206.866210938 c 0
 250.157226562 207.611328125 250 208.731445312 250 210.223632812 c 0
 250 212.462890625 250.944335938 213.58203125 252.833007812 213.58203125 c 0
 253.462890625 213.58203125 254.092773438 213.395507812 254.72265625 213.022460938 c 0
 258.500976562 211.90234375 262.357421875 210.969726562 266.29296875 210.223632812 c 0
 270.228515625 209.477539062 273.927734375 209.104492188 277.390625 209.104492188 c 2
 280.224609375 209.104492188 l 1
 604.19140625 225.3359375 l 2
 612.376953125 225.708984375 619.618164062 227.015625 625.915039062 229.25390625 c 0
 626.544921875 229.25390625 627.095703125 229.34765625 627.567382812 229.533203125 c 0
 628.040039062 229.720703125 628.43359375 229.813476562 628.748046875 229.813476562 c 0
 633.15625 229.813476562 637.799804688 227.015625 642.6796875 221.41796875 c 0
 647.559570312 215.821289062 650 210.784179688 650 206.305664062 c 0
 650 201.455078125 647.638671875 198.65625 642.916015625 197.911132812 c 2
 286.364257812 180.559570312 l 2
340.672851562 435.784179688 m 2
 338.46875 435.784179688 336.422851562 435.690429688 334.534179688 435.50390625 c 0
 332.64453125 435.318359375 330.913085938 435.224609375 329.338867188 435.224609375 c 0
 321.153320312 435.224609375 315.643554688 437.7421875 312.809570312 442.780273438 c 0
 309.9765625 447.817382812 307.772460938 453.694335938 306.198242188 460.411132812 c 0
 305.883789062 461.15625 305.7265625 462.08984375 305.7265625 463.208984375 c 0
 305.7265625 464.702148438 306.513671875 465.447265625 308.087890625 465.447265625 c 0
 308.40234375 465.447265625 308.717773438 465.35546875 309.032226562 465.16796875 c 0
 309.346679688 464.981445312 309.662109375 464.888671875 309.9765625 464.888671875 c 0
 315.014648438 463.396484375 320.99609375 462.649414062 327.921875 462.649414062 c 2
 334.061523438 462.649414062 l 1
 528.158203125 474.963867188 l 2
 532.880859375 475.336914062 537.209960938 475.802734375 541.145507812 476.362304688 c 0
 545.081054688 476.921875 549.094726562 477.948242188 553.1875 479.440429688 c 0
 553.817382812 479.813476562 555.076171875 480 556.965820312 480 c 0
 560.114257812 480 564.364257812 477.948242188 569.716796875 473.84375 c 0
 575.068359375 469.73828125 577.745117188 464.329101562 577.745117188 457.612304688 c 0
 577.745117188 452.76171875 575.698242188 449.962890625 571.60546875 449.216796875 c 2
 340.672851562 435.784179688 l 2
EndSplineSet
EndChar

StartChar: uniE22E
Encoding: 57902 57902 49
Width: 1000
VWidth: 0
Flags: W
LayerCount: 2
Fore
SplineSet
281.455078125 180 m 1
 273.943359375 180 l 2
 266.745117188 180 261.971679688 181.234375 259.624023438 183.703125 c 0
 257.27734375 186.172851562 254.225585938 192.345703125 250.469726562 202.221679688 c 0
 250.15625 202.83984375 250 203.611328125 250 204.537109375 c 0
 250 205.771484375 250.782226562 206.388671875 252.34765625 206.388671875 c 0
 252.66015625 206.388671875 253.051757812 206.311523438 253.520507812 206.157226562 c 0
 253.990234375 206.002929688 254.381835938 205.92578125 254.694335938 205.92578125 c 0
 258.137695312 205.6171875 261.345703125 205.231445312 264.319335938 204.768554688 c 0
 267.291992188 204.305664062 270.34375 204.07421875 273.473632812 204.07421875 c 2
 277.69921875 204.07421875 l 1
 602.58203125 215.6484375 l 2
 606.963867188 215.95703125 610.876953125 216.342773438 614.319335938 216.805664062 c 0
 617.76171875 217.268554688 621.831054688 217.962890625 626.526367188 218.888671875 c 2
 628.403320312 218.888671875 l 2
 631.533203125 218.888671875 635.916015625 217.19140625 641.548828125 213.795898438 c 0
 647.182617188 210.401367188 650 205.771484375 650 199.907226562 c 0
 650 195.27734375 648.122070312 192.962890625 644.366210938 192.962890625 c 2
 281.455078125 180 l 1
365.961914062 319.814453125 m 2
 364.397460938 319.814453125 362.91015625 319.737304688 361.501953125 319.583007812 c 0
 360.09375 319.428710938 358.763671875 319.3515625 357.51171875 319.3515625 c 0
 353.129882812 319.3515625 349.217773438 320.663085938 345.774414062 323.287109375 c 0
 342.331054688 325.91015625 339.044921875 332.005859375 335.915039062 341.57421875 c 0
 335.602539062 342.19140625 335.446289062 342.962890625 335.446289062 343.888671875 c 0
 335.446289062 344.814453125 336.228515625 345.27734375 337.793945312 345.27734375 c 2
 339.201171875 345.27734375 l 2
 342.331054688 344.66015625 345.3046875 344.120117188 348.122070312 343.657226562 c 0
 350.939453125 343.194335938 354.069335938 342.962890625 357.51171875 342.962890625 c 2
 360.797851562 342.962890625 l 1
 528.874023438 352.684570312 l 2
 532.31640625 352.993164062 535.446289062 353.302734375 538.263671875 353.611328125 c 0
 541.080078125 353.919921875 543.740234375 354.537109375 546.244140625 355.462890625 c 0
 546.870117188 355.771484375 547.965820312 355.92578125 549.53125 355.92578125 c 0
 550.783203125 355.92578125 552.973632812 355.231445312 556.103515625 353.842773438 c 0
 559.233398438 352.453125 562.20703125 350.524414062 565.0234375 348.055664062 c 0
 567.840820312 345.5859375 569.249023438 342.654296875 569.249023438 339.258789062 c 0
 569.249023438 334.321289062 566.275390625 331.54296875 560.329101562 330.92578125 c 2
 365.961914062 319.814453125 l 2
339.670898438 442.037109375 m 2
 337.16796875 441.728515625 334.8203125 441.57421875 332.62890625 441.57421875 c 2
 326.995117188 441.57421875 l 1
 324.647460938 441.57421875 l 2
 319.639648438 441.57421875 315.805664062 443.348632812 313.145507812 446.8984375 c 0
 310.485351562 450.447265625 308.059570312 455.154296875 305.868164062 461.018554688 c 0
 305.555664062 461.635742188 305.399414062 462.407226562 305.399414062 463.333007812 c 0
 305.399414062 464.568359375 306.181640625 465.184570312 307.74609375 465.184570312 c 0
 308.059570312 465.184570312 308.372070312 465.108398438 308.685546875 464.953125 c 0
 308.998046875 464.799804688 309.311523438 464.721679688 309.624023438 464.721679688 c 0
 314.319335938 463.487304688 319.483398438 462.870117188 325.1171875 462.870117188 c 0
 326.369140625 462.870117188 327.69921875 462.947265625 329.108398438 463.1015625 c 0
 330.516601562 463.255859375 331.846679688 463.333007812 333.098632812 463.333007812 c 2
 546.713867188 475.833007812 l 2
 551.095703125 476.141601562 554.8515625 476.681640625 557.981445312 477.454101562 c 0
 561.111328125 478.225585938 564.397460938 478.919921875 567.83984375 479.537109375 c 0
 568.466796875 479.537109375 569.013671875 479.614257812 569.483398438 479.768554688 c 0
 569.953125 479.922851562 570.500976562 480 571.126953125 480 c 0
 575.1953125 480 580.203125 477.685546875 586.150390625 473.055664062 c 0
 589.90625 469.3515625 591.784179688 465.802734375 591.784179688 462.407226562 c 0
 591.784179688 458.395507812 589.749023438 456.080078125 585.680664062 455.462890625 c 2
 339.670898438 442.037109375 l 2
EndSplineSet
EndChar

StartChar: uniE22F
Encoding: 57903 57903 50
Width: 1000
VWidth: 0
Flags: W
LayerCount: 2
Fore
SplineSet
618.911132812 459.25 m 1
 496.631835938 453.630859375 l 1
 495.595703125 377.118164062 l 1
 495.595703125 371.930664062 l 2
 495.595703125 361.84375 497.150390625 355.215820312 500.258789062 352.045898438 c 0
 503.3671875 348.875976562 511.658203125 347.291015625 525.129882812 347.291015625 c 0
 536.182617188 347.291015625 544.818359375 347.5078125 551.036132812 347.939453125 c 0
 557.25390625 348.372070312 562.434570312 349.1640625 566.580078125 350.317382812 c 0
 570.725585938 351.469726562 575.215820312 352.766601562 580.051757812 354.20703125 c 0
 580.7421875 354.49609375 581.778320312 354.639648438 583.16015625 354.639648438 c 0
 586.959960938 354.639648438 591.623046875 352.838867188 597.150390625 349.236328125 c 0
 602.676757812 345.633789062 605.440429688 342.103515625 605.440429688 338.645507812 c 0
 605.440429688 334.899414062 602.158203125 332.59375 595.595703125 331.729492188 c 0
 584.887695312 330 573.40234375 328.630859375 561.139648438 327.622070312 c 0
 548.876953125 326.614257812 537.219726562 326.109375 526.166015625 326.109375 c 0
 507.166992188 326.109375 493.004882812 328.630859375 483.678710938 333.674804688 c 0
 474.352539062 338.717773438 469.689453125 349.596679688 469.689453125 366.310546875 c 2
 469.689453125 368.040039062 l 1
 470.725585938 452.766601562 l 1
 410.622070312 449.740234375 l 1
 409.584960938 421.209960938 406.044921875 397.21875 400 377.765625 c 0
 393.955078125 358.313476562 384.71484375 341.455078125 372.279296875 327.189453125 c 0
 359.844726562 312.924804688 343.609375 299.1640625 323.57421875 285.907226562 c 0
 317.702148438 281.873046875 312.866210938 279.85546875 309.067382812 279.85546875 c 0
 306.303710938 279.85546875 304.921875 281.0078125 304.921875 283.313476562 c 0
 304.921875 286.483398438 307.51171875 290.23046875 312.693359375 294.552734375 c 0
 328.583007812 307.809570312 341.795898438 321.282226562 352.331054688 334.971679688 c 0
 362.866210938 348.659179688 370.811523438 364.510742188 376.165039062 382.521484375 c 0
 381.51953125 400.533203125 384.196289062 422.650390625 384.196289062 448.875976562 c 1
 283.16015625 444.12109375 l 1
 296.11328125 239.653320312 l 1
 601.294921875 248.731445312 l 1
 618.911132812 459.25 l 1
297.150390625 220.201171875 m 1
 299.22265625 188.645507812 l 1
 299.22265625 187.348632812 l 2
 299.22265625 185.331054688 298.618164062 183.602539062 297.409179688 182.161132812 c 0
 296.200195312 180.720703125 294.213867188 180 291.450195312 180 c 0
 287.651367188 180 283.07421875 181.369140625 277.719726562 184.106445312 c 0
 272.366210938 186.84375 269.689453125 190.23046875 269.689453125 194.264648438 c 2
 269.689453125 197.723632812 l 2
 269.689453125 198.875976562 269.861328125 200.172851562 270.20703125 201.614257812 c 0
 270.552734375 204.784179688 270.811523438 208.026367188 270.984375 211.33984375 c 0
 271.157226562 214.654296875 271.243164062 218.184570312 271.243164062 221.930664062 c 2
 271.243164062 230.577148438 l 1
 258.290039062 431.153320312 l 2
 257.944335938 438.069335938 257.166992188 444.265625 255.958007812 449.740234375 c 0
 254.749023438 455.215820312 253.28125 460.692382812 251.5546875 466.166992188 c 0
 251.208984375 467.608398438 250.86328125 468.833007812 250.517578125 469.841796875 c 0
 250.172851562 470.850585938 250 471.787109375 250 472.651367188 c 0
 250 474.668945312 251.208984375 475.676757812 253.626953125 475.676757812 c 0
 256.044921875 475.676757812 259.7578125 474.8125 264.766601562 473.083984375 c 0
 269.775390625 471.354492188 276.59765625 468.329101562 285.233398438 464.005859375 c 1
 625.129882812 480 l 1
 628.755859375 480 l 2
 634.62890625 480 639.63671875 478.19921875 643.782226562 474.596679688 c 0
 647.927734375 470.994140625 650 467.896484375 650 465.302734375 c 0
 650 463.862304688 649.568359375 462.493164062 648.704101562 461.1953125 c 0
 647.840820312 459.899414062 647.236328125 458.673828125 646.890625 457.521484375 c 2
 628.755859375 250.893554688 l 1
 638.7734375 243.400390625 643.782226562 237.78125 643.782226562 234.034179688 c 0
 643.782226562 230.864257812 639.46484375 228.991210938 630.829101562 228.415039062 c 2
 297.150390625 220.201171875 l 1
EndSplineSet
EndChar

StartChar: uniE230
Encoding: 57904 57904 51
Width: 1000
VWidth: 0
Flags: W
LayerCount: 2
Fore
SplineSet
538.215820312 339.887695312 m 1
 431.818359375 334.838867188 l 1
 405.780273438 203.983398438 l 1
 525.645507812 207.770507812 l 1
 538.215820312 339.887695312 l 1
284.567382812 180 m 1
 278.283203125 180 l 2
 270.80078125 180 265.114257812 180.981445312 261.223632812 182.9453125 c 0
 257.333007812 184.909179688 253.741210938 190.23828125 250.44921875 198.93359375 c 0
 250.149414062 199.495117188 250 200.336914062 250 201.458984375 c 0
 250 202.861328125 250.8984375 203.5625 252.693359375 203.5625 c 0
 252.993164062 203.5625 253.291992188 203.4921875 253.591796875 203.352539062 c 0
 253.890625 203.211914062 254.190429688 203.141601562 254.489257812 203.141601562 c 0
 258.379882812 202.299804688 261.971679688 201.598632812 265.263671875 201.037109375 c 0
 268.555664062 200.4765625 271.998046875 200.196289062 275.588867188 200.196289062 c 2
 278.731445312 200.196289062 l 1
 382.435546875 203.5625 l 1
 408.024414062 333.998046875 l 1
 347.418945312 331.051757812 l 2
 345.323242188 331.051757812 343.453125 330.981445312 341.806640625 330.841796875 c 0
 340.161132812 330.702148438 338.58984375 330.631835938 337.092773438 330.631835938 c 0
 331.107421875 330.631835938 326.916992188 331.61328125 324.5234375 333.576171875 c 0
 321.530273438 335.8203125 319.135742188 338.8359375 317.33984375 342.623046875 c 0
 315.543945312 346.409179688 314.646484375 348.724609375 314.646484375 349.565429688 c 0
 314.646484375 351.248046875 315.694335938 352.08984375 317.7890625 352.08984375 c 2
 319.135742188 352.08984375 l 2
 322.12890625 351.248046875 324.971679688 350.6875 327.666015625 350.407226562 c 0
 330.359375 350.125976562 332.903320312 349.986328125 335.297851562 349.986328125 c 0
 336.793945312 349.986328125 338.365234375 350.055664062 340.01171875 350.196289062 c 0
 341.657226562 350.336914062 343.228515625 350.407226562 344.724609375 350.407226562 c 2
 411.616210938 353.352539062 l 1
 430.471679688 450.125976562 l 1
 331.706054688 444.657226562 l 2
 329.91015625 444.375976562 328.263671875 444.235351562 326.767578125 444.235351562 c 2
 322.278320312 444.235351562 l 2
 315.694335938 444.235351562 310.830078125 445.288085938 307.6875 447.391601562 c 0
 304.545898438 449.495117188 301.627929688 454.194335938 298.93359375 461.487304688 c 0
 298.634765625 462.047851562 298.485351562 462.749023438 298.485351562 463.590820312 c 0
 298.485351562 464.712890625 299.233398438 465.274414062 300.729492188 465.274414062 c 0
 301.029296875 465.274414062 301.328125 465.204101562 301.627929688 465.063476562 c 0
 301.926757812 464.922851562 302.2265625 464.853515625 302.525390625 464.853515625 c 0
 307.314453125 463.731445312 312.251953125 463.169921875 317.33984375 463.169921875 c 0
 318.836914062 463.169921875 320.258789062 463.240234375 321.60546875 463.379882812 c 0
 322.952148438 463.520507812 324.223632812 463.590820312 325.421875 463.590820312 c 2
 552.58203125 476.212890625 l 2
 556.772460938 476.494140625 560.438476562 476.915039062 563.581054688 477.475585938 c 0
 566.723632812 478.037109375 569.940429688 478.737304688 573.232421875 479.580078125 c 0
 573.831054688 479.580078125 574.280273438 479.650390625 574.580078125 479.7890625 c 0
 574.87890625 479.9296875 575.328125 480 575.926757812 480 c 0
 578.021484375 480 580.71484375 479.298828125 584.006835938 477.896484375 c 0
 587.299804688 476.494140625 590.291992188 474.670898438 592.986328125 472.426757812 c 0
 595.6796875 470.182617188 597.026367188 467.517578125 597.026367188 464.431640625 c 0
 597.026367188 461.06640625 594.78125 459.102539062 590.291992188 458.541015625 c 2
 455.163085938 451.388671875 l 1
 435.859375 354.614257812 l 1
 544.94921875 359.663085938 l 1
 547.194335938 359.663085938 l 2
 552.282226562 359.663085938 556.622070312 358.470703125 560.212890625 356.086914062 c 0
 563.8046875 353.702148438 565.600585938 350.827148438 565.600585938 347.461914062 c 0
 565.600585938 345.778320312 565.2265625 344.235351562 564.478515625 342.833007812 c 0
 563.73046875 341.430664062 563.206054688 340.168945312 562.907226562 339.046875 c 2
 548.541015625 208.611328125 l 1
 606.453125 210.294921875 l 2
 610.643554688 210.575195312 614.235351562 210.85546875 617.227539062 211.135742188 c 0
 620.220703125 211.416992188 623.513671875 212.1171875 627.104492188 213.239257812 c 0
 627.703125 213.520507812 628.6015625 213.66015625 629.797851562 213.66015625 c 0
 633.090820312 213.66015625 637.280273438 211.767578125 642.368164062 207.98046875 c 0
 647.456054688 204.193359375 650 200.336914062 650 196.409179688 c 0
 650 193.32421875 647.755859375 191.5 643.266601562 190.939453125 c 2
 284.567382812 180 l 1
EndSplineSet
EndChar

StartChar: uniE231
Encoding: 57905 57905 52
Width: 1000
VWidth: 0
Flags: W
LayerCount: 2
Fore
SplineSet
634.389648438 201.51171875 m 0
 634.389648438 198.181640625 632.114257812 195.30078125 627.560546875 192.868164062 c 0
 623.0078125 190.435546875 619.430664062 189.21875 616.829101562 189.21875 c 0
 613.251953125 189.21875 610.487304688 190.37109375 608.536132812 192.67578125 c 0
 591.30078125 212.39453125 572.926757812 231.344726562 553.4140625 249.526367188 c 0
 533.90234375 267.708007812 513.251953125 284.737304688 491.462890625 300.615234375 c 0
 489.51171875 302.151367188 488.536132812 303.6875 488.536132812 305.224609375 c 0
 488.536132812 307.272460938 489.91796875 309.706054688 492.682617188 312.522460938 c 0
 495.447265625 315.33984375 498.455078125 316.748046875 501.70703125 316.748046875 c 0
 503.0078125 316.748046875 504.633789062 316.235351562 506.584960938 315.2109375 c 0
 528.047851562 299.078125 549.186523438 282.176757812 570 264.5078125 c 0
 590.8125 246.837890625 611.30078125 227.759765625 631.462890625 207.2734375 c 0
 633.4140625 205.48046875 634.389648438 203.559570312 634.389648438 201.51171875 c 0
262.194335938 180 m 0
 258.29296875 180 256.340820312 181.15234375 256.340820312 183.45703125 c 0
 256.340820312 185.76171875 258.780273438 188.834960938 263.658203125 192.67578125 c 0
 286.748046875 209.321289062 307.560546875 226.670898438 326.09765625 244.724609375 c 0
 344.634765625 262.778320312 360.568359375 282.3046875 373.90234375 303.302734375 c 0
 374.877929688 304.83984375 375.772460938 306.888671875 376.584960938 309.44921875 c 0
 377.3984375 312.009765625 378.129882812 314.443359375 378.780273438 316.748046875 c 0
 379.10546875 318.028320312 380.081054688 318.66796875 381.70703125 318.66796875 c 0
 383.0078125 318.66796875 385.447265625 317.708007812 389.024414062 315.787109375 c 0
 392.6015625 313.866210938 396.015625 311.43359375 399.267578125 308.489257812 c 0
 402.520507812 305.543945312 404.146484375 302.407226562 404.146484375 299.078125 c 0
 404.146484375 298.053710938 403.8203125 297.029296875 403.170898438 296.004882812 c 0
 387.885742188 276.03125 372.520507812 258.809570312 357.073242188 244.340820312 c 0
 341.625976562 229.87109375 327.235351562 217.8359375 313.90234375 208.233398438 c 0
 300.568359375 198.629882812 289.267578125 191.5234375 280 186.9140625 c 0
 270.731445312 182.3046875 264.796875 180 262.194335938 180 c 0
286.584960938 359.000976562 m 2
 284.30859375 358.745117188 282.194335938 358.6171875 280.244140625 358.6171875 c 2
 274.877929688 358.6171875 l 2
 267.073242188 358.6171875 261.30078125 360.729492188 257.560546875 364.955078125 c 0
 253.8203125 369.180664062 251.462890625 372.573242188 250.487304688 375.134765625 c 0
 250.162109375 375.646484375 250 376.286132812 250 377.0546875 c 0
 250 378.334960938 250.8125 378.975585938 252.438476562 378.975585938 c 0
 253.088867188 378.975585938 253.577148438 378.911132812 253.90234375 378.783203125 c 0
 254.227539062 378.655273438 254.552734375 378.591796875 254.877929688 378.591796875 c 0
 258.129882812 378.079101562 261.544921875 377.6953125 265.122070312 377.439453125 c 0
 268.69921875 377.182617188 272.114257812 377.0546875 275.366210938 377.0546875 c 2
 281.219726562 377.0546875 l 1
 434.877929688 383.96875 l 1
 433.90234375 456.184570312 l 2
 433.90234375 463.098632812 431.951171875 469.756835938 428.048828125 476.159179688 c 0
 427.723632812 476.670898438 427.560546875 477.18359375 427.560546875 477.6953125 c 0
 427.560546875 479.231445312 429.349609375 480 432.926757812 480 c 0
 433.577148438 480 436.178710938 479.744140625 440.731445312 479.231445312 c 0
 445.284179688 478.719726562 449.674804688 477.759765625 453.90234375 476.350585938 c 0
 458.129882812 474.942382812 460.244140625 472.57421875 460.244140625 469.245117188 c 2
 460.244140625 384.737304688 l 1
 595.853515625 390.883789062 l 2
 601.056640625 391.139648438 605.853515625 391.5234375 610.244140625 392.03515625 c 0
 614.633789062 392.547851562 619.10546875 393.31640625 623.658203125 394.340820312 c 0
 624.30859375 394.596679688 624.958984375 394.7890625 625.609375 394.916015625 c 0
 626.259765625 395.044921875 627.073242188 395.108398438 628.048828125 395.108398438 c 0
 629.674804688 395.108398438 632.276367188 394.340820312 635.853515625 392.803710938 c 0
 639.430664062 391.267578125 642.682617188 389.346679688 645.609375 387.041992188 c 0
 648.536132812 384.737304688 650 382.3046875 650 379.744140625 c 0
 650 376.670898438 647.885742188 374.877929688 643.658203125 374.366210938 c 2
 286.584960938 359.000976562 l 2
EndSplineSet
EndChar

StartChar: uniE232
Encoding: 57906 57906 53
Width: 1000
VWidth: 0
Flags: W
LayerCount: 2
Fore
SplineSet
428.240234375 323.5625 m 1
 427.77734375 240.078125 l 2
 427.77734375 228.634765625 429.552734375 219.987304688 433.1015625 214.135742188 c 0
 436.651367188 208.284179688 443.75 204.3828125 454.397460938 202.431640625 c 0
 465.045898438 200.481445312 481.172851562 199.505859375 502.77734375 199.505859375 c 0
 518.826171875 199.505859375 534.413085938 200.15625 549.537109375 201.456054688 c 0
 564.66015625 202.756835938 578.0859375 204.3828125 589.814453125 206.333007812 c 0
 601.54296875 208.284179688 610.030273438 210.298828125 615.27734375 212.379882812 c 0
 617.12890625 213.16015625 618.981445312 213.55078125 620.833007812 213.55078125 c 0
 626.080078125 213.55078125 630.864257812 211.534179688 635.185546875 207.50390625 c 0
 639.505859375 203.471679688 641.666992188 200.15625 641.666992188 197.555664062 c 0
 641.666992188 193.915039062 638.580078125 191.704101562 632.407226562 190.923828125 c 0
 607.407226562 187.54296875 583.950195312 184.875976562 562.036132812 182.92578125 c 0
 540.123046875 180.975585938 519.59765625 180 500.462890625 180 c 0
 477.623046875 180 459.02734375 181.235351562 444.674804688 183.706054688 c 0
 430.323242188 186.177734375 419.752929688 191.37890625 412.961914062 199.310546875 c 0
 406.171875 207.243164062 402.77734375 219.141601562 402.77734375 235.006835938 c 2
 402.77734375 236.567382812 l 1
 403.240234375 320.051757812 l 1
 288.888671875 304.057617188 l 2
 284.567382812 303.537109375 281.095703125 303.08203125 278.471679688 302.692382812 c 0
 275.848632812 302.301757812 273.45703125 302.106445312 271.295898438 302.106445312 c 0
 268.518554688 302.106445312 265.89453125 302.626953125 263.42578125 303.666992188 c 0
 260.95703125 304.967773438 258.564453125 306.72265625 256.25 308.93359375 c 0
 253.935546875 311.14453125 252.005859375 313.290039062 250.462890625 315.37109375 c 0
 250.154296875 315.890625 250 316.541015625 250 317.321289062 c 0
 250 319.401367188 251.388671875 320.442382812 254.166992188 320.442382812 c 0
 255.709960938 320.181640625 257.021484375 320.051757812 258.1015625 320.051757812 c 2
 261.57421875 320.051757812 l 2
 264.96875 320.051757812 268.1328125 320.247070312 271.064453125 320.637695312 c 0
 273.99609375 321.02734375 276.8515625 321.352539062 279.62890625 321.612304688 c 2
 403.703125 338.77734375 l 1
 404.62890625 459.713867188 l 2
 404.62890625 462.57421875 404.3203125 465.240234375 403.703125 467.7109375 c 0
 403.0859375 470.181640625 401.696289062 472.717773438 399.536132812 475.318359375 c 0
 398.918945312 476.358398438 398.610351562 477.008789062 398.610351562 477.26953125 c 0
 398.610351562 479.088867188 400.307617188 480 403.703125 480 c 0
 406.48046875 480 410.647460938 479.219726562 416.203125 477.659179688 c 0
 425.153320312 474.798828125 429.62890625 471.807617188 429.62890625 468.686523438 c 2
 428.703125 342.2890625 l 1
 596.295898438 365.305664062 l 2
 600.6171875 365.826171875 604.70703125 366.670898438 608.564453125 367.840820312 c 0
 612.422851562 369.01171875 616.357421875 370.376953125 620.370117188 371.9375 c 0
 621.295898438 372.458007812 622.375976562 372.84765625 623.611328125 373.107421875 c 0
 624.845703125 373.368164062 626.080078125 373.498046875 627.314453125 373.498046875 c 0
 629.166992188 373.498046875 631.8671875 372.84765625 635.416992188 371.547851562 c 0
 638.965820312 370.247070312 642.284179688 368.491210938 645.370117188 366.28125 c 0
 648.45703125 364.0703125 650 361.534179688 650 358.673828125 c 0
 650 355.552734375 647.83984375 353.731445312 643.518554688 353.211914062 c 2
 428.240234375 323.5625 l 1
EndSplineSet
EndChar

StartChar: uniE290
Encoding: 58000 58000 54
Width: 1000
VWidth: 0
Flags: W
LayerCount: 2
Fore
SplineSet
655.259765625 704.30859375 m 1
 640.247070312 668.950195312 628.395507812 642.291992188 619.704101562 624.336914062 c 0
 611.012695312 606.380859375 603.901367188 594.501953125 598.370117188 588.701171875 c 0
 592.83984375 582.900390625 587.30859375 580 581.778320312 580 c 0
 573.876953125 580 569.92578125 584.418945312 569.92578125 593.259765625 c 0
 569.92578125 596.57421875 570.321289062 599.336914062 571.111328125 601.546875 c 0
 576.642578125 617.569335938 581.975585938 634.143554688 587.111328125 651.270507812 c 0
 592.247070312 668.397460938 597.185546875 685.524414062 601.92578125 702.651367188 c 1
 367.259765625 693.53515625 l 1
 382.666992188 599.061523438 l 1
 382.666992188 597.403320312 l 2
 382.666992188 591.326171875 377.135742188 588.288085938 366.07421875 588.288085938 c 0
 359.752929688 588.288085938 350.666992188 590.083984375 338.815429688 593.674804688 c 0
 326.962890625 597.265625 321.037109375 604.5859375 321.037109375 615.635742188 c 2
 321.037109375 646.298828125 l 1
 312.741210938 691.87890625 l 1
 93.4814453125 683.590820312 l 1
 74.5185546875 683.590820312 l 2
 60.296875 683.590820312 49.6298828125 685.939453125 42.5185546875 690.635742188 c 0
 35.4072265625 695.33203125 28.296875 702.927734375 21.185546875 713.42578125 c 0
 20.3955078125 713.977539062 20 715.083007812 20 716.741210938 c 0
 20 718.3984375 21.9755859375 719.2265625 25.92578125 719.2265625 c 2
 29.4814453125 719.2265625 l 2
 45.2841796875 717.016601562 60.296875 715.912109375 74.5185546875 715.912109375 c 2
 91.111328125 715.912109375 l 1
 308 724.19921875 l 1
 291.407226562 819.502929688 l 2
 290.6171875 826.685546875 289.234375 832.625 287.259765625 837.3203125 c 0
 285.284179688 842.016601562 282.321289062 847.126953125 278.370117188 852.651367188 c 0
 277.580078125 853.756835938 277.185546875 855.137695312 277.185546875 856.794921875 c 0
 277.185546875 860.110351562 281.135742188 861.767578125 289.037109375 861.767578125 c 0
 292.197265625 861.767578125 298.124023438 861.353515625 306.815429688 860.524414062 c 0
 315.506835938 859.696289062 323.60546875 857.900390625 331.111328125 855.137695312 c 0
 338.6171875 852.375 342.765625 848.231445312 343.555664062 842.70703125 c 2
 362.518554688 726.685546875 l 1
 611.408203125 736.629882812 l 1
 616.149414062 754.862304688 620.692382812 773.232421875 625.038085938 791.740234375 c 0
 629.383789062 810.249023438 632.7421875 828.619140625 635.112304688 846.850585938 c 2
 635.112304688 850.994140625 l 2
 635.112304688 854.861328125 634.716796875 858.590820312 633.926757812 862.182617188 c 0
 633.13671875 865.7734375 631.952148438 869.502929688 630.37109375 873.370117188 c 2
 630.37109375 875.02734375 l 2
 630.37109375 878.341796875 634.716796875 880 643.408203125 880 c 0
 656.840820312 880 670.272460938 877.513671875 683.705078125 872.541015625 c 0
 697.13671875 867.568359375 703.852539062 862.3203125 703.852539062 856.794921875 c 0
 703.852539062 855.690429688 700.889648438 843.8125 694.963867188 821.16015625 c 0
 689.038085938 798.5078125 680.149414062 770.883789062 668.297851562 738.287109375 c 1
 869.778320312 746.57421875 l 2
 880.83984375 747.125976562 890.321289062 747.678710938 898.22265625 748.231445312 c 0
 906.124023438 748.784179688 914.024414062 750.165039062 921.92578125 752.375 c 0
 924.296875 752.927734375 926.666992188 753.341796875 929.037109375 753.618164062 c 0
 931.407226562 753.89453125 933.778320312 754.032226562 936.1484375 754.032226562 c 0
 951.161132812 754.032226562 962.22265625 750.165039062 969.333984375 742.430664062 c 0
 976.444335938 734.6953125 980 729.72265625 980 727.513671875 c 0
 980 720.883789062 972.888671875 717.015625 958.666992188 715.911132812 c 2
 655.259765625 704.30859375 l 1
EndSplineSet
EndChar

StartChar: uniE291
Encoding: 58001 58001 55
Width: 1000
VWidth: 0
Flags: W
LayerCount: 2
Fore
SplineSet
149.54296875 700.478515625 m 1
 138.748046875 680.266601562 126.98828125 660.319335938 114.265625 640.637695312 c 0
 101.54296875 620.95703125 89.01171875 603.404296875 76.67578125 587.978515625 c 0
 73.58984375 582.659179688 67.80859375 580 59.326171875 580 c 0
 51.615234375 580 43.1328125 582.659179688 33.880859375 587.978515625 c 0
 24.626953125 593.297851562 20 598.6171875 20 603.936523438 c 0
 20 606.595703125 21.15625 609.521484375 23.470703125 612.712890625 c 0
 35.80859375 626.541992188 48.337890625 642.6328125 61.060546875 660.983398438 c 0
 73.783203125 679.334960938 85.736328125 698.6171875 96.916015625 718.829101562 c 0
 108.09765625 739.04296875 117.54296875 758.19140625 125.25390625 776.276367188 c 0
 126.794921875 780.532226562 128.72265625 783.856445312 131.037109375 786.250976562 c 0
 133.349609375 788.643554688 137.205078125 789.840820312 142.603515625 789.840820312 c 0
 150.314453125 789.840820312 158.603515625 787.979492188 167.470703125 784.254882812 c 0
 176.337890625 780.532226562 180.771484375 776.276367188 180.771484375 771.489257812 c 0
 180.771484375 769.89453125 180.193359375 767.5 179.037109375 764.30859375 c 0
 177.880859375 761.118164062 173.83203125 751.809570312 166.892578125 736.383789062 c 1
 461.83203125 747.552734375 l 1
 460.67578125 847.287109375 l 2
 460.67578125 854.735351562 456.8203125 862.447265625 449.109375 870.42578125 c 0
 447.56640625 872.553710938 446.794921875 873.8828125 446.794921875 874.415039062 c 0
 446.794921875 878.139648438 452.578125 880 464.14453125 880 c 0
 477.25390625 880 490.748046875 878.271484375 504.626953125 874.814453125 c 0
 518.505859375 871.356445312 525.4453125 866.436523438 525.4453125 860.0546875 c 2
 524.2890625 749.947265625 l 1
 924.48046875 765.107421875 l 1
 931.421875 765.107421875 l 2
 942.98828125 765.107421875 953.974609375 762.978515625 964.384765625 758.723632812 c 0
 974.794921875 754.46875 980 749.415039062 980 743.563476562 c 0
 980 739.840820312 978.072265625 736.383789062 974.216796875 733.19140625 c 0
 970.361328125 730 967.27734375 727.075195312 964.962890625 724.415039062 c 0
 954.939453125 711.649414062 943.373046875 698.084960938 930.263671875 683.723632812 c 0
 917.15625 669.361328125 903.85546875 655.6640625 890.361328125 642.6328125 c 0
 876.8671875 629.600585938 864.14453125 618.962890625 852.19140625 610.717773438 c 0
 840.240234375 602.473632812 830.794921875 598.350585938 823.85546875 598.350585938 c 0
 818.45703125 598.350585938 815.7578125 600.745117188 815.7578125 605.532226562 c 0
 815.7578125 611.915039062 820.771484375 621.754882812 830.794921875 635.052734375 c 0
 842.361328125 648.8828125 853.734375 663.776367188 864.916015625 679.734375 c 0
 876.095703125 695.69140625 886.697265625 711.915039062 896.72265625 728.404296875 c 1
 149.54296875 700.478515625 l 1
EndSplineSet
EndChar

StartChar: uniE2F4
Encoding: 58100 58100 56
Width: 1000
VWidth: 0
Flags: W
LayerCount: 2
Fore
SplineSet
254.8671875 761.219726562 m 1
 276.696289062 724.377929688 302.875976562 692.379882812 333.407226562 665.227539062 c 0
 363.938476562 638.07421875 401.032226562 615.645507812 444.690429688 597.942382812 c 0
 448.23046875 596.267578125 450 594.83203125 450 593.635742188 c 0
 450 591.961914062 448.377929688 590.166992188 445.1328125 588.25390625 c 0
 441.887695312 586.33984375 438.569335938 584.784179688 435.176757812 583.588867188 c 0
 431.78515625 582.392578125 429.646484375 581.793945312 428.760742188 581.793945312 c 0
 427.581054688 581.793945312 422.493164062 583.767578125 413.49609375 587.71484375 c 0
 404.498046875 591.662109375 392.994140625 597.823242188 378.982421875 606.196289062 c 0
 364.970703125 614.569335938 349.778320312 625.39453125 333.407226562 638.671875 c 0
 317.03515625 651.94921875 300.737304688 667.918945312 284.513671875 686.579101562 c 0
 268.2890625 705.239257812 253.392578125 726.770507812 239.823242188 751.171875 c 1
 236.873046875 740.166992188 233.038085938 729.22265625 228.318359375 718.336914062 c 0
 223.598632812 707.452148438 218.141601562 697.224609375 211.947265625 687.655273438 c 0
 200.147460938 669.712890625 186.283203125 654.04296875 170.353515625 640.645507812 c 0
 154.424804688 627.248046875 138.569335938 616.064453125 122.788085938 607.092773438 c 0
 107.005859375 598.122070312 92.994140625 591.36328125 80.751953125 586.818359375 c 0
 68.5107421875 582.272460938 60.1767578125 580 55.751953125 580 c 0
 51.9169921875 580 50 580.95703125 50 582.87109375 c 0
 50 585.501953125 53.6875 588.373046875 61.0615234375 591.483398438 c 0
 86.1357421875 602.248046875 107.521484375 614.090820312 125.220703125 627.009765625 c 0
 142.919921875 639.927734375 157.594726562 653.026367188 169.247070312 666.303710938 c 0
 180.899414062 679.581054688 190.1171875 692.3203125 196.90234375 704.521484375 c 0
 203.686523438 716.72265625 208.849609375 727.666992188 212.388671875 737.356445312 c 0
 215.928710938 747.044921875 218.436523438 754.521484375 219.911132812 759.784179688 c 1
 111.946289062 754.760742188 l 2
 108.701171875 754.521484375 105.899414062 754.341796875 103.5390625 754.22265625 c 0
 101.1796875 754.102539062 99.1142578125 754.04296875 97.3447265625 754.04296875 c 0
 93.509765625 754.04296875 90.19140625 755.178710938 87.388671875 757.452148438 c 0
 84.5869140625 759.724609375 82.3740234375 762.176757812 80.751953125 764.80859375 c 0
 79.12890625 767.439453125 78.318359375 769.353515625 78.318359375 770.549804688 c 0
 78.318359375 771.74609375 79.0556640625 772.344726562 80.5302734375 772.344726562 c 0
 81.1201171875 772.344726562 81.5625 772.284179688 81.857421875 772.165039062 c 0
 82.1533203125 772.044921875 82.4482421875 771.985351562 82.7431640625 771.985351562 c 0
 85.9873046875 771.267578125 89.1591796875 770.7890625 92.255859375 770.549804688 c 0
 95.353515625 770.310546875 98.376953125 770.19140625 101.327148438 770.19140625 c 2
 106.63671875 770.19140625 l 1
 223.451171875 775.57421875 l 1
 225.810546875 786.818359375 227.506835938 798.361328125 228.5390625 810.203125 c 0
 229.572265625 822.045898438 230.087890625 833.947265625 230.087890625 845.909179688 c 2
 230.087890625 859.904296875 l 2
 230.087890625 861.818359375 229.8671875 864.330078125 229.423828125 867.440429688 c 0
 228.981445312 870.549804688 228.170898438 873.420898438 226.990234375 876.052734375 c 0
 226.990234375 876.53125 226.916992188 876.830078125 226.76953125 876.950195312 c 0
 226.622070312 877.069335938 226.547851562 877.249023438 226.547851562 877.48828125 c 0
 226.547851562 879.163085938 227.875976562 880 230.530273438 880 c 0
 232.890625 880 236.061523438 879.461914062 240.043945312 878.385742188 c 0
 244.025390625 877.30859375 247.639648438 875.813476562 250.884765625 873.899414062 c 0
 254.12890625 871.985351562 255.751953125 869.712890625 255.751953125 867.081054688 c 2
 255.751953125 860.98046875 l 2
 255.751953125 846.1484375 255.014648438 831.734375 253.5390625 817.739257812 c 0
 252.064453125 803.744140625 250.146484375 790.047851562 247.787109375 776.650390625 c 1
 366.37109375 782.391601562 l 2
 371.090820312 782.630859375 375.442382812 782.990234375 379.423828125 783.46875 c 0
 383.40625 783.947265625 387.462890625 784.665039062 391.592773438 785.622070312 c 0
 392.772460938 786.100585938 393.952148438 786.33984375 395.131835938 786.33984375 c 0
 396.90234375 786.33984375 399.409179688 785.681640625 402.654296875 784.366210938 c 0
 405.899414062 783.049804688 408.849609375 781.375 411.50390625 779.341796875 c 0
 414.159179688 777.30859375 415.486328125 774.975585938 415.486328125 772.344726562 c 0
 415.486328125 769.473632812 413.569335938 767.798828125 409.734375 767.3203125 c 2
 254.8671875 761.219726562 l 1
EndSplineSet
EndChar

StartChar: uniE2F5
Encoding: 58101 58101 57
Width: 1000
VWidth: 0
Flags: W
LayerCount: 2
Fore
SplineSet
273.076171875 595.053710938 m 2
 275 601.504882812 276.122070312 606.76171875 276.442382812 610.82421875 c 0
 276.762695312 614.885742188 276.922851562 620.262695312 276.922851562 626.953125 c 2
 280.768554688 771.397460938 l 1
 246.794921875 756.583007812 214.102539062 743.440429688 182.692382812 731.971679688 c 0
 151.282226562 720.501953125 124.518554688 711.600585938 102.403320312 705.268554688 c 0
 80.2880859375 698.936523438 65.384765625 695.770507812 57.6923828125 695.770507812 c 0
 52.564453125 695.770507812 50 696.607421875 50 698.279296875 c 0
 50 699.235351562 51.2822265625 700.549804688 53.8466796875 702.22265625 c 0
 56.41015625 703.89453125 60.5771484375 705.686523438 66.345703125 707.598632812 c 0
 79.8076171875 712.377929688 96.794921875 718.888671875 117.307617188 727.1328125 c 0
 137.8203125 735.375976562 160.095703125 744.6953125 184.134765625 755.08984375 c 0
 208.172851562 765.484375 232.211914062 776.416015625 256.25 787.884765625 c 0
 280.288085938 799.354492188 302.243164062 810.64453125 322.115234375 821.755859375 c 0
 341.986328125 832.8671875 358.172851562 843.26171875 370.672851562 852.939453125 c 0
 383.172851562 862.616210938 389.743164062 870.919921875 390.384765625 877.849609375 c 0
 390.384765625 879.283203125 392.627929688 880 397.115234375 880 c 0
 402.243164062 880 408.974609375 879.223632812 417.307617188 877.669921875 c 0
 425.640625 876.1171875 433.172851562 874.145507812 439.904296875 871.755859375 c 0
 446.634765625 869.3671875 450 867.096679688 450 864.946289062 c 0
 450 864.229492188 445.032226562 860.525390625 435.095703125 853.834960938 c 0
 425.16015625 847.14453125 411.057617188 838.602539062 392.788085938 828.208007812 c 0
 374.518554688 817.813476562 352.883789062 806.404296875 327.884765625 793.978515625 c 1
 330.768554688 585.017578125 l 2
 330.768554688 581.672851562 325.3203125 580 314.422851562 580 c 0
 308.653320312 580 302.883789062 580.716796875 297.115234375 582.150390625 c 0
 288.141601562 584.30078125 281.890625 586.092773438 278.365234375 587.52734375 c 0
 274.83984375 588.9609375 273.076171875 590.752929688 273.076171875 592.903320312 c 2
 273.076171875 595.053710938 l 2
EndSplineSet
EndChar

StartChar: uniE2F6
Encoding: 58102 58102 58
Width: 1000
VWidth: 0
Flags: W
LayerCount: 2
Fore
SplineSet
233.001953125 787.866210938 m 1
 88.5263671875 782.694335938 l 1
 99.857421875 712.866210938 l 1
 232.436523438 716.421875 l 1
 233.001953125 787.866210938 l 1
416.005859375 793.362304688 m 1
 263.03125 788.8359375 l 1
 261.8984375 717.392578125 l 1
 401.275390625 720.948242188 l 1
 416.005859375 793.362304688 l 1
261.8984375 702.844726562 m 1
 260.764648438 586.142578125 l 2
 260.764648438 582.047851562 257.7421875 580 251.700195312 580 c 0
 247.544921875 580 242.729492188 581.185546875 237.251953125 583.556640625 c 0
 231.775390625 585.926757812 229.037109375 588.513671875 229.037109375 591.314453125 c 2
 229.037109375 593.254882812 l 2
 230.169921875 597.564453125 230.924804688 602.090820312 231.302734375 606.83203125 c 0
 231.680664062 611.573242188 231.869140625 616.530273438 231.869140625 621.703125 c 2
 232.436523438 701.875 l 1
 102.124023438 698.319335938 l 1
 103.82421875 686.681640625 l 1
 103.82421875 686.358398438 l 2
 103.82421875 685.280273438 102.973632812 684.203125 101.274414062 683.125 c 0
 99.57421875 682.047851562 97.21484375 681.508789062 94.1923828125 681.508789062 c 0
 90.0380859375 681.508789062 85.220703125 682.748046875 79.744140625 685.2265625 c 0
 74.267578125 687.705078125 71.529296875 690.129882812 71.529296875 692.5 c 2
 71.529296875 693.79296875 l 2
 71.9072265625 695.517578125 72.189453125 697.080078125 72.37890625 698.48046875 c 0
 72.568359375 699.881835938 72.6630859375 701.336914062 72.6630859375 702.844726562 c 0
 72.6630859375 704.138671875 72.568359375 705.5390625 72.37890625 707.047851562 c 0
 72.189453125 708.556640625 71.9072265625 710.172851562 71.529296875 711.896484375 c 2
 61.3310546875 777.844726562 l 2
 60.9541015625 780.431640625 60.103515625 783.287109375 58.78125 786.412109375 c 0
 57.458984375 789.537109375 55.287109375 792.823242188 52.265625 796.271484375 c 0
 50.7548828125 797.99609375 50 799.396484375 50 800.474609375 c 0
 50 801.983398438 52.0771484375 802.737304688 56.232421875 802.737304688 c 0
 61.1416015625 802.737304688 71.9072265625 801.013671875 88.5263671875 797.564453125 c 1
 233.001953125 802.4140625 l 1
 233.569335938 860.926757812 l 2
 233.569335938 863.728515625 233.19140625 866.530273438 232.436523438 869.33203125 c 0
 231.680664062 872.133789062 230.736328125 874.612304688 229.602539062 876.767578125 c 0
 229.602539062 876.983398438 229.508789062 877.198242188 229.319335938 877.4140625 c 0
 229.130859375 877.62890625 229.037109375 877.844726562 229.037109375 878.060546875 c 0
 229.037109375 879.353515625 231.114257812 880 235.26953125 880 c 0
 237.913085938 880 241.500976562 879.676757812 246.033203125 879.030273438 c 0
 250.567382812 878.383789062 254.625976562 877.4140625 258.21484375 876.12109375 c 0
 261.802734375 874.828125 263.59765625 872.99609375 263.59765625 870.625 c 2
 263.03125 803.383789062 l 1
 420.538085938 808.87890625 l 2
 422.048828125 808.87890625 423.465820312 808.93359375 424.787109375 809.041015625 c 0
 426.109375 809.1484375 427.336914062 809.203125 428.469726562 809.203125 c 0
 434.891601562 809.203125 440.084960938 807.85546875 444.051757812 805.162109375 c 0
 448.016601562 802.467773438 450 799.935546875 450 797.564453125 c 0
 450 796.271484375 449.528320312 795.140625 448.583984375 794.170898438 c 0
 447.639648438 793.200195312 446.978515625 792.284179688 446.600585938 791.421875 c 2
 430.169921875 721.918945312 l 1
 438.858398438 717.392578125 443.201171875 713.728515625 443.201171875 710.926757812 c 0
 443.201171875 708.125 439.61328125 706.724609375 432.436523438 706.724609375 c 2
 261.8984375 702.844726562 l 1
EndSplineSet
EndChar

StartChar: uniE2F7
Encoding: 58103 58103 59
Width: 1000
VWidth: 0
Flags: W
LayerCount: 2
Fore
SplineSet
242.3203125 796.442382812 m 1
 225.934570312 783.01953125 208.116210938 770.379882812 188.86328125 758.5234375 c 0
 169.611328125 746.666015625 151.177734375 736.208007812 133.563476562 727.147460938 c 0
 115.950195312 718.086914062 100.69140625 710.984375 87.7880859375 705.838867188 c 0
 74.884765625 700.693359375 66.58984375 698.120117188 62.9033203125 698.120117188 c 0
 59.216796875 698.120117188 57.373046875 698.903320312 57.373046875 700.469726562 c 0
 57.373046875 703.154296875 61.87890625 706.622070312 70.8916015625 710.872070312 c 0
 117.998046875 733.915039062 157.732421875 758.466796875 190.092773438 784.530273438 c 0
 222.453125 810.592773438 248.46484375 836.487304688 268.126953125 862.21484375 c 0
 269.35546875 864.004882812 270.379882812 865.961914062 271.198242188 868.086914062 c 0
 272.017578125 870.211914062 272.427734375 872.393554688 272.427734375 874.630859375 c 2
 272.427734375 876.64453125 l 2
 272.427734375 878.881835938 274.680664062 880 279.185546875 880 c 0
 282.873046875 880 287.481445312 879.440429688 293.01171875 878.322265625 c 0
 298.541015625 877.204101562 303.456054688 875.749023438 307.7578125 873.959960938 c 0
 312.059570312 872.169921875 314.209960938 870.268554688 314.209960938 868.254882812 c 0
 314.209960938 868.03125 314.106445312 867.86328125 313.90234375 867.751953125 c 0
 313.698242188 867.639648438 313.594726562 867.471679688 313.594726562 867.248046875 c 0
 298.029296875 848.008789062 280.825195312 830 261.982421875 813.221679688 c 1
 416.20703125 819.932617188 l 2
 418.25390625 819.932617188 419.995117188 819.98828125 421.4296875 820.100585938 c 0
 422.86328125 820.211914062 424.194335938 820.268554688 425.423828125 820.268554688 c 0
 431.157226562 820.268554688 436.6875 819.09375 442.012695312 816.745117188 c 0
 447.337890625 814.395507812 450 811.655273438 450 808.5234375 c 0
 450 806.733398438 449.079101562 805.111328125 447.235351562 803.657226562 c 0
 445.392578125 802.203125 444.061523438 801.252929688 443.2421875 800.805664062 c 0
 422.759765625 778.209960938 402.484375 757.740234375 382.412109375 739.395507812 c 0
 362.340820312 721.05078125 338.787109375 703.266601562 311.751953125 686.040039062 c 0
 283.077148438 667.6953125 254.301757812 651.811523438 225.421875 638.388671875 c 0
 196.543945312 624.965820312 169.815429688 613.948242188 145.237304688 605.334960938 c 0
 120.66015625 596.72265625 100.383789062 590.346679688 84.408203125 586.208007812 c 0
 68.4326171875 582.069335938 59.216796875 580 56.7578125 580 c 0
 52.251953125 580 50 581.006835938 50 583.020507812 c 0
 50 584.362304688 51.3310546875 585.984375 53.9931640625 587.885742188 c 0
 56.65625 589.787109375 60.85546875 591.6328125 66.5888671875 593.422851562 c 0
 112.876953125 608.635742188 152.815429688 624.18359375 186.405273438 640.067382812 c 0
 219.994140625 655.951171875 250.51171875 672.729492188 277.95703125 690.40234375 c 1
 265.66796875 699.575195312 252.35546875 708.35546875 238.017578125 716.745117188 c 0
 223.680664062 725.134765625 208.115234375 733.35546875 191.3203125 741.409179688 c 0
 188.04296875 742.751953125 186.405273438 744.317382812 186.405273438 746.107421875 c 0
 186.405273438 748.12109375 188.248046875 749.911132812 191.934570312 751.4765625 c 0
 195.211914062 753.266601562 198.283203125 754.161132812 201.151367188 754.161132812 c 0
 205.247070312 754.161132812 216.716796875 749.743164062 235.560546875 740.90625 c 0
 254.40234375 732.069335938 275.704101562 719.932617188 299.462890625 704.497070312 c 1
 320.353515625 719.26171875 338.889648438 734.362304688 355.069335938 749.798828125 c 0
 371.25 765.235351562 387.94140625 783.020507812 405.145507812 803.154296875 c 1
 242.3203125 796.442382812 l 1
EndSplineSet
EndChar

StartChar: uniE326
Encoding: 58150 58150 60
Width: 1000
VWidth: 0
Flags: W
LayerCount: 2
Fore
SplineSet
586.577148438 676.541992188 m 2
 583.451171875 675.791015625 580.63671875 675.228515625 578.135742188 674.853515625 c 0
 575.634765625 674.478515625 573.447265625 674.291015625 571.571289062 674.291015625 c 0
 566.569335938 674.291015625 562.426757812 678.60546875 559.14453125 687.233398438 c 0
 555.861328125 695.861328125 553.517578125 704.865234375 552.110351562 714.244140625 c 0
 550.703125 723.623046875 550 729.8125 550 732.813476562 c 0
 550 736.565429688 550.78125 738.440429688 552.344726562 738.440429688 c 0
 553.283203125 738.440429688 554.064453125 738.065429688 554.689453125 737.315429688 c 0
 557.502929688 735.064453125 560.708007812 733.564453125 564.302734375 732.813476562 c 0
 567.897460938 732.063476562 571.258789062 731.688476562 574.384765625 731.688476562 c 2
 580.01171875 731.688476562 l 1
 904.044921875 775.580078125 l 2
 909.359375 776.331054688 913.500976562 777.268554688 916.471679688 778.393554688 c 0
 919.44140625 779.51953125 922.645507812 781.583007812 926.083984375 784.583984375 c 0
 926.709960938 785.333984375 927.491210938 785.708984375 928.4296875 785.708984375 c 0
 929.6796875 785.708984375 932.024414062 783.646484375 935.462890625 779.51953125 c 0
 938.90234375 775.392578125 942.184570312 769.765625 945.310546875 762.637695312 c 0
 948.4375 755.509765625 950 747.444335938 950 738.440429688 c 0
 950 729.4375 947.811523438 724.185546875 943.434570312 722.684570312 c 2
 586.577148438 676.541992188 l 2
EndSplineSet
EndChar

StartChar: uniE327
Encoding: 58151 58151 61
Width: 1000
VWidth: 0
Flags: W
LayerCount: 2
Fore
SplineSet
586.364257812 580.559570312 m 2
 584.16015625 580.559570312 582.11328125 580.466796875 580.224609375 580.279296875 c 0
 578.334960938 580.09375 576.603515625 580 575.029296875 580 c 0
 567.788085938 580 562.908203125 581.865234375 560.389648438 585.596679688 c 0
 558.185546875 588.58203125 556.217773438 592.034179688 554.486328125 595.952148438 c 0
 552.754882812 599.869140625 551.416992188 603.5078125 550.471679688 606.866210938 c 0
 550.157226562 607.611328125 550 608.731445312 550 610.223632812 c 0
 550 612.462890625 550.944335938 613.58203125 552.833007812 613.58203125 c 0
 553.462890625 613.58203125 554.092773438 613.395507812 554.72265625 613.022460938 c 0
 558.500976562 611.90234375 562.357421875 610.969726562 566.29296875 610.223632812 c 0
 570.228515625 609.477539062 573.927734375 609.104492188 577.390625 609.104492188 c 2
 580.224609375 609.104492188 l 1
 904.19140625 625.3359375 l 2
 912.376953125 625.708984375 919.618164062 627.015625 925.915039062 629.25390625 c 0
 926.544921875 629.25390625 927.095703125 629.34765625 927.567382812 629.533203125 c 0
 928.040039062 629.720703125 928.43359375 629.813476562 928.748046875 629.813476562 c 0
 933.15625 629.813476562 937.799804688 627.015625 942.6796875 621.41796875 c 0
 947.559570312 615.821289062 950 610.784179688 950 606.305664062 c 0
 950 601.455078125 947.638671875 598.65625 942.916015625 597.911132812 c 2
 586.364257812 580.559570312 l 2
640.672851562 835.784179688 m 2
 638.46875 835.784179688 636.422851562 835.690429688 634.534179688 835.50390625 c 0
 632.64453125 835.318359375 630.913085938 835.224609375 629.338867188 835.224609375 c 0
 621.153320312 835.224609375 615.643554688 837.7421875 612.809570312 842.780273438 c 0
 609.9765625 847.817382812 607.772460938 853.694335938 606.198242188 860.411132812 c 0
 605.883789062 861.15625 605.7265625 862.08984375 605.7265625 863.208984375 c 0
 605.7265625 864.702148438 606.513671875 865.447265625 608.087890625 865.447265625 c 0
 608.40234375 865.447265625 608.717773438 865.35546875 609.032226562 865.16796875 c 0
 609.346679688 864.981445312 609.662109375 864.888671875 609.9765625 864.888671875 c 0
 615.014648438 863.396484375 620.99609375 862.649414062 627.921875 862.649414062 c 2
 634.061523438 862.649414062 l 1
 828.158203125 874.963867188 l 2
 832.880859375 875.336914062 837.209960938 875.802734375 841.145507812 876.362304688 c 0
 845.081054688 876.921875 849.094726562 877.948242188 853.1875 879.440429688 c 0
 853.817382812 879.813476562 855.076171875 880 856.965820312 880 c 0
 860.114257812 880 864.364257812 877.948242188 869.716796875 873.84375 c 0
 875.068359375 869.73828125 877.745117188 864.329101562 877.745117188 857.612304688 c 0
 877.745117188 852.76171875 875.698242188 849.962890625 871.60546875 849.216796875 c 2
 640.672851562 835.784179688 l 2
EndSplineSet
EndChar

StartChar: uniE328
Encoding: 58152 58152 62
Width: 1000
VWidth: 0
Flags: W
LayerCount: 2
Fore
SplineSet
581.455078125 580 m 1
 573.943359375 580 l 2
 566.745117188 580 561.971679688 581.234375 559.624023438 583.703125 c 0
 557.27734375 586.172851562 554.225585938 592.345703125 550.469726562 602.221679688 c 0
 550.15625 602.83984375 550 603.611328125 550 604.537109375 c 0
 550 605.771484375 550.782226562 606.388671875 552.34765625 606.388671875 c 0
 552.66015625 606.388671875 553.051757812 606.311523438 553.520507812 606.157226562 c 0
 553.990234375 606.002929688 554.381835938 605.92578125 554.694335938 605.92578125 c 0
 558.137695312 605.6171875 561.345703125 605.231445312 564.319335938 604.768554688 c 0
 567.291992188 604.305664062 570.34375 604.07421875 573.473632812 604.07421875 c 2
 577.69921875 604.07421875 l 1
 902.58203125 615.6484375 l 2
 906.963867188 615.95703125 910.875976562 616.342773438 914.319335938 616.805664062 c 0
 917.76171875 617.268554688 921.831054688 617.962890625 926.525390625 618.888671875 c 2
 928.403320312 618.888671875 l 2
 931.533203125 618.888671875 935.915039062 617.19140625 941.548828125 613.795898438 c 0
 947.182617188 610.401367188 950 605.771484375 950 599.907226562 c 0
 950 595.27734375 948.122070312 592.962890625 944.366210938 592.962890625 c 2
 581.455078125 580 l 1
665.961914062 719.814453125 m 2
 664.397460938 719.814453125 662.91015625 719.737304688 661.501953125 719.583007812 c 0
 660.09375 719.428710938 658.763671875 719.3515625 657.51171875 719.3515625 c 0
 653.129882812 719.3515625 649.217773438 720.663085938 645.774414062 723.287109375 c 0
 642.331054688 725.91015625 639.044921875 732.005859375 635.915039062 741.57421875 c 0
 635.602539062 742.19140625 635.446289062 742.962890625 635.446289062 743.888671875 c 0
 635.446289062 744.814453125 636.228515625 745.27734375 637.793945312 745.27734375 c 2
 639.201171875 745.27734375 l 2
 642.331054688 744.66015625 645.3046875 744.120117188 648.122070312 743.657226562 c 0
 650.939453125 743.194335938 654.069335938 742.962890625 657.51171875 742.962890625 c 2
 660.797851562 742.962890625 l 1
 828.874023438 752.684570312 l 2
 832.31640625 752.993164062 835.446289062 753.302734375 838.263671875 753.611328125 c 0
 841.080078125 753.919921875 843.740234375 754.537109375 846.244140625 755.462890625 c 0
 846.870117188 755.771484375 847.965820312 755.92578125 849.53125 755.92578125 c 0
 850.783203125 755.92578125 852.973632812 755.231445312 856.103515625 753.842773438 c 0
 859.233398438 752.453125 862.20703125 750.524414062 865.0234375 748.055664062 c 0
 867.840820312 745.5859375 869.249023438 742.654296875 869.249023438 739.258789062 c 0
 869.249023438 734.321289062 866.275390625 731.54296875 860.329101562 730.92578125 c 2
 665.961914062 719.814453125 l 2
639.670898438 842.037109375 m 2
 637.16796875 841.728515625 634.8203125 841.57421875 632.62890625 841.57421875 c 2
 626.995117188 841.57421875 l 1
 624.647460938 841.57421875 l 2
 619.639648438 841.57421875 615.805664062 843.348632812 613.145507812 846.8984375 c 0
 610.485351562 850.447265625 608.059570312 855.154296875 605.868164062 861.018554688 c 0
 605.555664062 861.635742188 605.399414062 862.407226562 605.399414062 863.333007812 c 0
 605.399414062 864.568359375 606.181640625 865.184570312 607.74609375 865.184570312 c 0
 608.059570312 865.184570312 608.372070312 865.108398438 608.685546875 864.953125 c 0
 608.998046875 864.799804688 609.311523438 864.721679688 609.624023438 864.721679688 c 0
 614.319335938 863.487304688 619.483398438 862.870117188 625.1171875 862.870117188 c 0
 626.369140625 862.870117188 627.69921875 862.947265625 629.108398438 863.1015625 c 0
 630.516601562 863.255859375 631.846679688 863.333007812 633.098632812 863.333007812 c 2
 846.713867188 875.833007812 l 2
 851.095703125 876.141601562 854.850585938 876.681640625 857.98046875 877.454101562 c 0
 861.110351562 878.225585938 864.397460938 878.919921875 867.83984375 879.537109375 c 0
 868.466796875 879.537109375 869.013671875 879.614257812 869.483398438 879.768554688 c 0
 869.953125 879.922851562 870.500976562 880 871.126953125 880 c 0
 875.1953125 880 880.203125 877.685546875 886.150390625 873.055664062 c 0
 889.90625 869.3515625 891.784179688 865.802734375 891.784179688 862.407226562 c 0
 891.784179688 858.395507812 889.749023438 856.080078125 885.680664062 855.462890625 c 2
 639.670898438 842.037109375 l 2
EndSplineSet
EndChar

StartChar: uniE329
Encoding: 58153 58153 63
Width: 1000
VWidth: 0
Flags: W
LayerCount: 2
Fore
SplineSet
918.911132812 859.25 m 1
 796.631835938 853.630859375 l 1
 795.595703125 777.118164062 l 1
 795.595703125 771.930664062 l 2
 795.595703125 761.84375 797.150390625 755.215820312 800.258789062 752.045898438 c 0
 803.3671875 748.875976562 811.657226562 747.291015625 825.12890625 747.291015625 c 0
 836.182617188 747.291015625 844.818359375 747.5078125 851.036132812 747.939453125 c 0
 857.25390625 748.372070312 862.434570312 749.1640625 866.580078125 750.317382812 c 0
 870.724609375 751.469726562 875.215820312 752.766601562 880.051757812 754.20703125 c 0
 880.7421875 754.49609375 881.778320312 754.639648438 883.16015625 754.639648438 c 0
 886.959960938 754.639648438 891.623046875 752.838867188 897.150390625 749.236328125 c 0
 902.676757812 745.633789062 905.440429688 742.103515625 905.440429688 738.645507812 c 0
 905.440429688 734.899414062 902.158203125 732.59375 895.595703125 731.729492188 c 0
 884.887695312 730 873.40234375 728.630859375 861.139648438 727.622070312 c 0
 848.876953125 726.614257812 837.21875 726.109375 826.166015625 726.109375 c 0
 807.166992188 726.109375 793.004882812 728.630859375 783.678710938 733.674804688 c 0
 774.352539062 738.717773438 769.689453125 749.596679688 769.689453125 766.310546875 c 2
 769.689453125 768.040039062 l 1
 770.724609375 852.766601562 l 1
 710.622070312 849.740234375 l 1
 709.584960938 821.209960938 706.044921875 797.21875 700 777.765625 c 0
 693.955078125 758.313476562 684.71484375 741.455078125 672.279296875 727.189453125 c 0
 659.844726562 712.924804688 643.609375 699.1640625 623.57421875 685.907226562 c 0
 617.702148438 681.873046875 612.866210938 679.85546875 609.067382812 679.85546875 c 0
 606.303710938 679.85546875 604.921875 681.0078125 604.921875 683.313476562 c 0
 604.921875 686.483398438 607.51171875 690.23046875 612.693359375 694.552734375 c 0
 628.583007812 707.809570312 641.795898438 721.282226562 652.331054688 734.971679688 c 0
 662.866210938 748.659179688 670.811523438 764.510742188 676.165039062 782.521484375 c 0
 681.51953125 800.533203125 684.196289062 822.650390625 684.196289062 848.875976562 c 1
 583.16015625 844.12109375 l 1
 596.11328125 639.653320312 l 1
 901.294921875 648.731445312 l 1
 918.911132812 859.25 l 1
597.150390625 620.201171875 m 1
 599.22265625 588.645507812 l 1
 599.22265625 587.348632812 l 2
 599.22265625 585.331054688 598.618164062 583.602539062 597.409179688 582.161132812 c 0
 596.200195312 580.720703125 594.213867188 580 591.450195312 580 c 0
 587.651367188 580 583.07421875 581.369140625 577.719726562 584.106445312 c 0
 572.366210938 586.84375 569.689453125 590.23046875 569.689453125 594.264648438 c 2
 569.689453125 597.723632812 l 2
 569.689453125 598.875976562 569.861328125 600.172851562 570.20703125 601.614257812 c 0
 570.552734375 604.784179688 570.811523438 608.026367188 570.984375 611.33984375 c 0
 571.157226562 614.654296875 571.243164062 618.184570312 571.243164062 621.930664062 c 2
 571.243164062 630.577148438 l 1
 558.290039062 831.153320312 l 2
 557.944335938 838.069335938 557.166992188 844.265625 555.958007812 849.740234375 c 0
 554.749023438 855.215820312 553.28125 860.692382812 551.5546875 866.166992188 c 0
 551.208984375 867.608398438 550.86328125 868.833007812 550.517578125 869.841796875 c 0
 550.172851562 870.850585938 550 871.787109375 550 872.651367188 c 0
 550 874.668945312 551.208984375 875.676757812 553.626953125 875.676757812 c 0
 556.044921875 875.676757812 559.7578125 874.8125 564.766601562 873.083984375 c 0
 569.775390625 871.354492188 576.59765625 868.329101562 585.233398438 864.005859375 c 1
 925.12890625 880 l 1
 928.755859375 880 l 2
 934.62890625 880 939.63671875 878.19921875 943.782226562 874.596679688 c 0
 947.926757812 870.994140625 950 867.896484375 950 865.302734375 c 0
 950 863.862304688 949.567382812 862.493164062 948.704101562 861.1953125 c 0
 947.840820312 859.899414062 947.236328125 858.673828125 946.890625 857.521484375 c 2
 928.755859375 650.893554688 l 1
 938.7734375 643.400390625 943.782226562 637.78125 943.782226562 634.034179688 c 0
 943.782226562 630.864257812 939.46484375 628.991210938 930.829101562 628.415039062 c 2
 597.150390625 620.201171875 l 1
EndSplineSet
EndChar

StartChar: uniE32A
Encoding: 58154 58154 64
Width: 1000
VWidth: 0
Flags: W
LayerCount: 2
Fore
SplineSet
838.215820312 739.887695312 m 1
 731.818359375 734.838867188 l 1
 705.780273438 603.983398438 l 1
 825.645507812 607.770507812 l 1
 838.215820312 739.887695312 l 1
584.567382812 580 m 1
 578.283203125 580 l 2
 570.80078125 580 565.114257812 580.981445312 561.223632812 582.9453125 c 0
 557.333007812 584.909179688 553.741210938 590.23828125 550.44921875 598.93359375 c 0
 550.149414062 599.495117188 550 600.336914062 550 601.458984375 c 0
 550 602.861328125 550.8984375 603.5625 552.693359375 603.5625 c 0
 552.993164062 603.5625 553.291992188 603.4921875 553.591796875 603.352539062 c 0
 553.890625 603.211914062 554.190429688 603.141601562 554.489257812 603.141601562 c 0
 558.379882812 602.299804688 561.971679688 601.598632812 565.263671875 601.037109375 c 0
 568.555664062 600.4765625 571.998046875 600.196289062 575.588867188 600.196289062 c 2
 578.731445312 600.196289062 l 1
 682.435546875 603.5625 l 1
 708.024414062 733.998046875 l 1
 647.418945312 731.051757812 l 2
 645.323242188 731.051757812 643.453125 730.981445312 641.806640625 730.841796875 c 0
 640.161132812 730.702148438 638.58984375 730.631835938 637.092773438 730.631835938 c 0
 631.107421875 730.631835938 626.916992188 731.61328125 624.5234375 733.576171875 c 0
 621.530273438 735.8203125 619.135742188 738.8359375 617.33984375 742.623046875 c 0
 615.543945312 746.409179688 614.646484375 748.724609375 614.646484375 749.565429688 c 0
 614.646484375 751.248046875 615.694335938 752.08984375 617.7890625 752.08984375 c 2
 619.135742188 752.08984375 l 2
 622.12890625 751.248046875 624.971679688 750.6875 627.666015625 750.407226562 c 0
 630.359375 750.125976562 632.903320312 749.986328125 635.297851562 749.986328125 c 0
 636.793945312 749.986328125 638.365234375 750.055664062 640.01171875 750.196289062 c 0
 641.657226562 750.336914062 643.228515625 750.407226562 644.724609375 750.407226562 c 2
 711.616210938 753.352539062 l 1
 730.471679688 850.125976562 l 1
 631.706054688 844.657226562 l 2
 629.91015625 844.375976562 628.263671875 844.235351562 626.767578125 844.235351562 c 2
 622.278320312 844.235351562 l 2
 615.694335938 844.235351562 610.830078125 845.288085938 607.6875 847.391601562 c 0
 604.545898438 849.495117188 601.627929688 854.194335938 598.93359375 861.487304688 c 0
 598.634765625 862.047851562 598.485351562 862.749023438 598.485351562 863.590820312 c 0
 598.485351562 864.712890625 599.233398438 865.274414062 600.729492188 865.274414062 c 0
 601.029296875 865.274414062 601.328125 865.204101562 601.627929688 865.063476562 c 0
 601.926757812 864.922851562 602.2265625 864.853515625 602.525390625 864.853515625 c 0
 607.314453125 863.731445312 612.251953125 863.169921875 617.33984375 863.169921875 c 0
 618.836914062 863.169921875 620.258789062 863.240234375 621.60546875 863.379882812 c 0
 622.952148438 863.520507812 624.223632812 863.590820312 625.421875 863.590820312 c 2
 852.58203125 876.212890625 l 2
 856.772460938 876.494140625 860.438476562 876.915039062 863.581054688 877.475585938 c 0
 866.723632812 878.037109375 869.940429688 878.737304688 873.232421875 879.580078125 c 0
 873.831054688 879.580078125 874.280273438 879.650390625 874.580078125 879.7890625 c 0
 874.87890625 879.9296875 875.328125 880 875.926757812 880 c 0
 878.021484375 880 880.71484375 879.298828125 884.006835938 877.896484375 c 0
 887.299804688 876.494140625 890.291992188 874.670898438 892.985351562 872.426757812 c 0
 895.6796875 870.182617188 897.026367188 867.517578125 897.026367188 864.431640625 c 0
 897.026367188 861.06640625 894.78125 859.102539062 890.291992188 858.541015625 c 2
 755.163085938 851.388671875 l 1
 735.859375 754.614257812 l 1
 844.94921875 759.663085938 l 1
 847.194335938 759.663085938 l 2
 852.282226562 759.663085938 856.622070312 758.470703125 860.212890625 756.086914062 c 0
 863.8046875 753.702148438 865.600585938 750.827148438 865.600585938 747.461914062 c 0
 865.600585938 745.778320312 865.2265625 744.235351562 864.478515625 742.833007812 c 0
 863.73046875 741.430664062 863.206054688 740.168945312 862.907226562 739.046875 c 2
 848.541015625 608.611328125 l 1
 906.453125 610.294921875 l 2
 910.643554688 610.575195312 914.235351562 610.85546875 917.227539062 611.135742188 c 0
 920.220703125 611.416992188 923.512695312 612.1171875 927.104492188 613.239257812 c 0
 927.703125 613.520507812 928.600585938 613.66015625 929.797851562 613.66015625 c 0
 933.090820312 613.66015625 937.280273438 611.767578125 942.368164062 607.98046875 c 0
 947.456054688 604.193359375 950 600.336914062 950 596.409179688 c 0
 950 593.32421875 947.755859375 591.5 943.266601562 590.939453125 c 2
 584.567382812 580 l 1
EndSplineSet
EndChar

StartChar: uniE32B
Encoding: 58155 58155 65
Width: 1000
VWidth: 0
Flags: W
LayerCount: 2
Fore
SplineSet
934.389648438 601.51171875 m 0
 934.389648438 598.181640625 932.114257812 595.30078125 927.560546875 592.868164062 c 0
 923.0078125 590.435546875 919.430664062 589.21875 916.829101562 589.21875 c 0
 913.251953125 589.21875 910.487304688 590.37109375 908.536132812 592.67578125 c 0
 891.30078125 612.39453125 872.926757812 631.344726562 853.4140625 649.526367188 c 0
 833.90234375 667.708007812 813.251953125 684.737304688 791.462890625 700.615234375 c 0
 789.51171875 702.151367188 788.536132812 703.6875 788.536132812 705.224609375 c 0
 788.536132812 707.272460938 789.91796875 709.706054688 792.682617188 712.522460938 c 0
 795.446289062 715.33984375 798.454101562 716.748046875 801.70703125 716.748046875 c 0
 803.0078125 716.748046875 804.633789062 716.235351562 806.584960938 715.2109375 c 0
 828.047851562 699.078125 849.186523438 682.176757812 870 664.5078125 c 0
 890.8125 646.837890625 911.30078125 627.759765625 931.462890625 607.2734375 c 0
 933.4140625 605.48046875 934.389648438 603.559570312 934.389648438 601.51171875 c 0
562.194335938 580 m 0
 558.29296875 580 556.340820312 581.15234375 556.340820312 583.45703125 c 0
 556.340820312 585.76171875 558.780273438 588.834960938 563.658203125 592.67578125 c 0
 586.748046875 609.321289062 607.560546875 626.670898438 626.09765625 644.724609375 c 0
 644.634765625 662.778320312 660.568359375 682.3046875 673.90234375 703.302734375 c 0
 674.877929688 704.83984375 675.772460938 706.888671875 676.584960938 709.44921875 c 0
 677.3984375 712.009765625 678.129882812 714.443359375 678.780273438 716.748046875 c 0
 679.10546875 718.028320312 680.081054688 718.66796875 681.70703125 718.66796875 c 0
 683.0078125 718.66796875 685.447265625 717.708007812 689.024414062 715.787109375 c 0
 692.6015625 713.866210938 696.015625 711.43359375 699.267578125 708.489257812 c 0
 702.520507812 705.543945312 704.146484375 702.407226562 704.146484375 699.078125 c 0
 704.146484375 698.053710938 703.8203125 697.029296875 703.170898438 696.004882812 c 0
 687.885742188 676.03125 672.520507812 658.809570312 657.073242188 644.340820312 c 0
 641.625976562 629.87109375 627.235351562 617.8359375 613.90234375 608.233398438 c 0
 600.568359375 598.629882812 589.267578125 591.5234375 580 586.9140625 c 0
 570.731445312 582.3046875 564.796875 580 562.194335938 580 c 0
586.584960938 759.000976562 m 2
 584.30859375 758.745117188 582.194335938 758.6171875 580.244140625 758.6171875 c 2
 574.877929688 758.6171875 l 2
 567.073242188 758.6171875 561.30078125 760.729492188 557.560546875 764.955078125 c 0
 553.8203125 769.180664062 551.462890625 772.573242188 550.487304688 775.134765625 c 0
 550.162109375 775.646484375 550 776.286132812 550 777.0546875 c 0
 550 778.334960938 550.8125 778.975585938 552.438476562 778.975585938 c 0
 553.088867188 778.975585938 553.577148438 778.911132812 553.90234375 778.783203125 c 0
 554.227539062 778.655273438 554.552734375 778.591796875 554.877929688 778.591796875 c 0
 558.129882812 778.079101562 561.544921875 777.6953125 565.122070312 777.439453125 c 0
 568.69921875 777.182617188 572.114257812 777.0546875 575.366210938 777.0546875 c 2
 581.219726562 777.0546875 l 1
 734.877929688 783.96875 l 1
 733.90234375 856.184570312 l 2
 733.90234375 863.098632812 731.951171875 869.756835938 728.048828125 876.159179688 c 0
 727.723632812 876.670898438 727.560546875 877.18359375 727.560546875 877.6953125 c 0
 727.560546875 879.231445312 729.349609375 880 732.926757812 880 c 0
 733.577148438 880 736.178710938 879.744140625 740.731445312 879.231445312 c 0
 745.284179688 878.719726562 749.674804688 877.759765625 753.90234375 876.350585938 c 0
 758.129882812 874.942382812 760.244140625 872.57421875 760.244140625 869.245117188 c 2
 760.244140625 784.737304688 l 1
 895.853515625 790.883789062 l 2
 901.056640625 791.139648438 905.853515625 791.5234375 910.244140625 792.03515625 c 0
 914.633789062 792.547851562 919.10546875 793.31640625 923.658203125 794.340820312 c 0
 924.30859375 794.596679688 924.958984375 794.7890625 925.609375 794.916015625 c 0
 926.259765625 795.044921875 927.073242188 795.108398438 928.048828125 795.108398438 c 0
 929.674804688 795.108398438 932.276367188 794.340820312 935.853515625 792.803710938 c 0
 939.430664062 791.267578125 942.682617188 789.346679688 945.609375 787.041992188 c 0
 948.536132812 784.737304688 950 782.3046875 950 779.744140625 c 0
 950 776.670898438 947.885742188 774.877929688 943.658203125 774.366210938 c 2
 586.584960938 759.000976562 l 2
EndSplineSet
EndChar

StartChar: uniE32C
Encoding: 58156 58156 66
Width: 1000
VWidth: 0
Flags: W
LayerCount: 2
Fore
SplineSet
728.240234375 723.5625 m 1
 727.77734375 640.078125 l 2
 727.77734375 628.634765625 729.552734375 619.987304688 733.1015625 614.135742188 c 0
 736.651367188 608.284179688 743.75 604.3828125 754.397460938 602.431640625 c 0
 765.045898438 600.481445312 781.172851562 599.505859375 802.77734375 599.505859375 c 0
 818.826171875 599.505859375 834.413085938 600.15625 849.537109375 601.456054688 c 0
 864.66015625 602.756835938 878.0859375 604.3828125 889.814453125 606.333007812 c 0
 901.54296875 608.284179688 910.030273438 610.298828125 915.27734375 612.379882812 c 0
 917.12890625 613.16015625 918.981445312 613.55078125 920.833007812 613.55078125 c 0
 926.080078125 613.55078125 930.864257812 611.534179688 935.185546875 607.50390625 c 0
 939.505859375 603.471679688 941.666992188 600.15625 941.666992188 597.555664062 c 0
 941.666992188 593.915039062 938.580078125 591.704101562 932.407226562 590.923828125 c 0
 907.407226562 587.54296875 883.950195312 584.875976562 862.036132812 582.92578125 c 0
 840.123046875 580.975585938 819.59765625 580 800.462890625 580 c 0
 777.623046875 580 759.02734375 581.235351562 744.674804688 583.706054688 c 0
 730.323242188 586.177734375 719.752929688 591.37890625 712.961914062 599.310546875 c 0
 706.171875 607.243164062 702.77734375 619.141601562 702.77734375 635.006835938 c 2
 702.77734375 636.567382812 l 1
 703.240234375 720.051757812 l 1
 588.888671875 704.057617188 l 2
 584.567382812 703.537109375 581.095703125 703.08203125 578.471679688 702.692382812 c 0
 575.848632812 702.301757812 573.45703125 702.106445312 571.295898438 702.106445312 c 0
 568.518554688 702.106445312 565.89453125 702.626953125 563.42578125 703.666992188 c 0
 560.95703125 704.967773438 558.564453125 706.72265625 556.25 708.93359375 c 0
 553.935546875 711.14453125 552.005859375 713.290039062 550.462890625 715.37109375 c 0
 550.154296875 715.890625 550 716.541015625 550 717.321289062 c 0
 550 719.401367188 551.388671875 720.442382812 554.166992188 720.442382812 c 0
 555.709960938 720.181640625 557.021484375 720.051757812 558.1015625 720.051757812 c 2
 561.57421875 720.051757812 l 2
 564.96875 720.051757812 568.1328125 720.247070312 571.064453125 720.637695312 c 0
 573.99609375 721.02734375 576.8515625 721.352539062 579.62890625 721.612304688 c 2
 703.703125 738.77734375 l 1
 704.62890625 859.713867188 l 2
 704.62890625 862.57421875 704.3203125 865.240234375 703.703125 867.7109375 c 0
 703.0859375 870.181640625 701.696289062 872.717773438 699.536132812 875.318359375 c 0
 698.918945312 876.358398438 698.610351562 877.008789062 698.610351562 877.26953125 c 0
 698.610351562 879.088867188 700.307617188 880 703.703125 880 c 0
 706.48046875 880 710.647460938 879.219726562 716.203125 877.659179688 c 0
 725.153320312 874.798828125 729.62890625 871.807617188 729.62890625 868.686523438 c 2
 728.703125 742.2890625 l 1
 896.295898438 765.305664062 l 2
 900.6171875 765.826171875 904.70703125 766.670898438 908.564453125 767.840820312 c 0
 912.422851562 769.01171875 916.357421875 770.376953125 920.370117188 771.9375 c 0
 921.295898438 772.458007812 922.375976562 772.84765625 923.610351562 773.107421875 c 0
 924.845703125 773.368164062 926.080078125 773.498046875 927.314453125 773.498046875 c 0
 929.166992188 773.498046875 931.8671875 772.84765625 935.416992188 771.547851562 c 0
 938.965820312 770.247070312 942.284179688 768.491210938 945.370117188 766.28125 c 0
 948.45703125 764.0703125 950 761.534179688 950 758.673828125 c 0
 950 755.552734375 947.838867188 753.731445312 943.518554688 753.211914062 c 2
 728.240234375 723.5625 l 1
EndSplineSet
EndChar

StartChar: uniE32D
Encoding: 58157 58157 67
Width: 1000
VWidth: 0
Flags: W
LayerCount: 2
Fore
SplineSet
705.555664062 809.999023438 m 1
 692.483398438 756.666015625 674.328125 712.200195312 651.08984375 676.599609375 c 0
 627.849609375 641 599.818359375 610.932617188 566.993164062 586.399414062 c 0
 561.474609375 582.1328125 556.971679688 580 553.486328125 580 c 0
 551.162109375 580 550 580.932617188 550 582.799804688 c 0
 550 586.266601562 552.905273438 590.666992188 558.71484375 596 c 0
 580.2109375 615.466796875 598.220703125 635.399414062 612.745117188 655.799804688 c 0
 627.26953125 676.19921875 639.034179688 695.866210938 648.0390625 714.799804688 c 0
 657.043945312 733.733398438 663.87109375 750.799804688 668.518554688 765.999023438 c 0
 673.166015625 781.19921875 676.361328125 793.399414062 678.104492188 802.599609375 c 0
 679.84765625 811.798828125 680.71875 816.666015625 680.71875 817.200195312 c 0
 680.71875 818.265625 680.646484375 819.333007812 680.500976562 820.399414062 c 0
 680.35546875 821.465820312 680.283203125 822.533203125 680.283203125 823.599609375 c 0
 680.283203125 825.999023438 681.4453125 827.19921875 683.76953125 827.19921875 c 0
 686.383789062 827.19921875 689.361328125 826.399414062 692.701171875 824.799804688 c 0
 696.041992188 823.19921875 699.01953125 821.19921875 701.633789062 818.798828125 c 0
 704.249023438 816.399414062 705.555664062 814.1328125 705.555664062 811.999023438 c 2
 705.555664062 809.999023438 l 1
753.049804688 880 m 2
 760.602539062 880 765.46875 879.1328125 767.647460938 877.399414062 c 0
 769.826171875 875.666992188 771.49609375 873.333007812 772.658203125 870.399414062 c 0
 774.110351562 866.93359375 775.78125 863 777.668945312 858.599609375 c 0
 779.556640625 854.19921875 781.08203125 849.732421875 782.244140625 845.19921875 c 0
 787.47265625 828.1328125 795.025390625 809 804.90234375 787.799804688 c 0
 814.779296875 766.599609375 826.76171875 744.732421875 840.849609375 722.19921875 c 0
 854.938476562 699.666992188 870.915039062 677.799804688 888.780273438 656.599609375 c 0
 906.645507812 635.399414062 926.180664062 616.266601562 947.385742188 599.200195312 c 0
 949.127929688 597.599609375 950 596.266601562 950 595.200195312 c 0
 950 593.333007812 948.474609375 591.465820312 945.424804688 589.600585938 c 0
 942.375 587.733398438 939.1796875 586.200195312 935.838867188 585 c 0
 932.498046875 583.799804688 930.392578125 583.200195312 929.520507812 583.200195312 c 0
 927.197265625 583.200195312 925.30859375 583.866210938 923.856445312 585.200195312 c 0
 896.259765625 610.266601562 871.786132812 637.466796875 850.435546875 666.799804688 c 0
 829.084960938 696.1328125 811.07421875 725.599609375 796.405273438 755.200195312 c 0
 781.735351562 784.799804688 770.333984375 812.266601562 762.200195312 837.599609375 c 0
 759.5859375 846.133789062 757.334960938 852.533203125 755.446289062 856.799804688 c 0
 753.55859375 861.06640625 751.669921875 864.266601562 749.782226562 866.400390625 c 0
 747.893554688 868.533203125 745.497070312 870.399414062 742.591796875 872 c 0
 740.849609375 872.799804688 739.977539062 874 739.977539062 875.600585938 c 0
 739.977539062 878.266601562 743.609375 879.733398438 750.87109375 880 c 2
 753.049804688 880 l 2
EndSplineSet
EndChar

StartChar: uniE32E
Encoding: 58158 58158 68
Width: 1000
VWidth: 0
Flags: W
LayerCount: 2
Fore
SplineSet
950 665.111328125 m 2
 949.702148438 658.78125 949.1796875 651.512695312 948.434570312 643.306640625 c 0
 947.688476562 635.099609375 946.122070312 626.541992188 943.736328125 617.631835938 c 0
 941.946289062 609.66015625 938.590820312 603.505859375 933.668945312 599.16796875 c 0
 928.747070312 594.830078125 920.9921875 591.782226562 910.403320312 590.0234375 c 0
 899.813476562 588.264648438 884.825195312 587.385742188 865.436523438 587.385742188 c 0
 858.576171875 587.385742188 851.416992188 587.678710938 843.959960938 588.264648438 c 0
 836.502929688 588.850585938 829.493164062 590.19921875 822.930664062 592.309570312 c 0
 816.368164062 594.419921875 811.07421875 597.643554688 807.046875 601.981445312 c 0
 803.020507812 606.319335938 801.006835938 612.239257812 801.006835938 619.7421875 c 0
 801.006835938 620.2109375 801.08203125 620.796875 801.23046875 621.500976562 c 0
 801.379882812 622.204101562 801.454101562 622.907226562 801.454101562 623.611328125 c 2
 821.140625 776.600585938 l 1
 729.865234375 770.622070312 l 1
 726.8828125 757.725585938 723.228515625 745.298828125 718.903320312 733.341796875 c 0
 714.579101562 721.383789062 709.731445312 710.247070312 704.362304688 699.9296875 c 0
 695.4140625 682.813476562 684.825195312 667.631835938 672.594726562 654.384765625 c 0
 660.365234375 641.13671875 647.688476562 629.82421875 634.563476562 620.4453125 c 0
 621.439453125 611.06640625 609.134765625 603.387695312 597.651367188 597.409179688 c 0
 586.166992188 591.4296875 576.47265625 587.034179688 568.568359375 584.219726562 c 0
 560.6640625 581.40625 555.81640625 580 554.02734375 580 c 0
 551.342773438 580 550 580.8203125 550 582.461914062 c 0
 550 584.806640625 552.684570312 587.385742188 558.053710938 590.19921875 c 0
 585.793945312 604.736328125 608.538085938 619.68359375 626.287109375 635.041015625 c 0
 644.03515625 650.3984375 658.053710938 665.755859375 668.344726562 681.114257812 c 0
 678.634765625 696.471679688 686.540039062 711.594726562 692.057617188 726.483398438 c 0
 697.576171875 741.372070312 701.9765625 755.616210938 705.2578125 769.21484375 c 1
 616.666992188 763.587890625 l 2
 614.579101562 763.352539062 612.565429688 763.176757812 610.626953125 763.059570312 c 0
 608.6875 762.943359375 606.97265625 762.883789062 605.48046875 762.883789062 c 0
 601.603515625 762.883789062 598.620117188 763.587890625 596.532226562 764.994140625 c 0
 593.549804688 766.635742188 591.163085938 768.5703125 589.374023438 770.797851562 c 0
 587.583984375 773.025390625 586.390625 775.193359375 585.793945312 777.303710938 c 0
 585.49609375 777.772460938 585.346679688 778.358398438 585.346679688 779.0625 c 0
 585.346679688 779.765625 586.092773438 780.1171875 587.583984375 780.1171875 c 2
 588.92578125 780.1171875 l 2
 594.892578125 779.4140625 599.962890625 779.0625 604.138671875 779.0625 c 0
 606.2265625 779.0625 608.166015625 779.12109375 609.955078125 779.23828125 c 0
 611.745117188 779.35546875 613.53515625 779.4140625 615.32421875 779.4140625 c 2
 708.836914062 785.392578125 l 1
 711.521484375 798.053710938 713.459960938 810.540039062 714.653320312 822.849609375 c 0
 715.845703125 835.159179688 716.442382812 846.706054688 716.442382812 857.491210938 c 0
 716.442382812 861.477539062 716.0703125 864.759765625 715.32421875 867.338867188 c 0
 714.579101562 869.91796875 713.459960938 873.083007812 711.96875 876.834960938 c 2
 711.96875 877.538085938 l 2
 711.96875 879.1796875 713.609375 880 716.890625 880 c 0
 719.276367188 880 722.408203125 879.53125 726.286132812 878.59375 c 0
 730.1640625 877.655273438 733.668945312 876.306640625 736.80078125 874.548828125 c 0
 739.932617188 872.790039062 741.499023438 870.504882812 741.499023438 867.690429688 c 0
 741.499023438 854.794921875 740.752929688 841.489257812 739.26171875 827.772460938 c 0
 737.770507812 814.056640625 735.83203125 800.515625 733.4453125 787.151367188 c 1
 825.615234375 793.130859375 l 1
 829.194335938 793.130859375 l 2
 836.0546875 793.130859375 840.752929688 792.016601562 843.288085938 789.7890625 c 0
 845.82421875 787.561523438 847.091796875 785.510742188 847.091796875 783.634765625 c 0
 847.091796875 782.227539062 846.79296875 780.76171875 846.197265625 779.23828125 c 0
 845.600585938 777.713867188 845.15234375 776.248046875 844.854492188 774.841796875 c 2
 825.615234375 627.831054688 l 2
 825.31640625 626.893554688 825.16796875 626.013671875 825.16796875 625.193359375 c 2
 825.16796875 622.907226562 l 2
 825.16796875 615.638671875 828.5234375 611.008789062 835.235351562 609.014648438 c 0
 841.946289062 607.022460938 852.758789062 606.025390625 867.672851562 606.025390625 c 0
 883.482421875 606.025390625 894.891601562 606.729492188 901.901367188 608.135742188 c 0
 908.911132812 609.54296875 913.608398438 611.477539062 915.995117188 613.938476562 c 0
 918.381835938 616.401367188 920.3203125 619.390625 921.811523438 622.907226562 c 0
 923.303710938 625.955078125 924.944335938 630.05859375 926.733398438 635.216796875 c 0
 928.5234375 640.375 930.23828125 645.767578125 931.87890625 651.395507812 c 0
 933.51953125 657.022460938 934.637695312 661.946289062 935.234375 666.166992188 c 0
 937.322265625 676.952148438 940.454101562 682.344726562 944.630859375 682.344726562 c 0
 948.209960938 682.344726562 950 677.420898438 950 667.573242188 c 2
 950 665.111328125 l 2
EndSplineSet
EndChar

StartChar: uniE32F
Encoding: 58159 58159 69
Width: 1000
VWidth: 0
Flags: W
LayerCount: 2
Fore
SplineSet
731.205078125 594.219726562 m 2
 732.168945312 598.84375 732.811523438 603.063476562 733.1328125 606.877929688 c 0
 733.454101562 610.693359375 733.614257812 615.375 733.614257812 620.924804688 c 2
 734.578125 742.311523438 l 1
 586.14453125 736.416015625 l 2
 582.931640625 736.184570312 580.200195312 736.01171875 577.952148438 735.895507812 c 0
 575.703125 735.780273438 573.775390625 735.72265625 572.168945312 735.72265625 c 0
 570.883789062 735.72265625 567.750976562 736.358398438 562.770507812 737.629882812 c 0
 557.791015625 738.901367188 553.6953125 743.12109375 550.482421875 750.2890625 c 0
 550.161132812 750.750976562 550 751.329101562 550 752.022460938 c 0
 550 753.178710938 550.802734375 753.756835938 552.409179688 753.756835938 c 0
 553.052734375 753.756835938 553.534179688 753.69921875 553.85546875 753.583984375 c 0
 554.176757812 753.467773438 554.498046875 753.41015625 554.819335938 753.41015625 c 0
 558.032226562 752.948242188 561.405273438 752.600585938 564.939453125 752.370117188 c 0
 568.473632812 752.138671875 571.84765625 752.022460938 575.060546875 752.022460938 c 2
 580.84375 752.022460938 l 1
 734.578125 758.612304688 l 1
 735.060546875 859.190429688 l 2
 735.060546875 862.196289062 734.739257812 865.202148438 734.096679688 868.208007812 c 0
 733.454101562 871.213867188 732.650390625 873.873046875 731.686523438 876.184570312 c 0
 731.686523438 876.416015625 731.606445312 876.647460938 731.4453125 876.87890625 c 0
 731.28515625 877.109375 731.205078125 877.340820312 731.205078125 877.572265625 c 0
 731.205078125 879.190429688 732.971679688 880 736.505859375 880 c 0
 741.00390625 880 746.224609375 879.017578125 752.168945312 877.051757812 c 0
 758.112304688 875.086914062 761.084960938 872.600585938 761.084960938 869.595703125 c 2
 760.120117188 760 l 1
 896.505859375 765.548828125 l 2
 901.646484375 765.780273438 906.385742188 766.126953125 910.72265625 766.58984375 c 0
 915.059570312 767.051757812 919.477539062 767.745117188 923.975585938 768.669921875 c 0
 925.260742188 769.1328125 926.545898438 769.364257812 927.831054688 769.364257812 c 0
 929.4375 769.364257812 932.0078125 768.669921875 935.541992188 767.283203125 c 0
 939.076171875 765.895507812 942.369140625 764.103515625 945.421875 761.907226562 c 0
 948.473632812 759.7109375 950 757.340820312 950 754.797851562 c 0
 950 752.25390625 947.911132812 750.750976562 943.735351562 750.2890625 c 2
 760.120117188 743.005859375 l 1
 759.15625 586.58984375 l 2
 759.15625 582.196289062 756.586914062 580 751.4453125 580 c 0
 747.590820312 580 743.252929688 581.271484375 738.43359375 583.815429688 c 0
 733.614257812 586.358398438 731.205078125 589.249023438 731.205078125 592.485351562 c 2
 731.205078125 594.219726562 l 2
EndSplineSet
EndChar

StartChar: uniE359
Encoding: 58201 58201 70
Width: 1000
VWidth: 0
Flags: W
LayerCount: 2
Fore
SplineSet
911.168945312 538.645507812 m 1
 302.607421875 511.506835938 l 1
 301.83984375 485.086914062 300.8828125 457.374023438 299.734375 428.368164062 c 0
 298.583984375 399.362304688 299.92578125 419.609375 296.861328125 389.168945312 c 1
 881.287109375 415.4453125 l 1
 911.168945312 538.645507812 l 1
947.9453125 378.399414062 m 1
 292.26171875 350.3984375 l 1
 291.494140625 341.209960938 286.896484375 281.908203125 285.365234375 272.4296875 c 0
 283.833984375 262.954101562 282.30078125 253.62109375 280.767578125 244.430664062 c 0
 270.806640625 192.163085938 253.951171875 143.7734375 230.19921875 99.26171875 c 0
 206.4453125 54.748046875 180.77734375 16.123046875 153.1953125 -16.6162109375 c 0
 125.611328125 -49.353515625 100.134765625 -74.76953125 76.765625 -92.861328125 c 0
 53.396484375 -110.954101562 37.49609375 -120 29.068359375 -120 c 0
 24.470703125 -120 22.171875 -117.990234375 22.171875 -113.969726562 c 0
 22.171875 -111.09765625 23.705078125 -106.93359375 26.76953125 -101.4765625 c 0
 29.8359375 -96.0205078125 35.197265625 -89.5595703125 42.859375 -82.091796875 c 0
 85.001953125 -37.8671875 119.09765625 5.0673828125 145.150390625 46.7080078125 c 0
 171.201171875 88.349609375 191.12109375 131.5703125 204.9140625 176.370117188 c 0
 218.705078125 221.168945312 228.091796875 270.276367188 233.072265625 323.692382812 c 0
 238.052734375 377.108398438 240.54296875 437.701171875 240.54296875 505.4765625 c 0
 240.54296875 513.517578125 239.966796875 521.415039062 238.818359375 529.168945312 c 0
 237.669921875 536.922851562 234.796875 545.39453125 230.19921875 554.584960938 c 0
 227.900390625 558.03125 226.75 561.189453125 226.75 564.061523438 c 0
 226.75 568.083007812 229.81640625 570.091796875 235.9453125 570.091796875 c 0
 241.30859375 570.091796875 249.353515625 568.65625 260.080078125 565.784179688 c 0
 270.806640625 562.913085938 284.982421875 558.03125 302.60546875 551.138671875 c 1
 927.2578125 580 l 2
 937.984375 580 949.095703125 577.416015625 960.587890625 572.245117188 c 0
 972.08203125 567.077148438 977.828125 560.758789062 977.828125 553.29296875 c 0
 977.828125 550.419921875 977.060546875 547.8359375 975.529296875 545.538085938 c 0
 973.998046875 543.240234375 972.685546875 540.958007812 972.08203125 538.646484375 c 2
 941.048828125 419.754882812 l 1
 951.775390625 414.009765625 959.24609375 408.698242188 963.4609375 403.815429688 c 0
 967.67578125 398.93359375 969.783203125 394.76953125 969.783203125 391.322265625 c 0
 969.783203125 387.302734375 967.8671875 384.287109375 964.037109375 382.27734375 c 0
 960.205078125 380.266601562 955.607421875 378.975585938 950.244140625 378.399414062 c 2
 947.9453125 378.399414062 l 1
EndSplineSet
EndChar

StartChar: uniE35A
Encoding: 58202 58202 71
Width: 1000
VWidth: 0
Flags: W
LayerCount: 2
Fore
SplineSet
908.03125 110.368164062 m 2
 908.03125 87.8349609375 906.404296875 66.63671875 903.150390625 46.7724609375 c 0
 899.8984375 26.9072265625 897.458984375 6.89453125 895.83203125 -13.2666015625 c 0
 895.01953125 -38.763671875 882.2109375 -59.517578125 857.408203125 -75.52734375 c 0
 832.60546875 -91.5380859375 799.060546875 -101.618164062 756.7734375 -105.76953125 c 0
 711.232421875 -109.919921875 664.87890625 -113.329101562 617.712890625 -115.997070312 c 0
 570.546875 -118.666015625 523.37890625 -120 476.212890625 -120 c 0
 397.33203125 -120 320.482421875 -116.442382812 245.66796875 -109.327148438 c 0
 209.884765625 -105.76953125 179.1875 -95.8369140625 153.5703125 -79.5302734375 c 0
 127.955078125 -63.22265625 114.740234375 -35.798828125 113.92578125 2.744140625 c 2
 107.826171875 525.743164062 l 2
 107.826171875 541.752929688 102.947265625 556.874023438 93.189453125 571.10546875 c 0
 92.376953125 572.291015625 91.96875 573.477539062 91.96875 574.663085938 c 0
 91.96875 578.220703125 96.44140625 580 105.38671875 580 c 0
 120.837890625 580 136.0859375 577.627929688 151.130859375 572.883789062 c 0
 166.17578125 568.140625 173.697265625 562.506835938 173.697265625 555.984375 c 2
 177.357421875 13.4169921875 l 2
 177.357421875 -13.2666015625 184.26953125 -32.0927734375 198.09375 -43.0625 c 0
 211.91796875 -54.0322265625 235.095703125 -61.296875 267.623046875 -64.853515625 c 0
 300.96484375 -68.412109375 335.52734375 -70.9326171875 371.30859375 -72.4150390625 c 0
 407.08984375 -73.896484375 443.27734375 -74.6376953125 479.873046875 -74.6376953125 c 0
 524.599609375 -74.6376953125 568.716796875 -73.4521484375 612.22265625 -71.080078125 c 0
 655.73046875 -68.7080078125 697.408203125 -65.447265625 737.255859375 -61.296875 c 0
 758.3984375 -58.9248046875 775.6796875 -55.8115234375 789.09765625 -51.95703125 c 0
 802.515625 -48.103515625 813.494140625 -40.689453125 822.033203125 -29.720703125 c 0
 830.572265625 -18.7509765625 838.09375 -2 844.599609375 20.533203125 c 0
 851.10546875 43.06640625 857.611328125 73.900390625 864.1171875 113.036132812 c 0
 865.744140625 125.489257812 868.99609375 134.828125 873.875 141.0546875 c 0
 878.75390625 147.280273438 883.634765625 150.393554688 888.513671875 150.393554688 c 0
 893.392578125 150.393554688 897.865234375 147.428710938 901.931640625 141.499023438 c 0
 905.998046875 135.569335938 908.03125 126.674804688 908.03125 114.815429688 c 2
 908.03125 110.368164062 l 2
EndSplineSet
EndChar

StartChar: uniE35D
Encoding: 58205 58205 72
Width: 1000
VWidth: 0
Flags: W
LayerCount: 2
Fore
SplineSet
788.208984375 -57.72265625 m 2
 793.669921875 -57.72265625 797.3125 -55.9638671875 799.1328125 -52.4462890625 c 0
 825.533203125 15.8115234375 844.87890625 88.294921875 857.16796875 164.997070312 c 0
 869.45703125 241.700195312 878.333984375 318.049804688 883.796875 394.05078125 c 1
 261.109375 364.495117188 l 1
 240.169921875 343.384765625 223.107421875 328.500976562 208.376953125 315.518554688 c 0
 182.431640625 292.6484375 177.14453125 288.776367188 151.65625 269.07421875 c 0
 126.1640625 249.372070312 116.88671875 243.180664062 96.404296875 230.866210938 c 0
 75.919921875 218.552734375 61.126953125 212.39453125 52.0234375 212.39453125 c 0
 43.830078125 212.39453125 39.734375 214.858398438 39.734375 219.783203125 c 0
 39.734375 225.413085938 46.10546875 233.15234375 58.8515625 243.004882812 c 0
 78.65234375 258.310546875 118.251953125 294.408203125 147.611328125 323.434570312 c 0
 171.525390625 347.079101562 204.2109375 383.3203125 235.1640625 420.966796875 c 0
 252.607421875 442.18359375 267.62109375 466.006835938 281.27734375 489.750976562 c 0
 298.97265625 520.520507812 308.587890625 544.463867188 308.587890625 562.055664062 c 2
 308.587890625 570.5 l 2
 308.587890625 576.833007812 311.7734375 580 318.146484375 580 c 0
 322.69921875 580 330.892578125 577.712890625 342.7265625 573.138671875 c 0
 354.560546875 568.564453125 365.712890625 562.758789062 376.181640625 555.721679688 c 0
 386.650390625 548.684570312 391.88671875 541.647460938 391.88671875 534.611328125 c 0
 391.88671875 533.204101562 386.87890625 524.583984375 376.865234375 508.75 c 0
 366.8515625 492.916992188 353.423828125 473.213867188 336.58203125 449.639648438 c 0
 319.740234375 426.065429688 319.087890625 426.139648438 306.171875 411.995117188 c 1
 900.181640625 440.495117188 l 1
 905.64453125 440.495117188 l 2
 921.12109375 440.495117188 934.09375 437.328125 944.5625 430.995117188 c 0
 955.03125 424.661132812 960.265625 418.680664062 960.265625 413.05078125 c 0
 960.265625 408.828125 958.900390625 404.078125 956.169921875 398.80078125 c 0
 953.4375 393.5234375 951.6171875 387.014648438 950.70703125 379.2734375 c 0
 947.06640625 332.830078125 941.83203125 285.155273438 935.00390625 236.247070312 c 0
 928.17578125 187.33984375 920.2109375 139.838867188 911.107421875 93.7470703125 c 0
 902.001953125 47.65625 891.533203125 5.6103515625 879.69921875 -32.3896484375 c 0
 876.05859375 -44.3525390625 872.189453125 -57.1953125 868.091796875 -70.9169921875 c 0
 863.99609375 -84.6396484375 854.6640625 -96.7783203125 840.099609375 -107.333984375 c 0
 829.173828125 -115.77734375 816.884765625 -120 803.228515625 -120 c 0
 793.21484375 -120 778.650390625 -116.833007812 759.53125 -110.5 c 0
 740.4140625 -104.166992188 720.158203125 -95.896484375 698.763671875 -85.6953125 c 0
 677.37109375 -75.4912109375 656.888671875 -64.935546875 637.314453125 -54.0283203125 c 0
 617.7421875 -43.1201171875 601.583984375 -32.9169921875 588.83984375 -23.4169921875 c 0
 576.09375 -13.91796875 569.720703125 -6.703125 569.720703125 -1.7783203125 c 0
 569.720703125 3.8515625 574.2734375 6.666015625 583.376953125 6.666015625 c 0
 590.66015625 6.666015625 600.21875 4.203125 612.052734375 -0.72265625 c 0
 671.2265625 -26.056640625 728.580078125 -45.056640625 784.111328125 -57.72265625 c 1
 788.208984375 -57.72265625 l 2
EndSplineSet
EndChar

StartChar: uniE362
Encoding: 58210 58210 73
Width: 1000
VWidth: 0
Flags: W
LayerCount: 2
Fore
SplineSet
268.416015625 498.318359375 m 1
 267.641601562 460.258789062 265.70703125 417.662109375 262.611328125 370.526367188 c 0
 259.515625 323.392578125 254.098632812 278.161132812 246.360351562 234.831054688 c 0
 240.168945312 198.528320312 229.915039062 163.103515625 215.598632812 128.557617188 c 0
 201.28125 94.0107421875 184.836914062 61.6611328125 166.263671875 31.5068359375 c 0
 147.690429688 1.3515625 129.310546875 -24.9970703125 111.124023438 -47.541015625 c 0
 92.9384765625 -70.083984375 76.2998046875 -87.794921875 61.208984375 -100.676757812 c 0
 46.1181640625 -113.55859375 34.703125 -120 26.96484375 -120 c 0
 22.3212890625 -120 20 -117.658203125 20 -112.973632812 c 0
 20 -110.045898438 20.966796875 -106.094726562 22.9013671875 -101.1171875 c 0
 24.8369140625 -96.1396484375 28.5126953125 -90.4296875 33.9296875 -83.990234375 c 0
 82.6845703125 -22.5087890625 119.25 39.556640625 143.626953125 102.208984375 c 0
 168.004882812 164.860351562 184.0625 227.803710938 191.801757812 291.041992188 c 0
 199.540039062 354.278320312 203.409179688 417.80859375 203.409179688 481.631835938 c 0
 203.409179688 504.465820312 200.701171875 526.423828125 195.284179688 547.502929688 c 0
 194.509765625 549.259765625 194.123046875 551.016601562 194.123046875 552.772460938 c 2
 194.123046875 557.1640625 l 2
 194.123046875 561.848632812 196.83203125 564.19140625 202.249023438 564.19140625 c 0
 206.891601562 564.19140625 214.82421875 562.43359375 226.045898438 558.920898438 c 0
 237.266601562 555.407226562 252.55078125 549.551757812 271.8984375 541.35546875 c 1
 852.309570312 569.4609375 l 2
 866.239257812 570.630859375 877.84765625 571.802734375 887.133789062 572.973632812 c 0
 896.420898438 574.145507812 906.09375 575.900390625 916.154296875 578.243164062 c 0
 920.797851562 579.415039062 924.666992188 580 927.762695312 580 c 0
 930.858398438 580 936.662109375 578.53515625 945.174804688 575.608398438 c 0
 953.6875 572.680664062 961.620117188 568.581054688 968.971679688 563.311523438 c 0
 976.32421875 558.041992188 980 552.1875 980 545.747070312 c 0
 980 536.962890625 974.1953125 531.986328125 962.586914062 530.815429688 c 2
 268.416015625 498.318359375 l 1
EndSplineSet
EndChar

StartChar: uniE375
Encoding: 58229 58229 74
Width: 1000
VWidth: 0
Flags: W
LayerCount: 2
Fore
SplineSet
714.583984375 418.915039062 m 1
 281.138671875 398.674804688 l 1
 290.771484375 302.529296875 l 1
 703.880859375 321.083984375 l 1
 714.583984375 418.915039062 l 1
727.42578125 542.891601562 m 1
 267.224609375 519.276367188 l 1
 276.857421875 432.409179688 l 1
 717.794921875 454.336914062 l 1
 727.42578125 542.891601562 l 1
525.15234375 130.481445312 m 1
 526.22265625 -106.506835938 l 2
 526.22265625 -109.879882812 524.794921875 -112.97265625 521.94140625 -115.784179688 c 0
 519.087890625 -118.594726562 514.806640625 -120 509.09765625 -120 c 0
 505.53125 -120 500.1796875 -118.594726562 493.044921875 -115.784179688 c 0
 482.341796875 -110.162109375 475.029296875 -105.662109375 471.10546875 -102.2890625 c 0
 467.1796875 -98.916015625 465.21875 -95.26171875 465.21875 -91.326171875 c 0
 465.21875 -90.201171875 465.396484375 -89.2177734375 465.75390625 -88.3740234375 c 0
 466.111328125 -87.53125 466.2890625 -86.8271484375 466.2890625 -86.265625 c 0
 467.716796875 -77.8310546875 468.787109375 -68.1328125 469.5 -57.1689453125 c 0
 470.212890625 -46.205078125 470.5703125 -38.193359375 470.5703125 -33.1337890625 c 2
 471.640625 128.794921875 l 1
 94.916015625 116.143554688 l 1
 78.86328125 116.143554688 l 2
 68.875 116.143554688 58.349609375 117.690429688 47.291015625 120.782226562 c 0
 36.232421875 123.874023438 27.4921875 133.291992188 21.0703125 149.036132812 c 0
 20.357421875 150.159179688 20 151.56640625 20 153.252929688 c 0
 20 155.501953125 21.783203125 156.625 25.3515625 156.625 c 2
 29.6328125 156.625 l 2
 36.767578125 154.940429688 44.259765625 153.814453125 52.107421875 153.252929688 c 0
 59.955078125 152.689453125 67.447265625 152.41015625 74.58203125 152.41015625 c 2
 86.35546875 152.41015625 l 1
 471.638671875 166.74609375 l 1
 471.638671875 273.012695312 l 1
 295.05078125 266.264648438 l 1
 298.26171875 241.806640625 l 1
 298.26171875 239.278320312 l 2
 298.26171875 232.530273438 294.337890625 229.15625 286.48828125 229.15625 c 0
 283.634765625 229.15625 278.640625 229.859375 271.505859375 231.264648438 c 0
 264.37109375 232.669921875 257.771484375 235.340820312 251.70703125 239.278320312 c 0
 245.640625 243.213867188 242.609375 248.272460938 242.609375 254.458007812 c 2
 242.609375 266.264648438 l 1
 242.609375 278.494140625 l 2
 242.609375 282.709960938 242.251953125 287.348632812 241.5390625 292.409179688 c 2
 219.064453125 514.216796875 l 2
 217.63671875 528.834960938 212.642578125 542.330078125 204.080078125 554.700195312 c 0
 200.513671875 559.197265625 198.73046875 562.8515625 198.73046875 565.663085938 c 0
 198.73046875 568.475585938 201.939453125 569.879882812 208.361328125 569.879882812 c 0
 218.349609375 569.879882812 239.041015625 565.1015625 270.435546875 555.541992188 c 1
 744.548828125 580 l 1
 750.970703125 580 l 2
 758.818359375 580 767.380859375 577.750976562 776.65625 573.25390625 c 0
 785.21875 568.193359375 789.498046875 562.571289062 789.498046875 556.385742188 c 0
 789.498046875 552.450195312 788.427734375 548.935546875 786.287109375 545.84375 c 0
 784.1484375 542.751953125 782.720703125 540.081054688 782.0078125 537.831054688 c 2
 754.181640625 323.615234375 l 1
 772.732421875 310.682617188 782.0078125 301.124023438 782.0078125 294.940429688 c 0
 782.0078125 289.318359375 774.158203125 285.944335938 758.462890625 284.819335938 c 2
 525.150390625 275.541992188 l 1
 525.150390625 167.590820312 l 1
 863.34375 180.241210938 l 2
 875.47265625 180.803710938 885.998046875 181.647460938 894.916015625 182.771484375 c 0
 903.833984375 183.896484375 913.2890625 185.583007812 923.27734375 187.83203125 c 0
 927.55859375 188.95703125 930.76953125 189.518554688 932.908203125 189.518554688 c 0
 938.6171875 189.518554688 945.216796875 187.549804688 952.708984375 183.614257812 c 0
 960.19921875 179.678710938 966.62109375 175.040039062 971.97265625 169.69921875 c 0
 977.32421875 164.357421875 980 160 980 156.625976562 c 0
 980 151.00390625 975.361328125 147.631835938 966.0859375 146.506835938 c 2
 525.15234375 130.481445312 l 1
EndSplineSet
EndChar

StartChar: uniE3BC
Encoding: 58300 58300 75
Width: 1000
VWidth: 0
Flags: W
LayerCount: 2
Fore
SplineSet
436.577148438 26.5419921875 m 2
 433.451171875 25.791015625 430.63671875 25.228515625 428.135742188 24.853515625 c 0
 425.634765625 24.478515625 423.447265625 24.291015625 421.571289062 24.291015625 c 0
 416.569335938 24.291015625 412.426757812 28.60546875 409.14453125 37.2333984375 c 0
 405.861328125 45.861328125 403.517578125 54.865234375 402.110351562 64.244140625 c 0
 400.703125 73.623046875 400 79.8125 400 82.8134765625 c 0
 400 86.5654296875 400.78125 88.4404296875 402.344726562 88.4404296875 c 0
 403.283203125 88.4404296875 404.064453125 88.0654296875 404.689453125 87.3154296875 c 0
 407.502929688 85.064453125 410.708007812 83.564453125 414.302734375 82.8134765625 c 0
 417.897460938 82.0634765625 421.258789062 81.6884765625 424.384765625 81.6884765625 c 2
 430.01171875 81.6884765625 l 1
 754.044921875 125.580078125 l 2
 759.359375 126.331054688 763.500976562 127.268554688 766.471679688 128.393554688 c 0
 769.44140625 129.51953125 772.645507812 131.583007812 776.083984375 134.583984375 c 0
 776.709960938 135.333984375 777.491210938 135.708984375 778.4296875 135.708984375 c 0
 779.6796875 135.708984375 782.024414062 133.646484375 785.462890625 129.51953125 c 0
 788.90234375 125.392578125 792.184570312 119.765625 795.310546875 112.637695312 c 0
 798.4375 105.509765625 800 97.4443359375 800 88.4404296875 c 0
 800 79.4375 797.811523438 74.185546875 793.434570312 72.6845703125 c 2
 436.577148438 26.5419921875 l 2
EndSplineSet
EndChar

